%TF.GenerationSoftware,KiCad,Pcbnew,7.0.10*%
%TF.CreationDate,2024-01-31T17:42:11+01:00*%
%TF.ProjectId,minimouse,6d696e69-6d6f-4757-9365-2e6b69636164,rev?*%
%TF.SameCoordinates,Original*%
%TF.FileFunction,Paste,Top*%
%TF.FilePolarity,Positive*%
%FSLAX46Y46*%
G04 Gerber Fmt 4.6, Leading zero omitted, Abs format (unit mm)*
G04 Created by KiCad (PCBNEW 7.0.10) date 2024-01-31 17:42:11*
%MOMM*%
%LPD*%
G01*
G04 APERTURE LIST*
G04 Aperture macros list*
%AMRoundRect*
0 Rectangle with rounded corners*
0 $1 Rounding radius*
0 $2 $3 $4 $5 $6 $7 $8 $9 X,Y pos of 4 corners*
0 Add a 4 corners polygon primitive as box body*
4,1,4,$2,$3,$4,$5,$6,$7,$8,$9,$2,$3,0*
0 Add four circle primitives for the rounded corners*
1,1,$1+$1,$2,$3*
1,1,$1+$1,$4,$5*
1,1,$1+$1,$6,$7*
1,1,$1+$1,$8,$9*
0 Add four rect primitives between the rounded corners*
20,1,$1+$1,$2,$3,$4,$5,0*
20,1,$1+$1,$4,$5,$6,$7,0*
20,1,$1+$1,$6,$7,$8,$9,0*
20,1,$1+$1,$8,$9,$2,$3,0*%
G04 Aperture macros list end*
%ADD10RoundRect,0.075000X-0.662500X-0.075000X0.662500X-0.075000X0.662500X0.075000X-0.662500X0.075000X0*%
%ADD11RoundRect,0.075000X-0.075000X-0.662500X0.075000X-0.662500X0.075000X0.662500X-0.075000X0.662500X0*%
%ADD12RoundRect,0.200000X0.275000X-0.200000X0.275000X0.200000X-0.275000X0.200000X-0.275000X-0.200000X0*%
%ADD13RoundRect,0.225000X0.225000X0.250000X-0.225000X0.250000X-0.225000X-0.250000X0.225000X-0.250000X0*%
%ADD14RoundRect,0.200000X0.200000X0.275000X-0.200000X0.275000X-0.200000X-0.275000X0.200000X-0.275000X0*%
%ADD15RoundRect,0.200000X-0.275000X0.200000X-0.275000X-0.200000X0.275000X-0.200000X0.275000X0.200000X0*%
%ADD16RoundRect,0.225000X-0.225000X-0.250000X0.225000X-0.250000X0.225000X0.250000X-0.225000X0.250000X0*%
%ADD17R,0.630000X0.300000*%
%ADD18R,0.300000X0.630000*%
%ADD19R,1.750000X1.750000*%
%ADD20RoundRect,0.225000X0.250000X-0.225000X0.250000X0.225000X-0.250000X0.225000X-0.250000X-0.225000X0*%
%ADD21RoundRect,0.200000X-0.200000X-0.275000X0.200000X-0.275000X0.200000X0.275000X-0.200000X0.275000X0*%
%ADD22RoundRect,0.250000X0.362500X1.425000X-0.362500X1.425000X-0.362500X-1.425000X0.362500X-1.425000X0*%
%ADD23RoundRect,0.250000X-0.362500X-1.425000X0.362500X-1.425000X0.362500X1.425000X-0.362500X1.425000X0*%
%ADD24RoundRect,0.150000X0.150000X-0.512500X0.150000X0.512500X-0.150000X0.512500X-0.150000X-0.512500X0*%
%ADD25RoundRect,0.218750X0.256250X-0.218750X0.256250X0.218750X-0.256250X0.218750X-0.256250X-0.218750X0*%
G04 APERTURE END LIST*
D10*
%TO.C,U1*%
X145687500Y-86800000D03*
X145687500Y-87300000D03*
X145687500Y-87800000D03*
X145687500Y-88300000D03*
X145687500Y-88800000D03*
X145687500Y-89300000D03*
X145687500Y-89800000D03*
X145687500Y-90300000D03*
X145687500Y-90800000D03*
X145687500Y-91300000D03*
X145687500Y-91800000D03*
X145687500Y-92300000D03*
D11*
X147100000Y-93712500D03*
X147600000Y-93712500D03*
X148100000Y-93712500D03*
X148600000Y-93712500D03*
X149100000Y-93712500D03*
X149600000Y-93712500D03*
X150100000Y-93712500D03*
X150600000Y-93712500D03*
X151100000Y-93712500D03*
X151600000Y-93712500D03*
X152100000Y-93712500D03*
X152600000Y-93712500D03*
D10*
X154012500Y-92300000D03*
X154012500Y-91800000D03*
X154012500Y-91300000D03*
X154012500Y-90800000D03*
X154012500Y-90300000D03*
X154012500Y-89800000D03*
X154012500Y-89300000D03*
X154012500Y-88800000D03*
X154012500Y-88300000D03*
X154012500Y-87800000D03*
X154012500Y-87300000D03*
X154012500Y-86800000D03*
D11*
X152600000Y-85387500D03*
X152100000Y-85387500D03*
X151600000Y-85387500D03*
X151100000Y-85387500D03*
X150600000Y-85387500D03*
X150100000Y-85387500D03*
X149600000Y-85387500D03*
X149100000Y-85387500D03*
X148600000Y-85387500D03*
X148100000Y-85387500D03*
X147600000Y-85387500D03*
X147100000Y-85387500D03*
%TD*%
D12*
%TO.C,R1*%
X150100000Y-81125000D03*
X150100000Y-79475000D03*
%TD*%
D13*
%TO.C,C16*%
X154575000Y-102100000D03*
X153025000Y-102100000D03*
%TD*%
D12*
%TO.C,R26*%
X151300000Y-73425000D03*
X151300000Y-71775000D03*
%TD*%
%TO.C,R11*%
X163100000Y-97225000D03*
X163100000Y-95575000D03*
%TD*%
D14*
%TO.C,R19*%
X175525000Y-81612500D03*
X173875000Y-81612500D03*
%TD*%
D15*
%TO.C,R4*%
X144200000Y-98075000D03*
X144200000Y-99725000D03*
%TD*%
D16*
%TO.C,C4*%
X153925000Y-96000000D03*
X155475000Y-96000000D03*
%TD*%
D17*
%TO.C,U2*%
X145615000Y-107150000D03*
X145615000Y-107650000D03*
X145615000Y-108150000D03*
X145615000Y-108650000D03*
D18*
X146250000Y-109285000D03*
X146750000Y-109285000D03*
X147250000Y-109285000D03*
X147750000Y-109285000D03*
D17*
X148385000Y-108650000D03*
X148385000Y-108150000D03*
X148385000Y-107650000D03*
X148385000Y-107150000D03*
D18*
X147750000Y-106515000D03*
X147250000Y-106515000D03*
X146750000Y-106515000D03*
X146250000Y-106515000D03*
D19*
X147000000Y-107900000D03*
%TD*%
D15*
%TO.C,R9*%
X147700000Y-80775000D03*
X147700000Y-82425000D03*
%TD*%
D13*
%TO.C,C5*%
X142675000Y-90100000D03*
X141125000Y-90100000D03*
%TD*%
D20*
%TO.C,C21*%
X178100000Y-88275000D03*
X178100000Y-86725000D03*
%TD*%
D21*
%TO.C,R24*%
X180275000Y-90900000D03*
X181925000Y-90900000D03*
%TD*%
D13*
%TO.C,C3*%
X142775000Y-86000000D03*
X141225000Y-86000000D03*
%TD*%
D21*
%TO.C,R22*%
X179275000Y-92700000D03*
X180925000Y-92700000D03*
%TD*%
D15*
%TO.C,R18*%
X152900000Y-103775000D03*
X152900000Y-105425000D03*
%TD*%
D20*
%TO.C,C7*%
X188300000Y-92775000D03*
X188300000Y-91225000D03*
%TD*%
D14*
%TO.C,R8*%
X157025000Y-80900000D03*
X155375000Y-80900000D03*
%TD*%
D22*
%TO.C,Rsense1*%
X133062500Y-97700000D03*
X127137500Y-97700000D03*
%TD*%
D15*
%TO.C,R2*%
X140900000Y-94575000D03*
X140900000Y-96225000D03*
%TD*%
D12*
%TO.C,R10*%
X160800000Y-98825000D03*
X160800000Y-97175000D03*
%TD*%
D16*
%TO.C,C22*%
X173925000Y-83812500D03*
X175475000Y-83812500D03*
%TD*%
D20*
%TO.C,C15*%
X150000000Y-103675000D03*
X150000000Y-102125000D03*
%TD*%
D15*
%TO.C,R3*%
X142300000Y-98075000D03*
X142300000Y-99725000D03*
%TD*%
D20*
%TO.C,C2*%
X145000000Y-83575000D03*
X145000000Y-82025000D03*
%TD*%
D16*
%TO.C,C20*%
X153825000Y-71800000D03*
X155375000Y-71800000D03*
%TD*%
D13*
%TO.C,C1*%
X142675000Y-88300000D03*
X141125000Y-88300000D03*
%TD*%
D15*
%TO.C,R5*%
X145900000Y-98075000D03*
X145900000Y-99725000D03*
%TD*%
D20*
%TO.C,C9*%
X110700000Y-90475000D03*
X110700000Y-88925000D03*
%TD*%
%TO.C,C8*%
X164900000Y-95575000D03*
X164900000Y-94025000D03*
%TD*%
D23*
%TO.C,Rsense2*%
X167037500Y-101600000D03*
X172962500Y-101600000D03*
%TD*%
D14*
%TO.C,R25*%
X120045000Y-88100000D03*
X118395000Y-88100000D03*
%TD*%
D24*
%TO.C,U3*%
X173950000Y-88250000D03*
X174900000Y-88250000D03*
X175850000Y-88250000D03*
X175850000Y-85975000D03*
X173950000Y-85975000D03*
%TD*%
D20*
%TO.C,C6*%
X142900000Y-83575000D03*
X142900000Y-82025000D03*
%TD*%
D25*
%TO.C,D1*%
X178800000Y-83200000D03*
X178800000Y-81625000D03*
%TD*%
D14*
%TO.C,R23*%
X119945000Y-90600000D03*
X118295000Y-90600000D03*
%TD*%
D15*
%TO.C,R16*%
X148300000Y-102075000D03*
X148300000Y-103725000D03*
%TD*%
%TO.C,R17*%
X154700000Y-103775000D03*
X154700000Y-105425000D03*
%TD*%
D21*
%TO.C,R21*%
X155375000Y-79100000D03*
X157025000Y-79100000D03*
%TD*%
D12*
%TO.C,R6*%
X147700000Y-99725000D03*
X147700000Y-98075000D03*
%TD*%
M02*
