%TF.GenerationSoftware,KiCad,Pcbnew,7.0.10*%
%TF.CreationDate,2024-01-31T17:30:21+01:00*%
%TF.ProjectId,minimouse,6d696e69-6d6f-4757-9365-2e6b69636164,rev?*%
%TF.SameCoordinates,Original*%
%TF.FileFunction,Legend,Top*%
%TF.FilePolarity,Positive*%
%FSLAX46Y46*%
G04 Gerber Fmt 4.6, Leading zero omitted, Abs format (unit mm)*
G04 Created by KiCad (PCBNEW 7.0.10) date 2024-01-31 17:30:21*
%MOMM*%
%LPD*%
G01*
G04 APERTURE LIST*
%ADD10C,0.150000*%
%ADD11C,0.100000*%
%ADD12C,0.120000*%
G04 APERTURE END LIST*
D10*
X155638095Y-88654819D02*
X155638095Y-89464342D01*
X155638095Y-89464342D02*
X155685714Y-89559580D01*
X155685714Y-89559580D02*
X155733333Y-89607200D01*
X155733333Y-89607200D02*
X155828571Y-89654819D01*
X155828571Y-89654819D02*
X156019047Y-89654819D01*
X156019047Y-89654819D02*
X156114285Y-89607200D01*
X156114285Y-89607200D02*
X156161904Y-89559580D01*
X156161904Y-89559580D02*
X156209523Y-89464342D01*
X156209523Y-89464342D02*
X156209523Y-88654819D01*
X157209523Y-89654819D02*
X156638095Y-89654819D01*
X156923809Y-89654819D02*
X156923809Y-88654819D01*
X156923809Y-88654819D02*
X156828571Y-88797676D01*
X156828571Y-88797676D02*
X156733333Y-88892914D01*
X156733333Y-88892914D02*
X156638095Y-88940533D01*
X150554819Y-77666666D02*
X150078628Y-77999999D01*
X150554819Y-78238094D02*
X149554819Y-78238094D01*
X149554819Y-78238094D02*
X149554819Y-77857142D01*
X149554819Y-77857142D02*
X149602438Y-77761904D01*
X149602438Y-77761904D02*
X149650057Y-77714285D01*
X149650057Y-77714285D02*
X149745295Y-77666666D01*
X149745295Y-77666666D02*
X149888152Y-77666666D01*
X149888152Y-77666666D02*
X149983390Y-77714285D01*
X149983390Y-77714285D02*
X150031009Y-77761904D01*
X150031009Y-77761904D02*
X150078628Y-77857142D01*
X150078628Y-77857142D02*
X150078628Y-78238094D01*
X150554819Y-76714285D02*
X150554819Y-77285713D01*
X150554819Y-76999999D02*
X149554819Y-76999999D01*
X149554819Y-76999999D02*
X149697676Y-77095237D01*
X149697676Y-77095237D02*
X149792914Y-77190475D01*
X149792914Y-77190475D02*
X149840533Y-77285713D01*
X153057142Y-100959580D02*
X153009523Y-101007200D01*
X153009523Y-101007200D02*
X152866666Y-101054819D01*
X152866666Y-101054819D02*
X152771428Y-101054819D01*
X152771428Y-101054819D02*
X152628571Y-101007200D01*
X152628571Y-101007200D02*
X152533333Y-100911961D01*
X152533333Y-100911961D02*
X152485714Y-100816723D01*
X152485714Y-100816723D02*
X152438095Y-100626247D01*
X152438095Y-100626247D02*
X152438095Y-100483390D01*
X152438095Y-100483390D02*
X152485714Y-100292914D01*
X152485714Y-100292914D02*
X152533333Y-100197676D01*
X152533333Y-100197676D02*
X152628571Y-100102438D01*
X152628571Y-100102438D02*
X152771428Y-100054819D01*
X152771428Y-100054819D02*
X152866666Y-100054819D01*
X152866666Y-100054819D02*
X153009523Y-100102438D01*
X153009523Y-100102438D02*
X153057142Y-100150057D01*
X154009523Y-101054819D02*
X153438095Y-101054819D01*
X153723809Y-101054819D02*
X153723809Y-100054819D01*
X153723809Y-100054819D02*
X153628571Y-100197676D01*
X153628571Y-100197676D02*
X153533333Y-100292914D01*
X153533333Y-100292914D02*
X153438095Y-100340533D01*
X154866666Y-100054819D02*
X154676190Y-100054819D01*
X154676190Y-100054819D02*
X154580952Y-100102438D01*
X154580952Y-100102438D02*
X154533333Y-100150057D01*
X154533333Y-100150057D02*
X154438095Y-100292914D01*
X154438095Y-100292914D02*
X154390476Y-100483390D01*
X154390476Y-100483390D02*
X154390476Y-100864342D01*
X154390476Y-100864342D02*
X154438095Y-100959580D01*
X154438095Y-100959580D02*
X154485714Y-101007200D01*
X154485714Y-101007200D02*
X154580952Y-101054819D01*
X154580952Y-101054819D02*
X154771428Y-101054819D01*
X154771428Y-101054819D02*
X154866666Y-101007200D01*
X154866666Y-101007200D02*
X154914285Y-100959580D01*
X154914285Y-100959580D02*
X154961904Y-100864342D01*
X154961904Y-100864342D02*
X154961904Y-100626247D01*
X154961904Y-100626247D02*
X154914285Y-100531009D01*
X154914285Y-100531009D02*
X154866666Y-100483390D01*
X154866666Y-100483390D02*
X154771428Y-100435771D01*
X154771428Y-100435771D02*
X154580952Y-100435771D01*
X154580952Y-100435771D02*
X154485714Y-100483390D01*
X154485714Y-100483390D02*
X154438095Y-100531009D01*
X154438095Y-100531009D02*
X154390476Y-100626247D01*
D11*
X130190476Y-122957419D02*
X130190476Y-121957419D01*
X130190476Y-121957419D02*
X130523809Y-122671704D01*
X130523809Y-122671704D02*
X130857142Y-121957419D01*
X130857142Y-121957419D02*
X130857142Y-122957419D01*
X131285714Y-122052657D02*
X131333333Y-122005038D01*
X131333333Y-122005038D02*
X131428571Y-121957419D01*
X131428571Y-121957419D02*
X131666666Y-121957419D01*
X131666666Y-121957419D02*
X131761904Y-122005038D01*
X131761904Y-122005038D02*
X131809523Y-122052657D01*
X131809523Y-122052657D02*
X131857142Y-122147895D01*
X131857142Y-122147895D02*
X131857142Y-122243133D01*
X131857142Y-122243133D02*
X131809523Y-122385990D01*
X131809523Y-122385990D02*
X131238095Y-122957419D01*
X131238095Y-122957419D02*
X131857142Y-122957419D01*
D10*
X150657142Y-75454819D02*
X150323809Y-74978628D01*
X150085714Y-75454819D02*
X150085714Y-74454819D01*
X150085714Y-74454819D02*
X150466666Y-74454819D01*
X150466666Y-74454819D02*
X150561904Y-74502438D01*
X150561904Y-74502438D02*
X150609523Y-74550057D01*
X150609523Y-74550057D02*
X150657142Y-74645295D01*
X150657142Y-74645295D02*
X150657142Y-74788152D01*
X150657142Y-74788152D02*
X150609523Y-74883390D01*
X150609523Y-74883390D02*
X150561904Y-74931009D01*
X150561904Y-74931009D02*
X150466666Y-74978628D01*
X150466666Y-74978628D02*
X150085714Y-74978628D01*
X151038095Y-74550057D02*
X151085714Y-74502438D01*
X151085714Y-74502438D02*
X151180952Y-74454819D01*
X151180952Y-74454819D02*
X151419047Y-74454819D01*
X151419047Y-74454819D02*
X151514285Y-74502438D01*
X151514285Y-74502438D02*
X151561904Y-74550057D01*
X151561904Y-74550057D02*
X151609523Y-74645295D01*
X151609523Y-74645295D02*
X151609523Y-74740533D01*
X151609523Y-74740533D02*
X151561904Y-74883390D01*
X151561904Y-74883390D02*
X150990476Y-75454819D01*
X150990476Y-75454819D02*
X151609523Y-75454819D01*
X152466666Y-74454819D02*
X152276190Y-74454819D01*
X152276190Y-74454819D02*
X152180952Y-74502438D01*
X152180952Y-74502438D02*
X152133333Y-74550057D01*
X152133333Y-74550057D02*
X152038095Y-74692914D01*
X152038095Y-74692914D02*
X151990476Y-74883390D01*
X151990476Y-74883390D02*
X151990476Y-75264342D01*
X151990476Y-75264342D02*
X152038095Y-75359580D01*
X152038095Y-75359580D02*
X152085714Y-75407200D01*
X152085714Y-75407200D02*
X152180952Y-75454819D01*
X152180952Y-75454819D02*
X152371428Y-75454819D01*
X152371428Y-75454819D02*
X152466666Y-75407200D01*
X152466666Y-75407200D02*
X152514285Y-75359580D01*
X152514285Y-75359580D02*
X152561904Y-75264342D01*
X152561904Y-75264342D02*
X152561904Y-75026247D01*
X152561904Y-75026247D02*
X152514285Y-74931009D01*
X152514285Y-74931009D02*
X152466666Y-74883390D01*
X152466666Y-74883390D02*
X152371428Y-74835771D01*
X152371428Y-74835771D02*
X152180952Y-74835771D01*
X152180952Y-74835771D02*
X152085714Y-74883390D01*
X152085714Y-74883390D02*
X152038095Y-74931009D01*
X152038095Y-74931009D02*
X151990476Y-75026247D01*
X150966666Y-80031009D02*
X151109523Y-80078628D01*
X151109523Y-80078628D02*
X151157142Y-80126247D01*
X151157142Y-80126247D02*
X151204761Y-80221485D01*
X151204761Y-80221485D02*
X151204761Y-80364342D01*
X151204761Y-80364342D02*
X151157142Y-80459580D01*
X151157142Y-80459580D02*
X151109523Y-80507200D01*
X151109523Y-80507200D02*
X151014285Y-80554819D01*
X151014285Y-80554819D02*
X150633333Y-80554819D01*
X150633333Y-80554819D02*
X150633333Y-79554819D01*
X150633333Y-79554819D02*
X150966666Y-79554819D01*
X150966666Y-79554819D02*
X151061904Y-79602438D01*
X151061904Y-79602438D02*
X151109523Y-79650057D01*
X151109523Y-79650057D02*
X151157142Y-79745295D01*
X151157142Y-79745295D02*
X151157142Y-79840533D01*
X151157142Y-79840533D02*
X151109523Y-79935771D01*
X151109523Y-79935771D02*
X151061904Y-79983390D01*
X151061904Y-79983390D02*
X150966666Y-80031009D01*
X150966666Y-80031009D02*
X150633333Y-80031009D01*
X151823809Y-79554819D02*
X152014285Y-79554819D01*
X152014285Y-79554819D02*
X152109523Y-79602438D01*
X152109523Y-79602438D02*
X152204761Y-79697676D01*
X152204761Y-79697676D02*
X152252380Y-79888152D01*
X152252380Y-79888152D02*
X152252380Y-80221485D01*
X152252380Y-80221485D02*
X152204761Y-80411961D01*
X152204761Y-80411961D02*
X152109523Y-80507200D01*
X152109523Y-80507200D02*
X152014285Y-80554819D01*
X152014285Y-80554819D02*
X151823809Y-80554819D01*
X151823809Y-80554819D02*
X151728571Y-80507200D01*
X151728571Y-80507200D02*
X151633333Y-80411961D01*
X151633333Y-80411961D02*
X151585714Y-80221485D01*
X151585714Y-80221485D02*
X151585714Y-79888152D01*
X151585714Y-79888152D02*
X151633333Y-79697676D01*
X151633333Y-79697676D02*
X151728571Y-79602438D01*
X151728571Y-79602438D02*
X151823809Y-79554819D01*
X152871428Y-79554819D02*
X153061904Y-79554819D01*
X153061904Y-79554819D02*
X153157142Y-79602438D01*
X153157142Y-79602438D02*
X153252380Y-79697676D01*
X153252380Y-79697676D02*
X153299999Y-79888152D01*
X153299999Y-79888152D02*
X153299999Y-80221485D01*
X153299999Y-80221485D02*
X153252380Y-80411961D01*
X153252380Y-80411961D02*
X153157142Y-80507200D01*
X153157142Y-80507200D02*
X153061904Y-80554819D01*
X153061904Y-80554819D02*
X152871428Y-80554819D01*
X152871428Y-80554819D02*
X152776190Y-80507200D01*
X152776190Y-80507200D02*
X152680952Y-80411961D01*
X152680952Y-80411961D02*
X152633333Y-80221485D01*
X152633333Y-80221485D02*
X152633333Y-79888152D01*
X152633333Y-79888152D02*
X152680952Y-79697676D01*
X152680952Y-79697676D02*
X152776190Y-79602438D01*
X152776190Y-79602438D02*
X152871428Y-79554819D01*
X153585714Y-79554819D02*
X154157142Y-79554819D01*
X153871428Y-80554819D02*
X153871428Y-79554819D01*
X154680952Y-79554819D02*
X154776190Y-79554819D01*
X154776190Y-79554819D02*
X154871428Y-79602438D01*
X154871428Y-79602438D02*
X154919047Y-79650057D01*
X154919047Y-79650057D02*
X154966666Y-79745295D01*
X154966666Y-79745295D02*
X155014285Y-79935771D01*
X155014285Y-79935771D02*
X155014285Y-80173866D01*
X155014285Y-80173866D02*
X154966666Y-80364342D01*
X154966666Y-80364342D02*
X154919047Y-80459580D01*
X154919047Y-80459580D02*
X154871428Y-80507200D01*
X154871428Y-80507200D02*
X154776190Y-80554819D01*
X154776190Y-80554819D02*
X154680952Y-80554819D01*
X154680952Y-80554819D02*
X154585714Y-80507200D01*
X154585714Y-80507200D02*
X154538095Y-80459580D01*
X154538095Y-80459580D02*
X154490476Y-80364342D01*
X154490476Y-80364342D02*
X154442857Y-80173866D01*
X154442857Y-80173866D02*
X154442857Y-79935771D01*
X154442857Y-79935771D02*
X154490476Y-79745295D01*
X154490476Y-79745295D02*
X154538095Y-79650057D01*
X154538095Y-79650057D02*
X154585714Y-79602438D01*
X154585714Y-79602438D02*
X154680952Y-79554819D01*
X161957142Y-94354819D02*
X161623809Y-93878628D01*
X161385714Y-94354819D02*
X161385714Y-93354819D01*
X161385714Y-93354819D02*
X161766666Y-93354819D01*
X161766666Y-93354819D02*
X161861904Y-93402438D01*
X161861904Y-93402438D02*
X161909523Y-93450057D01*
X161909523Y-93450057D02*
X161957142Y-93545295D01*
X161957142Y-93545295D02*
X161957142Y-93688152D01*
X161957142Y-93688152D02*
X161909523Y-93783390D01*
X161909523Y-93783390D02*
X161861904Y-93831009D01*
X161861904Y-93831009D02*
X161766666Y-93878628D01*
X161766666Y-93878628D02*
X161385714Y-93878628D01*
X162909523Y-94354819D02*
X162338095Y-94354819D01*
X162623809Y-94354819D02*
X162623809Y-93354819D01*
X162623809Y-93354819D02*
X162528571Y-93497676D01*
X162528571Y-93497676D02*
X162433333Y-93592914D01*
X162433333Y-93592914D02*
X162338095Y-93640533D01*
X163861904Y-94354819D02*
X163290476Y-94354819D01*
X163576190Y-94354819D02*
X163576190Y-93354819D01*
X163576190Y-93354819D02*
X163480952Y-93497676D01*
X163480952Y-93497676D02*
X163385714Y-93592914D01*
X163385714Y-93592914D02*
X163290476Y-93640533D01*
X174057142Y-80654819D02*
X173723809Y-80178628D01*
X173485714Y-80654819D02*
X173485714Y-79654819D01*
X173485714Y-79654819D02*
X173866666Y-79654819D01*
X173866666Y-79654819D02*
X173961904Y-79702438D01*
X173961904Y-79702438D02*
X174009523Y-79750057D01*
X174009523Y-79750057D02*
X174057142Y-79845295D01*
X174057142Y-79845295D02*
X174057142Y-79988152D01*
X174057142Y-79988152D02*
X174009523Y-80083390D01*
X174009523Y-80083390D02*
X173961904Y-80131009D01*
X173961904Y-80131009D02*
X173866666Y-80178628D01*
X173866666Y-80178628D02*
X173485714Y-80178628D01*
X175009523Y-80654819D02*
X174438095Y-80654819D01*
X174723809Y-80654819D02*
X174723809Y-79654819D01*
X174723809Y-79654819D02*
X174628571Y-79797676D01*
X174628571Y-79797676D02*
X174533333Y-79892914D01*
X174533333Y-79892914D02*
X174438095Y-79940533D01*
X175485714Y-80654819D02*
X175676190Y-80654819D01*
X175676190Y-80654819D02*
X175771428Y-80607200D01*
X175771428Y-80607200D02*
X175819047Y-80559580D01*
X175819047Y-80559580D02*
X175914285Y-80416723D01*
X175914285Y-80416723D02*
X175961904Y-80226247D01*
X175961904Y-80226247D02*
X175961904Y-79845295D01*
X175961904Y-79845295D02*
X175914285Y-79750057D01*
X175914285Y-79750057D02*
X175866666Y-79702438D01*
X175866666Y-79702438D02*
X175771428Y-79654819D01*
X175771428Y-79654819D02*
X175580952Y-79654819D01*
X175580952Y-79654819D02*
X175485714Y-79702438D01*
X175485714Y-79702438D02*
X175438095Y-79750057D01*
X175438095Y-79750057D02*
X175390476Y-79845295D01*
X175390476Y-79845295D02*
X175390476Y-80083390D01*
X175390476Y-80083390D02*
X175438095Y-80178628D01*
X175438095Y-80178628D02*
X175485714Y-80226247D01*
X175485714Y-80226247D02*
X175580952Y-80273866D01*
X175580952Y-80273866D02*
X175771428Y-80273866D01*
X175771428Y-80273866D02*
X175866666Y-80226247D01*
X175866666Y-80226247D02*
X175914285Y-80178628D01*
X175914285Y-80178628D02*
X175961904Y-80083390D01*
X144654819Y-101766666D02*
X144178628Y-102099999D01*
X144654819Y-102338094D02*
X143654819Y-102338094D01*
X143654819Y-102338094D02*
X143654819Y-101957142D01*
X143654819Y-101957142D02*
X143702438Y-101861904D01*
X143702438Y-101861904D02*
X143750057Y-101814285D01*
X143750057Y-101814285D02*
X143845295Y-101766666D01*
X143845295Y-101766666D02*
X143988152Y-101766666D01*
X143988152Y-101766666D02*
X144083390Y-101814285D01*
X144083390Y-101814285D02*
X144131009Y-101861904D01*
X144131009Y-101861904D02*
X144178628Y-101957142D01*
X144178628Y-101957142D02*
X144178628Y-102338094D01*
X143988152Y-100909523D02*
X144654819Y-100909523D01*
X143607200Y-101147618D02*
X144321485Y-101385713D01*
X144321485Y-101385713D02*
X144321485Y-100766666D01*
X154533333Y-94929580D02*
X154485714Y-94977200D01*
X154485714Y-94977200D02*
X154342857Y-95024819D01*
X154342857Y-95024819D02*
X154247619Y-95024819D01*
X154247619Y-95024819D02*
X154104762Y-94977200D01*
X154104762Y-94977200D02*
X154009524Y-94881961D01*
X154009524Y-94881961D02*
X153961905Y-94786723D01*
X153961905Y-94786723D02*
X153914286Y-94596247D01*
X153914286Y-94596247D02*
X153914286Y-94453390D01*
X153914286Y-94453390D02*
X153961905Y-94262914D01*
X153961905Y-94262914D02*
X154009524Y-94167676D01*
X154009524Y-94167676D02*
X154104762Y-94072438D01*
X154104762Y-94072438D02*
X154247619Y-94024819D01*
X154247619Y-94024819D02*
X154342857Y-94024819D01*
X154342857Y-94024819D02*
X154485714Y-94072438D01*
X154485714Y-94072438D02*
X154533333Y-94120057D01*
X155390476Y-94358152D02*
X155390476Y-95024819D01*
X155152381Y-93977200D02*
X154914286Y-94691485D01*
X154914286Y-94691485D02*
X155533333Y-94691485D01*
D11*
X146238095Y-110557419D02*
X146238095Y-111366942D01*
X146238095Y-111366942D02*
X146285714Y-111462180D01*
X146285714Y-111462180D02*
X146333333Y-111509800D01*
X146333333Y-111509800D02*
X146428571Y-111557419D01*
X146428571Y-111557419D02*
X146619047Y-111557419D01*
X146619047Y-111557419D02*
X146714285Y-111509800D01*
X146714285Y-111509800D02*
X146761904Y-111462180D01*
X146761904Y-111462180D02*
X146809523Y-111366942D01*
X146809523Y-111366942D02*
X146809523Y-110557419D01*
X147238095Y-110652657D02*
X147285714Y-110605038D01*
X147285714Y-110605038D02*
X147380952Y-110557419D01*
X147380952Y-110557419D02*
X147619047Y-110557419D01*
X147619047Y-110557419D02*
X147714285Y-110605038D01*
X147714285Y-110605038D02*
X147761904Y-110652657D01*
X147761904Y-110652657D02*
X147809523Y-110747895D01*
X147809523Y-110747895D02*
X147809523Y-110843133D01*
X147809523Y-110843133D02*
X147761904Y-110985990D01*
X147761904Y-110985990D02*
X147190476Y-111557419D01*
X147190476Y-111557419D02*
X147809523Y-111557419D01*
D10*
X148154819Y-79066666D02*
X147678628Y-79399999D01*
X148154819Y-79638094D02*
X147154819Y-79638094D01*
X147154819Y-79638094D02*
X147154819Y-79257142D01*
X147154819Y-79257142D02*
X147202438Y-79161904D01*
X147202438Y-79161904D02*
X147250057Y-79114285D01*
X147250057Y-79114285D02*
X147345295Y-79066666D01*
X147345295Y-79066666D02*
X147488152Y-79066666D01*
X147488152Y-79066666D02*
X147583390Y-79114285D01*
X147583390Y-79114285D02*
X147631009Y-79161904D01*
X147631009Y-79161904D02*
X147678628Y-79257142D01*
X147678628Y-79257142D02*
X147678628Y-79638094D01*
X148154819Y-78590475D02*
X148154819Y-78399999D01*
X148154819Y-78399999D02*
X148107200Y-78304761D01*
X148107200Y-78304761D02*
X148059580Y-78257142D01*
X148059580Y-78257142D02*
X147916723Y-78161904D01*
X147916723Y-78161904D02*
X147726247Y-78114285D01*
X147726247Y-78114285D02*
X147345295Y-78114285D01*
X147345295Y-78114285D02*
X147250057Y-78161904D01*
X147250057Y-78161904D02*
X147202438Y-78209523D01*
X147202438Y-78209523D02*
X147154819Y-78304761D01*
X147154819Y-78304761D02*
X147154819Y-78495237D01*
X147154819Y-78495237D02*
X147202438Y-78590475D01*
X147202438Y-78590475D02*
X147250057Y-78638094D01*
X147250057Y-78638094D02*
X147345295Y-78685713D01*
X147345295Y-78685713D02*
X147583390Y-78685713D01*
X147583390Y-78685713D02*
X147678628Y-78638094D01*
X147678628Y-78638094D02*
X147726247Y-78590475D01*
X147726247Y-78590475D02*
X147773866Y-78495237D01*
X147773866Y-78495237D02*
X147773866Y-78304761D01*
X147773866Y-78304761D02*
X147726247Y-78209523D01*
X147726247Y-78209523D02*
X147678628Y-78161904D01*
X147678628Y-78161904D02*
X147583390Y-78114285D01*
D11*
X149298095Y-71152419D02*
X149298095Y-71961942D01*
X149298095Y-71961942D02*
X149345714Y-72057180D01*
X149345714Y-72057180D02*
X149393333Y-72104800D01*
X149393333Y-72104800D02*
X149488571Y-72152419D01*
X149488571Y-72152419D02*
X149679047Y-72152419D01*
X149679047Y-72152419D02*
X149774285Y-72104800D01*
X149774285Y-72104800D02*
X149821904Y-72057180D01*
X149821904Y-72057180D02*
X149869523Y-71961942D01*
X149869523Y-71961942D02*
X149869523Y-71152419D01*
X150774285Y-71485752D02*
X150774285Y-72152419D01*
X150536190Y-71104800D02*
X150298095Y-71819085D01*
X150298095Y-71819085D02*
X150917142Y-71819085D01*
D10*
X138933333Y-90359580D02*
X138885714Y-90407200D01*
X138885714Y-90407200D02*
X138742857Y-90454819D01*
X138742857Y-90454819D02*
X138647619Y-90454819D01*
X138647619Y-90454819D02*
X138504762Y-90407200D01*
X138504762Y-90407200D02*
X138409524Y-90311961D01*
X138409524Y-90311961D02*
X138361905Y-90216723D01*
X138361905Y-90216723D02*
X138314286Y-90026247D01*
X138314286Y-90026247D02*
X138314286Y-89883390D01*
X138314286Y-89883390D02*
X138361905Y-89692914D01*
X138361905Y-89692914D02*
X138409524Y-89597676D01*
X138409524Y-89597676D02*
X138504762Y-89502438D01*
X138504762Y-89502438D02*
X138647619Y-89454819D01*
X138647619Y-89454819D02*
X138742857Y-89454819D01*
X138742857Y-89454819D02*
X138885714Y-89502438D01*
X138885714Y-89502438D02*
X138933333Y-89550057D01*
X139838095Y-89454819D02*
X139361905Y-89454819D01*
X139361905Y-89454819D02*
X139314286Y-89931009D01*
X139314286Y-89931009D02*
X139361905Y-89883390D01*
X139361905Y-89883390D02*
X139457143Y-89835771D01*
X139457143Y-89835771D02*
X139695238Y-89835771D01*
X139695238Y-89835771D02*
X139790476Y-89883390D01*
X139790476Y-89883390D02*
X139838095Y-89931009D01*
X139838095Y-89931009D02*
X139885714Y-90026247D01*
X139885714Y-90026247D02*
X139885714Y-90264342D01*
X139885714Y-90264342D02*
X139838095Y-90359580D01*
X139838095Y-90359580D02*
X139790476Y-90407200D01*
X139790476Y-90407200D02*
X139695238Y-90454819D01*
X139695238Y-90454819D02*
X139457143Y-90454819D01*
X139457143Y-90454819D02*
X139361905Y-90407200D01*
X139361905Y-90407200D02*
X139314286Y-90359580D01*
X190466666Y-92554819D02*
X190466666Y-93269104D01*
X190466666Y-93269104D02*
X190419047Y-93411961D01*
X190419047Y-93411961D02*
X190323809Y-93507200D01*
X190323809Y-93507200D02*
X190180952Y-93554819D01*
X190180952Y-93554819D02*
X190085714Y-93554819D01*
X190895238Y-92650057D02*
X190942857Y-92602438D01*
X190942857Y-92602438D02*
X191038095Y-92554819D01*
X191038095Y-92554819D02*
X191276190Y-92554819D01*
X191276190Y-92554819D02*
X191371428Y-92602438D01*
X191371428Y-92602438D02*
X191419047Y-92650057D01*
X191419047Y-92650057D02*
X191466666Y-92745295D01*
X191466666Y-92745295D02*
X191466666Y-92840533D01*
X191466666Y-92840533D02*
X191419047Y-92983390D01*
X191419047Y-92983390D02*
X190847619Y-93554819D01*
X190847619Y-93554819D02*
X191466666Y-93554819D01*
D11*
X194259523Y-118942580D02*
X194259523Y-119942580D01*
X194259523Y-119942580D02*
X193926190Y-119228295D01*
X193926190Y-119228295D02*
X193592857Y-119942580D01*
X193592857Y-119942580D02*
X193592857Y-118942580D01*
X192592857Y-118942580D02*
X193164285Y-118942580D01*
X192878571Y-118942580D02*
X192878571Y-119942580D01*
X192878571Y-119942580D02*
X192973809Y-119799723D01*
X192973809Y-119799723D02*
X193069047Y-119704485D01*
X193069047Y-119704485D02*
X193164285Y-119656866D01*
D10*
X180159580Y-88142857D02*
X180207200Y-88190476D01*
X180207200Y-88190476D02*
X180254819Y-88333333D01*
X180254819Y-88333333D02*
X180254819Y-88428571D01*
X180254819Y-88428571D02*
X180207200Y-88571428D01*
X180207200Y-88571428D02*
X180111961Y-88666666D01*
X180111961Y-88666666D02*
X180016723Y-88714285D01*
X180016723Y-88714285D02*
X179826247Y-88761904D01*
X179826247Y-88761904D02*
X179683390Y-88761904D01*
X179683390Y-88761904D02*
X179492914Y-88714285D01*
X179492914Y-88714285D02*
X179397676Y-88666666D01*
X179397676Y-88666666D02*
X179302438Y-88571428D01*
X179302438Y-88571428D02*
X179254819Y-88428571D01*
X179254819Y-88428571D02*
X179254819Y-88333333D01*
X179254819Y-88333333D02*
X179302438Y-88190476D01*
X179302438Y-88190476D02*
X179350057Y-88142857D01*
X179350057Y-87761904D02*
X179302438Y-87714285D01*
X179302438Y-87714285D02*
X179254819Y-87619047D01*
X179254819Y-87619047D02*
X179254819Y-87380952D01*
X179254819Y-87380952D02*
X179302438Y-87285714D01*
X179302438Y-87285714D02*
X179350057Y-87238095D01*
X179350057Y-87238095D02*
X179445295Y-87190476D01*
X179445295Y-87190476D02*
X179540533Y-87190476D01*
X179540533Y-87190476D02*
X179683390Y-87238095D01*
X179683390Y-87238095D02*
X180254819Y-87809523D01*
X180254819Y-87809523D02*
X180254819Y-87190476D01*
X180254819Y-86238095D02*
X180254819Y-86809523D01*
X180254819Y-86523809D02*
X179254819Y-86523809D01*
X179254819Y-86523809D02*
X179397676Y-86619047D01*
X179397676Y-86619047D02*
X179492914Y-86714285D01*
X179492914Y-86714285D02*
X179540533Y-86809523D01*
X153054819Y-135108333D02*
X153769104Y-135108333D01*
X153769104Y-135108333D02*
X153911961Y-135155952D01*
X153911961Y-135155952D02*
X154007200Y-135251190D01*
X154007200Y-135251190D02*
X154054819Y-135394047D01*
X154054819Y-135394047D02*
X154054819Y-135489285D01*
X153054819Y-134155952D02*
X153054819Y-134632142D01*
X153054819Y-134632142D02*
X153531009Y-134679761D01*
X153531009Y-134679761D02*
X153483390Y-134632142D01*
X153483390Y-134632142D02*
X153435771Y-134536904D01*
X153435771Y-134536904D02*
X153435771Y-134298809D01*
X153435771Y-134298809D02*
X153483390Y-134203571D01*
X153483390Y-134203571D02*
X153531009Y-134155952D01*
X153531009Y-134155952D02*
X153626247Y-134108333D01*
X153626247Y-134108333D02*
X153864342Y-134108333D01*
X153864342Y-134108333D02*
X153959580Y-134155952D01*
X153959580Y-134155952D02*
X154007200Y-134203571D01*
X154007200Y-134203571D02*
X154054819Y-134298809D01*
X154054819Y-134298809D02*
X154054819Y-134536904D01*
X154054819Y-134536904D02*
X154007200Y-134632142D01*
X154007200Y-134632142D02*
X153959580Y-134679761D01*
X177157142Y-91354819D02*
X176823809Y-90878628D01*
X176585714Y-91354819D02*
X176585714Y-90354819D01*
X176585714Y-90354819D02*
X176966666Y-90354819D01*
X176966666Y-90354819D02*
X177061904Y-90402438D01*
X177061904Y-90402438D02*
X177109523Y-90450057D01*
X177109523Y-90450057D02*
X177157142Y-90545295D01*
X177157142Y-90545295D02*
X177157142Y-90688152D01*
X177157142Y-90688152D02*
X177109523Y-90783390D01*
X177109523Y-90783390D02*
X177061904Y-90831009D01*
X177061904Y-90831009D02*
X176966666Y-90878628D01*
X176966666Y-90878628D02*
X176585714Y-90878628D01*
X177538095Y-90450057D02*
X177585714Y-90402438D01*
X177585714Y-90402438D02*
X177680952Y-90354819D01*
X177680952Y-90354819D02*
X177919047Y-90354819D01*
X177919047Y-90354819D02*
X178014285Y-90402438D01*
X178014285Y-90402438D02*
X178061904Y-90450057D01*
X178061904Y-90450057D02*
X178109523Y-90545295D01*
X178109523Y-90545295D02*
X178109523Y-90640533D01*
X178109523Y-90640533D02*
X178061904Y-90783390D01*
X178061904Y-90783390D02*
X177490476Y-91354819D01*
X177490476Y-91354819D02*
X178109523Y-91354819D01*
X178966666Y-90688152D02*
X178966666Y-91354819D01*
X178728571Y-90307200D02*
X178490476Y-91021485D01*
X178490476Y-91021485D02*
X179109523Y-91021485D01*
X139033333Y-86259580D02*
X138985714Y-86307200D01*
X138985714Y-86307200D02*
X138842857Y-86354819D01*
X138842857Y-86354819D02*
X138747619Y-86354819D01*
X138747619Y-86354819D02*
X138604762Y-86307200D01*
X138604762Y-86307200D02*
X138509524Y-86211961D01*
X138509524Y-86211961D02*
X138461905Y-86116723D01*
X138461905Y-86116723D02*
X138414286Y-85926247D01*
X138414286Y-85926247D02*
X138414286Y-85783390D01*
X138414286Y-85783390D02*
X138461905Y-85592914D01*
X138461905Y-85592914D02*
X138509524Y-85497676D01*
X138509524Y-85497676D02*
X138604762Y-85402438D01*
X138604762Y-85402438D02*
X138747619Y-85354819D01*
X138747619Y-85354819D02*
X138842857Y-85354819D01*
X138842857Y-85354819D02*
X138985714Y-85402438D01*
X138985714Y-85402438D02*
X139033333Y-85450057D01*
X139366667Y-85354819D02*
X139985714Y-85354819D01*
X139985714Y-85354819D02*
X139652381Y-85735771D01*
X139652381Y-85735771D02*
X139795238Y-85735771D01*
X139795238Y-85735771D02*
X139890476Y-85783390D01*
X139890476Y-85783390D02*
X139938095Y-85831009D01*
X139938095Y-85831009D02*
X139985714Y-85926247D01*
X139985714Y-85926247D02*
X139985714Y-86164342D01*
X139985714Y-86164342D02*
X139938095Y-86259580D01*
X139938095Y-86259580D02*
X139890476Y-86307200D01*
X139890476Y-86307200D02*
X139795238Y-86354819D01*
X139795238Y-86354819D02*
X139509524Y-86354819D01*
X139509524Y-86354819D02*
X139414286Y-86307200D01*
X139414286Y-86307200D02*
X139366667Y-86259580D01*
X175957142Y-93154819D02*
X175623809Y-92678628D01*
X175385714Y-93154819D02*
X175385714Y-92154819D01*
X175385714Y-92154819D02*
X175766666Y-92154819D01*
X175766666Y-92154819D02*
X175861904Y-92202438D01*
X175861904Y-92202438D02*
X175909523Y-92250057D01*
X175909523Y-92250057D02*
X175957142Y-92345295D01*
X175957142Y-92345295D02*
X175957142Y-92488152D01*
X175957142Y-92488152D02*
X175909523Y-92583390D01*
X175909523Y-92583390D02*
X175861904Y-92631009D01*
X175861904Y-92631009D02*
X175766666Y-92678628D01*
X175766666Y-92678628D02*
X175385714Y-92678628D01*
X176338095Y-92250057D02*
X176385714Y-92202438D01*
X176385714Y-92202438D02*
X176480952Y-92154819D01*
X176480952Y-92154819D02*
X176719047Y-92154819D01*
X176719047Y-92154819D02*
X176814285Y-92202438D01*
X176814285Y-92202438D02*
X176861904Y-92250057D01*
X176861904Y-92250057D02*
X176909523Y-92345295D01*
X176909523Y-92345295D02*
X176909523Y-92440533D01*
X176909523Y-92440533D02*
X176861904Y-92583390D01*
X176861904Y-92583390D02*
X176290476Y-93154819D01*
X176290476Y-93154819D02*
X176909523Y-93154819D01*
X177290476Y-92250057D02*
X177338095Y-92202438D01*
X177338095Y-92202438D02*
X177433333Y-92154819D01*
X177433333Y-92154819D02*
X177671428Y-92154819D01*
X177671428Y-92154819D02*
X177766666Y-92202438D01*
X177766666Y-92202438D02*
X177814285Y-92250057D01*
X177814285Y-92250057D02*
X177861904Y-92345295D01*
X177861904Y-92345295D02*
X177861904Y-92440533D01*
X177861904Y-92440533D02*
X177814285Y-92583390D01*
X177814285Y-92583390D02*
X177242857Y-93154819D01*
X177242857Y-93154819D02*
X177861904Y-93154819D01*
X153254819Y-108242857D02*
X152778628Y-108576190D01*
X153254819Y-108814285D02*
X152254819Y-108814285D01*
X152254819Y-108814285D02*
X152254819Y-108433333D01*
X152254819Y-108433333D02*
X152302438Y-108338095D01*
X152302438Y-108338095D02*
X152350057Y-108290476D01*
X152350057Y-108290476D02*
X152445295Y-108242857D01*
X152445295Y-108242857D02*
X152588152Y-108242857D01*
X152588152Y-108242857D02*
X152683390Y-108290476D01*
X152683390Y-108290476D02*
X152731009Y-108338095D01*
X152731009Y-108338095D02*
X152778628Y-108433333D01*
X152778628Y-108433333D02*
X152778628Y-108814285D01*
X153254819Y-107290476D02*
X153254819Y-107861904D01*
X153254819Y-107576190D02*
X152254819Y-107576190D01*
X152254819Y-107576190D02*
X152397676Y-107671428D01*
X152397676Y-107671428D02*
X152492914Y-107766666D01*
X152492914Y-107766666D02*
X152540533Y-107861904D01*
X152683390Y-106719047D02*
X152635771Y-106814285D01*
X152635771Y-106814285D02*
X152588152Y-106861904D01*
X152588152Y-106861904D02*
X152492914Y-106909523D01*
X152492914Y-106909523D02*
X152445295Y-106909523D01*
X152445295Y-106909523D02*
X152350057Y-106861904D01*
X152350057Y-106861904D02*
X152302438Y-106814285D01*
X152302438Y-106814285D02*
X152254819Y-106719047D01*
X152254819Y-106719047D02*
X152254819Y-106528571D01*
X152254819Y-106528571D02*
X152302438Y-106433333D01*
X152302438Y-106433333D02*
X152350057Y-106385714D01*
X152350057Y-106385714D02*
X152445295Y-106338095D01*
X152445295Y-106338095D02*
X152492914Y-106338095D01*
X152492914Y-106338095D02*
X152588152Y-106385714D01*
X152588152Y-106385714D02*
X152635771Y-106433333D01*
X152635771Y-106433333D02*
X152683390Y-106528571D01*
X152683390Y-106528571D02*
X152683390Y-106719047D01*
X152683390Y-106719047D02*
X152731009Y-106814285D01*
X152731009Y-106814285D02*
X152778628Y-106861904D01*
X152778628Y-106861904D02*
X152873866Y-106909523D01*
X152873866Y-106909523D02*
X153064342Y-106909523D01*
X153064342Y-106909523D02*
X153159580Y-106861904D01*
X153159580Y-106861904D02*
X153207200Y-106814285D01*
X153207200Y-106814285D02*
X153254819Y-106719047D01*
X153254819Y-106719047D02*
X153254819Y-106528571D01*
X153254819Y-106528571D02*
X153207200Y-106433333D01*
X153207200Y-106433333D02*
X153159580Y-106385714D01*
X153159580Y-106385714D02*
X153064342Y-106338095D01*
X153064342Y-106338095D02*
X152873866Y-106338095D01*
X152873866Y-106338095D02*
X152778628Y-106385714D01*
X152778628Y-106385714D02*
X152731009Y-106433333D01*
X152731009Y-106433333D02*
X152683390Y-106528571D01*
X188033333Y-89859580D02*
X187985714Y-89907200D01*
X187985714Y-89907200D02*
X187842857Y-89954819D01*
X187842857Y-89954819D02*
X187747619Y-89954819D01*
X187747619Y-89954819D02*
X187604762Y-89907200D01*
X187604762Y-89907200D02*
X187509524Y-89811961D01*
X187509524Y-89811961D02*
X187461905Y-89716723D01*
X187461905Y-89716723D02*
X187414286Y-89526247D01*
X187414286Y-89526247D02*
X187414286Y-89383390D01*
X187414286Y-89383390D02*
X187461905Y-89192914D01*
X187461905Y-89192914D02*
X187509524Y-89097676D01*
X187509524Y-89097676D02*
X187604762Y-89002438D01*
X187604762Y-89002438D02*
X187747619Y-88954819D01*
X187747619Y-88954819D02*
X187842857Y-88954819D01*
X187842857Y-88954819D02*
X187985714Y-89002438D01*
X187985714Y-89002438D02*
X188033333Y-89050057D01*
X188366667Y-88954819D02*
X189033333Y-88954819D01*
X189033333Y-88954819D02*
X188604762Y-89954819D01*
X156033333Y-82784819D02*
X155700000Y-82308628D01*
X155461905Y-82784819D02*
X155461905Y-81784819D01*
X155461905Y-81784819D02*
X155842857Y-81784819D01*
X155842857Y-81784819D02*
X155938095Y-81832438D01*
X155938095Y-81832438D02*
X155985714Y-81880057D01*
X155985714Y-81880057D02*
X156033333Y-81975295D01*
X156033333Y-81975295D02*
X156033333Y-82118152D01*
X156033333Y-82118152D02*
X155985714Y-82213390D01*
X155985714Y-82213390D02*
X155938095Y-82261009D01*
X155938095Y-82261009D02*
X155842857Y-82308628D01*
X155842857Y-82308628D02*
X155461905Y-82308628D01*
X156604762Y-82213390D02*
X156509524Y-82165771D01*
X156509524Y-82165771D02*
X156461905Y-82118152D01*
X156461905Y-82118152D02*
X156414286Y-82022914D01*
X156414286Y-82022914D02*
X156414286Y-81975295D01*
X156414286Y-81975295D02*
X156461905Y-81880057D01*
X156461905Y-81880057D02*
X156509524Y-81832438D01*
X156509524Y-81832438D02*
X156604762Y-81784819D01*
X156604762Y-81784819D02*
X156795238Y-81784819D01*
X156795238Y-81784819D02*
X156890476Y-81832438D01*
X156890476Y-81832438D02*
X156938095Y-81880057D01*
X156938095Y-81880057D02*
X156985714Y-81975295D01*
X156985714Y-81975295D02*
X156985714Y-82022914D01*
X156985714Y-82022914D02*
X156938095Y-82118152D01*
X156938095Y-82118152D02*
X156890476Y-82165771D01*
X156890476Y-82165771D02*
X156795238Y-82213390D01*
X156795238Y-82213390D02*
X156604762Y-82213390D01*
X156604762Y-82213390D02*
X156509524Y-82261009D01*
X156509524Y-82261009D02*
X156461905Y-82308628D01*
X156461905Y-82308628D02*
X156414286Y-82403866D01*
X156414286Y-82403866D02*
X156414286Y-82594342D01*
X156414286Y-82594342D02*
X156461905Y-82689580D01*
X156461905Y-82689580D02*
X156509524Y-82737200D01*
X156509524Y-82737200D02*
X156604762Y-82784819D01*
X156604762Y-82784819D02*
X156795238Y-82784819D01*
X156795238Y-82784819D02*
X156890476Y-82737200D01*
X156890476Y-82737200D02*
X156938095Y-82689580D01*
X156938095Y-82689580D02*
X156985714Y-82594342D01*
X156985714Y-82594342D02*
X156985714Y-82403866D01*
X156985714Y-82403866D02*
X156938095Y-82308628D01*
X156938095Y-82308628D02*
X156890476Y-82261009D01*
X156890476Y-82261009D02*
X156795238Y-82213390D01*
X127814285Y-100774819D02*
X127480952Y-100298628D01*
X127242857Y-100774819D02*
X127242857Y-99774819D01*
X127242857Y-99774819D02*
X127623809Y-99774819D01*
X127623809Y-99774819D02*
X127719047Y-99822438D01*
X127719047Y-99822438D02*
X127766666Y-99870057D01*
X127766666Y-99870057D02*
X127814285Y-99965295D01*
X127814285Y-99965295D02*
X127814285Y-100108152D01*
X127814285Y-100108152D02*
X127766666Y-100203390D01*
X127766666Y-100203390D02*
X127719047Y-100251009D01*
X127719047Y-100251009D02*
X127623809Y-100298628D01*
X127623809Y-100298628D02*
X127242857Y-100298628D01*
X128195238Y-100727200D02*
X128290476Y-100774819D01*
X128290476Y-100774819D02*
X128480952Y-100774819D01*
X128480952Y-100774819D02*
X128576190Y-100727200D01*
X128576190Y-100727200D02*
X128623809Y-100631961D01*
X128623809Y-100631961D02*
X128623809Y-100584342D01*
X128623809Y-100584342D02*
X128576190Y-100489104D01*
X128576190Y-100489104D02*
X128480952Y-100441485D01*
X128480952Y-100441485D02*
X128338095Y-100441485D01*
X128338095Y-100441485D02*
X128242857Y-100393866D01*
X128242857Y-100393866D02*
X128195238Y-100298628D01*
X128195238Y-100298628D02*
X128195238Y-100251009D01*
X128195238Y-100251009D02*
X128242857Y-100155771D01*
X128242857Y-100155771D02*
X128338095Y-100108152D01*
X128338095Y-100108152D02*
X128480952Y-100108152D01*
X128480952Y-100108152D02*
X128576190Y-100155771D01*
X129433333Y-100727200D02*
X129338095Y-100774819D01*
X129338095Y-100774819D02*
X129147619Y-100774819D01*
X129147619Y-100774819D02*
X129052381Y-100727200D01*
X129052381Y-100727200D02*
X129004762Y-100631961D01*
X129004762Y-100631961D02*
X129004762Y-100251009D01*
X129004762Y-100251009D02*
X129052381Y-100155771D01*
X129052381Y-100155771D02*
X129147619Y-100108152D01*
X129147619Y-100108152D02*
X129338095Y-100108152D01*
X129338095Y-100108152D02*
X129433333Y-100155771D01*
X129433333Y-100155771D02*
X129480952Y-100251009D01*
X129480952Y-100251009D02*
X129480952Y-100346247D01*
X129480952Y-100346247D02*
X129004762Y-100441485D01*
X129909524Y-100108152D02*
X129909524Y-100774819D01*
X129909524Y-100203390D02*
X129957143Y-100155771D01*
X129957143Y-100155771D02*
X130052381Y-100108152D01*
X130052381Y-100108152D02*
X130195238Y-100108152D01*
X130195238Y-100108152D02*
X130290476Y-100155771D01*
X130290476Y-100155771D02*
X130338095Y-100251009D01*
X130338095Y-100251009D02*
X130338095Y-100774819D01*
X130766667Y-100727200D02*
X130861905Y-100774819D01*
X130861905Y-100774819D02*
X131052381Y-100774819D01*
X131052381Y-100774819D02*
X131147619Y-100727200D01*
X131147619Y-100727200D02*
X131195238Y-100631961D01*
X131195238Y-100631961D02*
X131195238Y-100584342D01*
X131195238Y-100584342D02*
X131147619Y-100489104D01*
X131147619Y-100489104D02*
X131052381Y-100441485D01*
X131052381Y-100441485D02*
X130909524Y-100441485D01*
X130909524Y-100441485D02*
X130814286Y-100393866D01*
X130814286Y-100393866D02*
X130766667Y-100298628D01*
X130766667Y-100298628D02*
X130766667Y-100251009D01*
X130766667Y-100251009D02*
X130814286Y-100155771D01*
X130814286Y-100155771D02*
X130909524Y-100108152D01*
X130909524Y-100108152D02*
X131052381Y-100108152D01*
X131052381Y-100108152D02*
X131147619Y-100155771D01*
X132004762Y-100727200D02*
X131909524Y-100774819D01*
X131909524Y-100774819D02*
X131719048Y-100774819D01*
X131719048Y-100774819D02*
X131623810Y-100727200D01*
X131623810Y-100727200D02*
X131576191Y-100631961D01*
X131576191Y-100631961D02*
X131576191Y-100251009D01*
X131576191Y-100251009D02*
X131623810Y-100155771D01*
X131623810Y-100155771D02*
X131719048Y-100108152D01*
X131719048Y-100108152D02*
X131909524Y-100108152D01*
X131909524Y-100108152D02*
X132004762Y-100155771D01*
X132004762Y-100155771D02*
X132052381Y-100251009D01*
X132052381Y-100251009D02*
X132052381Y-100346247D01*
X132052381Y-100346247D02*
X131576191Y-100441485D01*
X133004762Y-100774819D02*
X132433334Y-100774819D01*
X132719048Y-100774819D02*
X132719048Y-99774819D01*
X132719048Y-99774819D02*
X132623810Y-99917676D01*
X132623810Y-99917676D02*
X132528572Y-100012914D01*
X132528572Y-100012914D02*
X132433334Y-100060533D01*
X139654819Y-96266666D02*
X139178628Y-96599999D01*
X139654819Y-96838094D02*
X138654819Y-96838094D01*
X138654819Y-96838094D02*
X138654819Y-96457142D01*
X138654819Y-96457142D02*
X138702438Y-96361904D01*
X138702438Y-96361904D02*
X138750057Y-96314285D01*
X138750057Y-96314285D02*
X138845295Y-96266666D01*
X138845295Y-96266666D02*
X138988152Y-96266666D01*
X138988152Y-96266666D02*
X139083390Y-96314285D01*
X139083390Y-96314285D02*
X139131009Y-96361904D01*
X139131009Y-96361904D02*
X139178628Y-96457142D01*
X139178628Y-96457142D02*
X139178628Y-96838094D01*
X138750057Y-95885713D02*
X138702438Y-95838094D01*
X138702438Y-95838094D02*
X138654819Y-95742856D01*
X138654819Y-95742856D02*
X138654819Y-95504761D01*
X138654819Y-95504761D02*
X138702438Y-95409523D01*
X138702438Y-95409523D02*
X138750057Y-95361904D01*
X138750057Y-95361904D02*
X138845295Y-95314285D01*
X138845295Y-95314285D02*
X138940533Y-95314285D01*
X138940533Y-95314285D02*
X139083390Y-95361904D01*
X139083390Y-95361904D02*
X139654819Y-95933332D01*
X139654819Y-95933332D02*
X139654819Y-95314285D01*
X159857142Y-96054819D02*
X159523809Y-95578628D01*
X159285714Y-96054819D02*
X159285714Y-95054819D01*
X159285714Y-95054819D02*
X159666666Y-95054819D01*
X159666666Y-95054819D02*
X159761904Y-95102438D01*
X159761904Y-95102438D02*
X159809523Y-95150057D01*
X159809523Y-95150057D02*
X159857142Y-95245295D01*
X159857142Y-95245295D02*
X159857142Y-95388152D01*
X159857142Y-95388152D02*
X159809523Y-95483390D01*
X159809523Y-95483390D02*
X159761904Y-95531009D01*
X159761904Y-95531009D02*
X159666666Y-95578628D01*
X159666666Y-95578628D02*
X159285714Y-95578628D01*
X160809523Y-96054819D02*
X160238095Y-96054819D01*
X160523809Y-96054819D02*
X160523809Y-95054819D01*
X160523809Y-95054819D02*
X160428571Y-95197676D01*
X160428571Y-95197676D02*
X160333333Y-95292914D01*
X160333333Y-95292914D02*
X160238095Y-95340533D01*
X161428571Y-95054819D02*
X161523809Y-95054819D01*
X161523809Y-95054819D02*
X161619047Y-95102438D01*
X161619047Y-95102438D02*
X161666666Y-95150057D01*
X161666666Y-95150057D02*
X161714285Y-95245295D01*
X161714285Y-95245295D02*
X161761904Y-95435771D01*
X161761904Y-95435771D02*
X161761904Y-95673866D01*
X161761904Y-95673866D02*
X161714285Y-95864342D01*
X161714285Y-95864342D02*
X161666666Y-95959580D01*
X161666666Y-95959580D02*
X161619047Y-96007200D01*
X161619047Y-96007200D02*
X161523809Y-96054819D01*
X161523809Y-96054819D02*
X161428571Y-96054819D01*
X161428571Y-96054819D02*
X161333333Y-96007200D01*
X161333333Y-96007200D02*
X161285714Y-95959580D01*
X161285714Y-95959580D02*
X161238095Y-95864342D01*
X161238095Y-95864342D02*
X161190476Y-95673866D01*
X161190476Y-95673866D02*
X161190476Y-95435771D01*
X161190476Y-95435771D02*
X161238095Y-95245295D01*
X161238095Y-95245295D02*
X161285714Y-95150057D01*
X161285714Y-95150057D02*
X161333333Y-95102438D01*
X161333333Y-95102438D02*
X161428571Y-95054819D01*
X170957142Y-84259580D02*
X170909523Y-84307200D01*
X170909523Y-84307200D02*
X170766666Y-84354819D01*
X170766666Y-84354819D02*
X170671428Y-84354819D01*
X170671428Y-84354819D02*
X170528571Y-84307200D01*
X170528571Y-84307200D02*
X170433333Y-84211961D01*
X170433333Y-84211961D02*
X170385714Y-84116723D01*
X170385714Y-84116723D02*
X170338095Y-83926247D01*
X170338095Y-83926247D02*
X170338095Y-83783390D01*
X170338095Y-83783390D02*
X170385714Y-83592914D01*
X170385714Y-83592914D02*
X170433333Y-83497676D01*
X170433333Y-83497676D02*
X170528571Y-83402438D01*
X170528571Y-83402438D02*
X170671428Y-83354819D01*
X170671428Y-83354819D02*
X170766666Y-83354819D01*
X170766666Y-83354819D02*
X170909523Y-83402438D01*
X170909523Y-83402438D02*
X170957142Y-83450057D01*
X171338095Y-83450057D02*
X171385714Y-83402438D01*
X171385714Y-83402438D02*
X171480952Y-83354819D01*
X171480952Y-83354819D02*
X171719047Y-83354819D01*
X171719047Y-83354819D02*
X171814285Y-83402438D01*
X171814285Y-83402438D02*
X171861904Y-83450057D01*
X171861904Y-83450057D02*
X171909523Y-83545295D01*
X171909523Y-83545295D02*
X171909523Y-83640533D01*
X171909523Y-83640533D02*
X171861904Y-83783390D01*
X171861904Y-83783390D02*
X171290476Y-84354819D01*
X171290476Y-84354819D02*
X171909523Y-84354819D01*
X172290476Y-83450057D02*
X172338095Y-83402438D01*
X172338095Y-83402438D02*
X172433333Y-83354819D01*
X172433333Y-83354819D02*
X172671428Y-83354819D01*
X172671428Y-83354819D02*
X172766666Y-83402438D01*
X172766666Y-83402438D02*
X172814285Y-83450057D01*
X172814285Y-83450057D02*
X172861904Y-83545295D01*
X172861904Y-83545295D02*
X172861904Y-83640533D01*
X172861904Y-83640533D02*
X172814285Y-83783390D01*
X172814285Y-83783390D02*
X172242857Y-84354819D01*
X172242857Y-84354819D02*
X172861904Y-84354819D01*
X150459580Y-106542857D02*
X150507200Y-106590476D01*
X150507200Y-106590476D02*
X150554819Y-106733333D01*
X150554819Y-106733333D02*
X150554819Y-106828571D01*
X150554819Y-106828571D02*
X150507200Y-106971428D01*
X150507200Y-106971428D02*
X150411961Y-107066666D01*
X150411961Y-107066666D02*
X150316723Y-107114285D01*
X150316723Y-107114285D02*
X150126247Y-107161904D01*
X150126247Y-107161904D02*
X149983390Y-107161904D01*
X149983390Y-107161904D02*
X149792914Y-107114285D01*
X149792914Y-107114285D02*
X149697676Y-107066666D01*
X149697676Y-107066666D02*
X149602438Y-106971428D01*
X149602438Y-106971428D02*
X149554819Y-106828571D01*
X149554819Y-106828571D02*
X149554819Y-106733333D01*
X149554819Y-106733333D02*
X149602438Y-106590476D01*
X149602438Y-106590476D02*
X149650057Y-106542857D01*
X150554819Y-105590476D02*
X150554819Y-106161904D01*
X150554819Y-105876190D02*
X149554819Y-105876190D01*
X149554819Y-105876190D02*
X149697676Y-105971428D01*
X149697676Y-105971428D02*
X149792914Y-106066666D01*
X149792914Y-106066666D02*
X149840533Y-106161904D01*
X149554819Y-104685714D02*
X149554819Y-105161904D01*
X149554819Y-105161904D02*
X150031009Y-105209523D01*
X150031009Y-105209523D02*
X149983390Y-105161904D01*
X149983390Y-105161904D02*
X149935771Y-105066666D01*
X149935771Y-105066666D02*
X149935771Y-104828571D01*
X149935771Y-104828571D02*
X149983390Y-104733333D01*
X149983390Y-104733333D02*
X150031009Y-104685714D01*
X150031009Y-104685714D02*
X150126247Y-104638095D01*
X150126247Y-104638095D02*
X150364342Y-104638095D01*
X150364342Y-104638095D02*
X150459580Y-104685714D01*
X150459580Y-104685714D02*
X150507200Y-104733333D01*
X150507200Y-104733333D02*
X150554819Y-104828571D01*
X150554819Y-104828571D02*
X150554819Y-105066666D01*
X150554819Y-105066666D02*
X150507200Y-105161904D01*
X150507200Y-105161904D02*
X150459580Y-105209523D01*
X142754819Y-101766666D02*
X142278628Y-102099999D01*
X142754819Y-102338094D02*
X141754819Y-102338094D01*
X141754819Y-102338094D02*
X141754819Y-101957142D01*
X141754819Y-101957142D02*
X141802438Y-101861904D01*
X141802438Y-101861904D02*
X141850057Y-101814285D01*
X141850057Y-101814285D02*
X141945295Y-101766666D01*
X141945295Y-101766666D02*
X142088152Y-101766666D01*
X142088152Y-101766666D02*
X142183390Y-101814285D01*
X142183390Y-101814285D02*
X142231009Y-101861904D01*
X142231009Y-101861904D02*
X142278628Y-101957142D01*
X142278628Y-101957142D02*
X142278628Y-102338094D01*
X141754819Y-101433332D02*
X141754819Y-100814285D01*
X141754819Y-100814285D02*
X142135771Y-101147618D01*
X142135771Y-101147618D02*
X142135771Y-101004761D01*
X142135771Y-101004761D02*
X142183390Y-100909523D01*
X142183390Y-100909523D02*
X142231009Y-100861904D01*
X142231009Y-100861904D02*
X142326247Y-100814285D01*
X142326247Y-100814285D02*
X142564342Y-100814285D01*
X142564342Y-100814285D02*
X142659580Y-100861904D01*
X142659580Y-100861904D02*
X142707200Y-100909523D01*
X142707200Y-100909523D02*
X142754819Y-101004761D01*
X142754819Y-101004761D02*
X142754819Y-101290475D01*
X142754819Y-101290475D02*
X142707200Y-101385713D01*
X142707200Y-101385713D02*
X142659580Y-101433332D01*
X144833333Y-80759580D02*
X144785714Y-80807200D01*
X144785714Y-80807200D02*
X144642857Y-80854819D01*
X144642857Y-80854819D02*
X144547619Y-80854819D01*
X144547619Y-80854819D02*
X144404762Y-80807200D01*
X144404762Y-80807200D02*
X144309524Y-80711961D01*
X144309524Y-80711961D02*
X144261905Y-80616723D01*
X144261905Y-80616723D02*
X144214286Y-80426247D01*
X144214286Y-80426247D02*
X144214286Y-80283390D01*
X144214286Y-80283390D02*
X144261905Y-80092914D01*
X144261905Y-80092914D02*
X144309524Y-79997676D01*
X144309524Y-79997676D02*
X144404762Y-79902438D01*
X144404762Y-79902438D02*
X144547619Y-79854819D01*
X144547619Y-79854819D02*
X144642857Y-79854819D01*
X144642857Y-79854819D02*
X144785714Y-79902438D01*
X144785714Y-79902438D02*
X144833333Y-79950057D01*
X145214286Y-79950057D02*
X145261905Y-79902438D01*
X145261905Y-79902438D02*
X145357143Y-79854819D01*
X145357143Y-79854819D02*
X145595238Y-79854819D01*
X145595238Y-79854819D02*
X145690476Y-79902438D01*
X145690476Y-79902438D02*
X145738095Y-79950057D01*
X145738095Y-79950057D02*
X145785714Y-80045295D01*
X145785714Y-80045295D02*
X145785714Y-80140533D01*
X145785714Y-80140533D02*
X145738095Y-80283390D01*
X145738095Y-80283390D02*
X145166667Y-80854819D01*
X145166667Y-80854819D02*
X145785714Y-80854819D01*
X153957142Y-73859580D02*
X153909523Y-73907200D01*
X153909523Y-73907200D02*
X153766666Y-73954819D01*
X153766666Y-73954819D02*
X153671428Y-73954819D01*
X153671428Y-73954819D02*
X153528571Y-73907200D01*
X153528571Y-73907200D02*
X153433333Y-73811961D01*
X153433333Y-73811961D02*
X153385714Y-73716723D01*
X153385714Y-73716723D02*
X153338095Y-73526247D01*
X153338095Y-73526247D02*
X153338095Y-73383390D01*
X153338095Y-73383390D02*
X153385714Y-73192914D01*
X153385714Y-73192914D02*
X153433333Y-73097676D01*
X153433333Y-73097676D02*
X153528571Y-73002438D01*
X153528571Y-73002438D02*
X153671428Y-72954819D01*
X153671428Y-72954819D02*
X153766666Y-72954819D01*
X153766666Y-72954819D02*
X153909523Y-73002438D01*
X153909523Y-73002438D02*
X153957142Y-73050057D01*
X154338095Y-73050057D02*
X154385714Y-73002438D01*
X154385714Y-73002438D02*
X154480952Y-72954819D01*
X154480952Y-72954819D02*
X154719047Y-72954819D01*
X154719047Y-72954819D02*
X154814285Y-73002438D01*
X154814285Y-73002438D02*
X154861904Y-73050057D01*
X154861904Y-73050057D02*
X154909523Y-73145295D01*
X154909523Y-73145295D02*
X154909523Y-73240533D01*
X154909523Y-73240533D02*
X154861904Y-73383390D01*
X154861904Y-73383390D02*
X154290476Y-73954819D01*
X154290476Y-73954819D02*
X154909523Y-73954819D01*
X155528571Y-72954819D02*
X155623809Y-72954819D01*
X155623809Y-72954819D02*
X155719047Y-73002438D01*
X155719047Y-73002438D02*
X155766666Y-73050057D01*
X155766666Y-73050057D02*
X155814285Y-73145295D01*
X155814285Y-73145295D02*
X155861904Y-73335771D01*
X155861904Y-73335771D02*
X155861904Y-73573866D01*
X155861904Y-73573866D02*
X155814285Y-73764342D01*
X155814285Y-73764342D02*
X155766666Y-73859580D01*
X155766666Y-73859580D02*
X155719047Y-73907200D01*
X155719047Y-73907200D02*
X155623809Y-73954819D01*
X155623809Y-73954819D02*
X155528571Y-73954819D01*
X155528571Y-73954819D02*
X155433333Y-73907200D01*
X155433333Y-73907200D02*
X155385714Y-73859580D01*
X155385714Y-73859580D02*
X155338095Y-73764342D01*
X155338095Y-73764342D02*
X155290476Y-73573866D01*
X155290476Y-73573866D02*
X155290476Y-73335771D01*
X155290476Y-73335771D02*
X155338095Y-73145295D01*
X155338095Y-73145295D02*
X155385714Y-73050057D01*
X155385714Y-73050057D02*
X155433333Y-73002438D01*
X155433333Y-73002438D02*
X155528571Y-72954819D01*
X139033333Y-88359580D02*
X138985714Y-88407200D01*
X138985714Y-88407200D02*
X138842857Y-88454819D01*
X138842857Y-88454819D02*
X138747619Y-88454819D01*
X138747619Y-88454819D02*
X138604762Y-88407200D01*
X138604762Y-88407200D02*
X138509524Y-88311961D01*
X138509524Y-88311961D02*
X138461905Y-88216723D01*
X138461905Y-88216723D02*
X138414286Y-88026247D01*
X138414286Y-88026247D02*
X138414286Y-87883390D01*
X138414286Y-87883390D02*
X138461905Y-87692914D01*
X138461905Y-87692914D02*
X138509524Y-87597676D01*
X138509524Y-87597676D02*
X138604762Y-87502438D01*
X138604762Y-87502438D02*
X138747619Y-87454819D01*
X138747619Y-87454819D02*
X138842857Y-87454819D01*
X138842857Y-87454819D02*
X138985714Y-87502438D01*
X138985714Y-87502438D02*
X139033333Y-87550057D01*
X139985714Y-88454819D02*
X139414286Y-88454819D01*
X139700000Y-88454819D02*
X139700000Y-87454819D01*
X139700000Y-87454819D02*
X139604762Y-87597676D01*
X139604762Y-87597676D02*
X139509524Y-87692914D01*
X139509524Y-87692914D02*
X139414286Y-87740533D01*
X146354819Y-101766666D02*
X145878628Y-102099999D01*
X146354819Y-102338094D02*
X145354819Y-102338094D01*
X145354819Y-102338094D02*
X145354819Y-101957142D01*
X145354819Y-101957142D02*
X145402438Y-101861904D01*
X145402438Y-101861904D02*
X145450057Y-101814285D01*
X145450057Y-101814285D02*
X145545295Y-101766666D01*
X145545295Y-101766666D02*
X145688152Y-101766666D01*
X145688152Y-101766666D02*
X145783390Y-101814285D01*
X145783390Y-101814285D02*
X145831009Y-101861904D01*
X145831009Y-101861904D02*
X145878628Y-101957142D01*
X145878628Y-101957142D02*
X145878628Y-102338094D01*
X145354819Y-100861904D02*
X145354819Y-101338094D01*
X145354819Y-101338094D02*
X145831009Y-101385713D01*
X145831009Y-101385713D02*
X145783390Y-101338094D01*
X145783390Y-101338094D02*
X145735771Y-101242856D01*
X145735771Y-101242856D02*
X145735771Y-101004761D01*
X145735771Y-101004761D02*
X145783390Y-100909523D01*
X145783390Y-100909523D02*
X145831009Y-100861904D01*
X145831009Y-100861904D02*
X145926247Y-100814285D01*
X145926247Y-100814285D02*
X146164342Y-100814285D01*
X146164342Y-100814285D02*
X146259580Y-100861904D01*
X146259580Y-100861904D02*
X146307200Y-100909523D01*
X146307200Y-100909523D02*
X146354819Y-101004761D01*
X146354819Y-101004761D02*
X146354819Y-101242856D01*
X146354819Y-101242856D02*
X146307200Y-101338094D01*
X146307200Y-101338094D02*
X146259580Y-101385713D01*
X110533333Y-87359580D02*
X110485714Y-87407200D01*
X110485714Y-87407200D02*
X110342857Y-87454819D01*
X110342857Y-87454819D02*
X110247619Y-87454819D01*
X110247619Y-87454819D02*
X110104762Y-87407200D01*
X110104762Y-87407200D02*
X110009524Y-87311961D01*
X110009524Y-87311961D02*
X109961905Y-87216723D01*
X109961905Y-87216723D02*
X109914286Y-87026247D01*
X109914286Y-87026247D02*
X109914286Y-86883390D01*
X109914286Y-86883390D02*
X109961905Y-86692914D01*
X109961905Y-86692914D02*
X110009524Y-86597676D01*
X110009524Y-86597676D02*
X110104762Y-86502438D01*
X110104762Y-86502438D02*
X110247619Y-86454819D01*
X110247619Y-86454819D02*
X110342857Y-86454819D01*
X110342857Y-86454819D02*
X110485714Y-86502438D01*
X110485714Y-86502438D02*
X110533333Y-86550057D01*
X111009524Y-87454819D02*
X111200000Y-87454819D01*
X111200000Y-87454819D02*
X111295238Y-87407200D01*
X111295238Y-87407200D02*
X111342857Y-87359580D01*
X111342857Y-87359580D02*
X111438095Y-87216723D01*
X111438095Y-87216723D02*
X111485714Y-87026247D01*
X111485714Y-87026247D02*
X111485714Y-86645295D01*
X111485714Y-86645295D02*
X111438095Y-86550057D01*
X111438095Y-86550057D02*
X111390476Y-86502438D01*
X111390476Y-86502438D02*
X111295238Y-86454819D01*
X111295238Y-86454819D02*
X111104762Y-86454819D01*
X111104762Y-86454819D02*
X111009524Y-86502438D01*
X111009524Y-86502438D02*
X110961905Y-86550057D01*
X110961905Y-86550057D02*
X110914286Y-86645295D01*
X110914286Y-86645295D02*
X110914286Y-86883390D01*
X110914286Y-86883390D02*
X110961905Y-86978628D01*
X110961905Y-86978628D02*
X111009524Y-87026247D01*
X111009524Y-87026247D02*
X111104762Y-87073866D01*
X111104762Y-87073866D02*
X111295238Y-87073866D01*
X111295238Y-87073866D02*
X111390476Y-87026247D01*
X111390476Y-87026247D02*
X111438095Y-86978628D01*
X111438095Y-86978628D02*
X111485714Y-86883390D01*
X164633333Y-92759580D02*
X164585714Y-92807200D01*
X164585714Y-92807200D02*
X164442857Y-92854819D01*
X164442857Y-92854819D02*
X164347619Y-92854819D01*
X164347619Y-92854819D02*
X164204762Y-92807200D01*
X164204762Y-92807200D02*
X164109524Y-92711961D01*
X164109524Y-92711961D02*
X164061905Y-92616723D01*
X164061905Y-92616723D02*
X164014286Y-92426247D01*
X164014286Y-92426247D02*
X164014286Y-92283390D01*
X164014286Y-92283390D02*
X164061905Y-92092914D01*
X164061905Y-92092914D02*
X164109524Y-91997676D01*
X164109524Y-91997676D02*
X164204762Y-91902438D01*
X164204762Y-91902438D02*
X164347619Y-91854819D01*
X164347619Y-91854819D02*
X164442857Y-91854819D01*
X164442857Y-91854819D02*
X164585714Y-91902438D01*
X164585714Y-91902438D02*
X164633333Y-91950057D01*
X165204762Y-92283390D02*
X165109524Y-92235771D01*
X165109524Y-92235771D02*
X165061905Y-92188152D01*
X165061905Y-92188152D02*
X165014286Y-92092914D01*
X165014286Y-92092914D02*
X165014286Y-92045295D01*
X165014286Y-92045295D02*
X165061905Y-91950057D01*
X165061905Y-91950057D02*
X165109524Y-91902438D01*
X165109524Y-91902438D02*
X165204762Y-91854819D01*
X165204762Y-91854819D02*
X165395238Y-91854819D01*
X165395238Y-91854819D02*
X165490476Y-91902438D01*
X165490476Y-91902438D02*
X165538095Y-91950057D01*
X165538095Y-91950057D02*
X165585714Y-92045295D01*
X165585714Y-92045295D02*
X165585714Y-92092914D01*
X165585714Y-92092914D02*
X165538095Y-92188152D01*
X165538095Y-92188152D02*
X165490476Y-92235771D01*
X165490476Y-92235771D02*
X165395238Y-92283390D01*
X165395238Y-92283390D02*
X165204762Y-92283390D01*
X165204762Y-92283390D02*
X165109524Y-92331009D01*
X165109524Y-92331009D02*
X165061905Y-92378628D01*
X165061905Y-92378628D02*
X165014286Y-92473866D01*
X165014286Y-92473866D02*
X165014286Y-92664342D01*
X165014286Y-92664342D02*
X165061905Y-92759580D01*
X165061905Y-92759580D02*
X165109524Y-92807200D01*
X165109524Y-92807200D02*
X165204762Y-92854819D01*
X165204762Y-92854819D02*
X165395238Y-92854819D01*
X165395238Y-92854819D02*
X165490476Y-92807200D01*
X165490476Y-92807200D02*
X165538095Y-92759580D01*
X165538095Y-92759580D02*
X165585714Y-92664342D01*
X165585714Y-92664342D02*
X165585714Y-92473866D01*
X165585714Y-92473866D02*
X165538095Y-92378628D01*
X165538095Y-92378628D02*
X165490476Y-92331009D01*
X165490476Y-92331009D02*
X165395238Y-92283390D01*
X167614285Y-104854819D02*
X167280952Y-104378628D01*
X167042857Y-104854819D02*
X167042857Y-103854819D01*
X167042857Y-103854819D02*
X167423809Y-103854819D01*
X167423809Y-103854819D02*
X167519047Y-103902438D01*
X167519047Y-103902438D02*
X167566666Y-103950057D01*
X167566666Y-103950057D02*
X167614285Y-104045295D01*
X167614285Y-104045295D02*
X167614285Y-104188152D01*
X167614285Y-104188152D02*
X167566666Y-104283390D01*
X167566666Y-104283390D02*
X167519047Y-104331009D01*
X167519047Y-104331009D02*
X167423809Y-104378628D01*
X167423809Y-104378628D02*
X167042857Y-104378628D01*
X167995238Y-104807200D02*
X168090476Y-104854819D01*
X168090476Y-104854819D02*
X168280952Y-104854819D01*
X168280952Y-104854819D02*
X168376190Y-104807200D01*
X168376190Y-104807200D02*
X168423809Y-104711961D01*
X168423809Y-104711961D02*
X168423809Y-104664342D01*
X168423809Y-104664342D02*
X168376190Y-104569104D01*
X168376190Y-104569104D02*
X168280952Y-104521485D01*
X168280952Y-104521485D02*
X168138095Y-104521485D01*
X168138095Y-104521485D02*
X168042857Y-104473866D01*
X168042857Y-104473866D02*
X167995238Y-104378628D01*
X167995238Y-104378628D02*
X167995238Y-104331009D01*
X167995238Y-104331009D02*
X168042857Y-104235771D01*
X168042857Y-104235771D02*
X168138095Y-104188152D01*
X168138095Y-104188152D02*
X168280952Y-104188152D01*
X168280952Y-104188152D02*
X168376190Y-104235771D01*
X169233333Y-104807200D02*
X169138095Y-104854819D01*
X169138095Y-104854819D02*
X168947619Y-104854819D01*
X168947619Y-104854819D02*
X168852381Y-104807200D01*
X168852381Y-104807200D02*
X168804762Y-104711961D01*
X168804762Y-104711961D02*
X168804762Y-104331009D01*
X168804762Y-104331009D02*
X168852381Y-104235771D01*
X168852381Y-104235771D02*
X168947619Y-104188152D01*
X168947619Y-104188152D02*
X169138095Y-104188152D01*
X169138095Y-104188152D02*
X169233333Y-104235771D01*
X169233333Y-104235771D02*
X169280952Y-104331009D01*
X169280952Y-104331009D02*
X169280952Y-104426247D01*
X169280952Y-104426247D02*
X168804762Y-104521485D01*
X169709524Y-104188152D02*
X169709524Y-104854819D01*
X169709524Y-104283390D02*
X169757143Y-104235771D01*
X169757143Y-104235771D02*
X169852381Y-104188152D01*
X169852381Y-104188152D02*
X169995238Y-104188152D01*
X169995238Y-104188152D02*
X170090476Y-104235771D01*
X170090476Y-104235771D02*
X170138095Y-104331009D01*
X170138095Y-104331009D02*
X170138095Y-104854819D01*
X170566667Y-104807200D02*
X170661905Y-104854819D01*
X170661905Y-104854819D02*
X170852381Y-104854819D01*
X170852381Y-104854819D02*
X170947619Y-104807200D01*
X170947619Y-104807200D02*
X170995238Y-104711961D01*
X170995238Y-104711961D02*
X170995238Y-104664342D01*
X170995238Y-104664342D02*
X170947619Y-104569104D01*
X170947619Y-104569104D02*
X170852381Y-104521485D01*
X170852381Y-104521485D02*
X170709524Y-104521485D01*
X170709524Y-104521485D02*
X170614286Y-104473866D01*
X170614286Y-104473866D02*
X170566667Y-104378628D01*
X170566667Y-104378628D02*
X170566667Y-104331009D01*
X170566667Y-104331009D02*
X170614286Y-104235771D01*
X170614286Y-104235771D02*
X170709524Y-104188152D01*
X170709524Y-104188152D02*
X170852381Y-104188152D01*
X170852381Y-104188152D02*
X170947619Y-104235771D01*
X171804762Y-104807200D02*
X171709524Y-104854819D01*
X171709524Y-104854819D02*
X171519048Y-104854819D01*
X171519048Y-104854819D02*
X171423810Y-104807200D01*
X171423810Y-104807200D02*
X171376191Y-104711961D01*
X171376191Y-104711961D02*
X171376191Y-104331009D01*
X171376191Y-104331009D02*
X171423810Y-104235771D01*
X171423810Y-104235771D02*
X171519048Y-104188152D01*
X171519048Y-104188152D02*
X171709524Y-104188152D01*
X171709524Y-104188152D02*
X171804762Y-104235771D01*
X171804762Y-104235771D02*
X171852381Y-104331009D01*
X171852381Y-104331009D02*
X171852381Y-104426247D01*
X171852381Y-104426247D02*
X171376191Y-104521485D01*
X172233334Y-103950057D02*
X172280953Y-103902438D01*
X172280953Y-103902438D02*
X172376191Y-103854819D01*
X172376191Y-103854819D02*
X172614286Y-103854819D01*
X172614286Y-103854819D02*
X172709524Y-103902438D01*
X172709524Y-103902438D02*
X172757143Y-103950057D01*
X172757143Y-103950057D02*
X172804762Y-104045295D01*
X172804762Y-104045295D02*
X172804762Y-104140533D01*
X172804762Y-104140533D02*
X172757143Y-104283390D01*
X172757143Y-104283390D02*
X172185715Y-104854819D01*
X172185715Y-104854819D02*
X172804762Y-104854819D01*
X160031666Y-88529819D02*
X160031666Y-89244104D01*
X160031666Y-89244104D02*
X159984047Y-89386961D01*
X159984047Y-89386961D02*
X159888809Y-89482200D01*
X159888809Y-89482200D02*
X159745952Y-89529819D01*
X159745952Y-89529819D02*
X159650714Y-89529819D01*
X161031666Y-89529819D02*
X160460238Y-89529819D01*
X160745952Y-89529819D02*
X160745952Y-88529819D01*
X160745952Y-88529819D02*
X160650714Y-88672676D01*
X160650714Y-88672676D02*
X160555476Y-88767914D01*
X160555476Y-88767914D02*
X160460238Y-88815533D01*
X121657142Y-87254819D02*
X121323809Y-86778628D01*
X121085714Y-87254819D02*
X121085714Y-86254819D01*
X121085714Y-86254819D02*
X121466666Y-86254819D01*
X121466666Y-86254819D02*
X121561904Y-86302438D01*
X121561904Y-86302438D02*
X121609523Y-86350057D01*
X121609523Y-86350057D02*
X121657142Y-86445295D01*
X121657142Y-86445295D02*
X121657142Y-86588152D01*
X121657142Y-86588152D02*
X121609523Y-86683390D01*
X121609523Y-86683390D02*
X121561904Y-86731009D01*
X121561904Y-86731009D02*
X121466666Y-86778628D01*
X121466666Y-86778628D02*
X121085714Y-86778628D01*
X122038095Y-86350057D02*
X122085714Y-86302438D01*
X122085714Y-86302438D02*
X122180952Y-86254819D01*
X122180952Y-86254819D02*
X122419047Y-86254819D01*
X122419047Y-86254819D02*
X122514285Y-86302438D01*
X122514285Y-86302438D02*
X122561904Y-86350057D01*
X122561904Y-86350057D02*
X122609523Y-86445295D01*
X122609523Y-86445295D02*
X122609523Y-86540533D01*
X122609523Y-86540533D02*
X122561904Y-86683390D01*
X122561904Y-86683390D02*
X121990476Y-87254819D01*
X121990476Y-87254819D02*
X122609523Y-87254819D01*
X123514285Y-86254819D02*
X123038095Y-86254819D01*
X123038095Y-86254819D02*
X122990476Y-86731009D01*
X122990476Y-86731009D02*
X123038095Y-86683390D01*
X123038095Y-86683390D02*
X123133333Y-86635771D01*
X123133333Y-86635771D02*
X123371428Y-86635771D01*
X123371428Y-86635771D02*
X123466666Y-86683390D01*
X123466666Y-86683390D02*
X123514285Y-86731009D01*
X123514285Y-86731009D02*
X123561904Y-86826247D01*
X123561904Y-86826247D02*
X123561904Y-87064342D01*
X123561904Y-87064342D02*
X123514285Y-87159580D01*
X123514285Y-87159580D02*
X123466666Y-87207200D01*
X123466666Y-87207200D02*
X123371428Y-87254819D01*
X123371428Y-87254819D02*
X123133333Y-87254819D01*
X123133333Y-87254819D02*
X123038095Y-87207200D01*
X123038095Y-87207200D02*
X122990476Y-87159580D01*
X107824819Y-93633333D02*
X108539104Y-93633333D01*
X108539104Y-93633333D02*
X108681961Y-93680952D01*
X108681961Y-93680952D02*
X108777200Y-93776190D01*
X108777200Y-93776190D02*
X108824819Y-93919047D01*
X108824819Y-93919047D02*
X108824819Y-94014285D01*
X107824819Y-93252380D02*
X107824819Y-92633333D01*
X107824819Y-92633333D02*
X108205771Y-92966666D01*
X108205771Y-92966666D02*
X108205771Y-92823809D01*
X108205771Y-92823809D02*
X108253390Y-92728571D01*
X108253390Y-92728571D02*
X108301009Y-92680952D01*
X108301009Y-92680952D02*
X108396247Y-92633333D01*
X108396247Y-92633333D02*
X108634342Y-92633333D01*
X108634342Y-92633333D02*
X108729580Y-92680952D01*
X108729580Y-92680952D02*
X108777200Y-92728571D01*
X108777200Y-92728571D02*
X108824819Y-92823809D01*
X108824819Y-92823809D02*
X108824819Y-93109523D01*
X108824819Y-93109523D02*
X108777200Y-93204761D01*
X108777200Y-93204761D02*
X108729580Y-93252380D01*
X171954819Y-87874404D02*
X172764342Y-87874404D01*
X172764342Y-87874404D02*
X172859580Y-87826785D01*
X172859580Y-87826785D02*
X172907200Y-87779166D01*
X172907200Y-87779166D02*
X172954819Y-87683928D01*
X172954819Y-87683928D02*
X172954819Y-87493452D01*
X172954819Y-87493452D02*
X172907200Y-87398214D01*
X172907200Y-87398214D02*
X172859580Y-87350595D01*
X172859580Y-87350595D02*
X172764342Y-87302976D01*
X172764342Y-87302976D02*
X171954819Y-87302976D01*
X171954819Y-86922023D02*
X171954819Y-86302976D01*
X171954819Y-86302976D02*
X172335771Y-86636309D01*
X172335771Y-86636309D02*
X172335771Y-86493452D01*
X172335771Y-86493452D02*
X172383390Y-86398214D01*
X172383390Y-86398214D02*
X172431009Y-86350595D01*
X172431009Y-86350595D02*
X172526247Y-86302976D01*
X172526247Y-86302976D02*
X172764342Y-86302976D01*
X172764342Y-86302976D02*
X172859580Y-86350595D01*
X172859580Y-86350595D02*
X172907200Y-86398214D01*
X172907200Y-86398214D02*
X172954819Y-86493452D01*
X172954819Y-86493452D02*
X172954819Y-86779166D01*
X172954819Y-86779166D02*
X172907200Y-86874404D01*
X172907200Y-86874404D02*
X172859580Y-86922023D01*
X142633333Y-80759580D02*
X142585714Y-80807200D01*
X142585714Y-80807200D02*
X142442857Y-80854819D01*
X142442857Y-80854819D02*
X142347619Y-80854819D01*
X142347619Y-80854819D02*
X142204762Y-80807200D01*
X142204762Y-80807200D02*
X142109524Y-80711961D01*
X142109524Y-80711961D02*
X142061905Y-80616723D01*
X142061905Y-80616723D02*
X142014286Y-80426247D01*
X142014286Y-80426247D02*
X142014286Y-80283390D01*
X142014286Y-80283390D02*
X142061905Y-80092914D01*
X142061905Y-80092914D02*
X142109524Y-79997676D01*
X142109524Y-79997676D02*
X142204762Y-79902438D01*
X142204762Y-79902438D02*
X142347619Y-79854819D01*
X142347619Y-79854819D02*
X142442857Y-79854819D01*
X142442857Y-79854819D02*
X142585714Y-79902438D01*
X142585714Y-79902438D02*
X142633333Y-79950057D01*
X143490476Y-79854819D02*
X143300000Y-79854819D01*
X143300000Y-79854819D02*
X143204762Y-79902438D01*
X143204762Y-79902438D02*
X143157143Y-79950057D01*
X143157143Y-79950057D02*
X143061905Y-80092914D01*
X143061905Y-80092914D02*
X143014286Y-80283390D01*
X143014286Y-80283390D02*
X143014286Y-80664342D01*
X143014286Y-80664342D02*
X143061905Y-80759580D01*
X143061905Y-80759580D02*
X143109524Y-80807200D01*
X143109524Y-80807200D02*
X143204762Y-80854819D01*
X143204762Y-80854819D02*
X143395238Y-80854819D01*
X143395238Y-80854819D02*
X143490476Y-80807200D01*
X143490476Y-80807200D02*
X143538095Y-80759580D01*
X143538095Y-80759580D02*
X143585714Y-80664342D01*
X143585714Y-80664342D02*
X143585714Y-80426247D01*
X143585714Y-80426247D02*
X143538095Y-80331009D01*
X143538095Y-80331009D02*
X143490476Y-80283390D01*
X143490476Y-80283390D02*
X143395238Y-80235771D01*
X143395238Y-80235771D02*
X143204762Y-80235771D01*
X143204762Y-80235771D02*
X143109524Y-80283390D01*
X143109524Y-80283390D02*
X143061905Y-80331009D01*
X143061905Y-80331009D02*
X143014286Y-80426247D01*
X177654819Y-83838094D02*
X176654819Y-83838094D01*
X176654819Y-83838094D02*
X176654819Y-83599999D01*
X176654819Y-83599999D02*
X176702438Y-83457142D01*
X176702438Y-83457142D02*
X176797676Y-83361904D01*
X176797676Y-83361904D02*
X176892914Y-83314285D01*
X176892914Y-83314285D02*
X177083390Y-83266666D01*
X177083390Y-83266666D02*
X177226247Y-83266666D01*
X177226247Y-83266666D02*
X177416723Y-83314285D01*
X177416723Y-83314285D02*
X177511961Y-83361904D01*
X177511961Y-83361904D02*
X177607200Y-83457142D01*
X177607200Y-83457142D02*
X177654819Y-83599999D01*
X177654819Y-83599999D02*
X177654819Y-83838094D01*
X177654819Y-82314285D02*
X177654819Y-82885713D01*
X177654819Y-82599999D02*
X176654819Y-82599999D01*
X176654819Y-82599999D02*
X176797676Y-82695237D01*
X176797676Y-82695237D02*
X176892914Y-82790475D01*
X176892914Y-82790475D02*
X176940533Y-82885713D01*
X121857142Y-91154819D02*
X121523809Y-90678628D01*
X121285714Y-91154819D02*
X121285714Y-90154819D01*
X121285714Y-90154819D02*
X121666666Y-90154819D01*
X121666666Y-90154819D02*
X121761904Y-90202438D01*
X121761904Y-90202438D02*
X121809523Y-90250057D01*
X121809523Y-90250057D02*
X121857142Y-90345295D01*
X121857142Y-90345295D02*
X121857142Y-90488152D01*
X121857142Y-90488152D02*
X121809523Y-90583390D01*
X121809523Y-90583390D02*
X121761904Y-90631009D01*
X121761904Y-90631009D02*
X121666666Y-90678628D01*
X121666666Y-90678628D02*
X121285714Y-90678628D01*
X122238095Y-90250057D02*
X122285714Y-90202438D01*
X122285714Y-90202438D02*
X122380952Y-90154819D01*
X122380952Y-90154819D02*
X122619047Y-90154819D01*
X122619047Y-90154819D02*
X122714285Y-90202438D01*
X122714285Y-90202438D02*
X122761904Y-90250057D01*
X122761904Y-90250057D02*
X122809523Y-90345295D01*
X122809523Y-90345295D02*
X122809523Y-90440533D01*
X122809523Y-90440533D02*
X122761904Y-90583390D01*
X122761904Y-90583390D02*
X122190476Y-91154819D01*
X122190476Y-91154819D02*
X122809523Y-91154819D01*
X123142857Y-90154819D02*
X123761904Y-90154819D01*
X123761904Y-90154819D02*
X123428571Y-90535771D01*
X123428571Y-90535771D02*
X123571428Y-90535771D01*
X123571428Y-90535771D02*
X123666666Y-90583390D01*
X123666666Y-90583390D02*
X123714285Y-90631009D01*
X123714285Y-90631009D02*
X123761904Y-90726247D01*
X123761904Y-90726247D02*
X123761904Y-90964342D01*
X123761904Y-90964342D02*
X123714285Y-91059580D01*
X123714285Y-91059580D02*
X123666666Y-91107200D01*
X123666666Y-91107200D02*
X123571428Y-91154819D01*
X123571428Y-91154819D02*
X123285714Y-91154819D01*
X123285714Y-91154819D02*
X123190476Y-91107200D01*
X123190476Y-91107200D02*
X123142857Y-91059580D01*
X171164819Y-73933333D02*
X171879104Y-73933333D01*
X171879104Y-73933333D02*
X172021961Y-73980952D01*
X172021961Y-73980952D02*
X172117200Y-74076190D01*
X172117200Y-74076190D02*
X172164819Y-74219047D01*
X172164819Y-74219047D02*
X172164819Y-74314285D01*
X171498152Y-73028571D02*
X172164819Y-73028571D01*
X171117200Y-73266666D02*
X171831485Y-73504761D01*
X171831485Y-73504761D02*
X171831485Y-72885714D01*
X148754819Y-106542857D02*
X148278628Y-106876190D01*
X148754819Y-107114285D02*
X147754819Y-107114285D01*
X147754819Y-107114285D02*
X147754819Y-106733333D01*
X147754819Y-106733333D02*
X147802438Y-106638095D01*
X147802438Y-106638095D02*
X147850057Y-106590476D01*
X147850057Y-106590476D02*
X147945295Y-106542857D01*
X147945295Y-106542857D02*
X148088152Y-106542857D01*
X148088152Y-106542857D02*
X148183390Y-106590476D01*
X148183390Y-106590476D02*
X148231009Y-106638095D01*
X148231009Y-106638095D02*
X148278628Y-106733333D01*
X148278628Y-106733333D02*
X148278628Y-107114285D01*
X148754819Y-105590476D02*
X148754819Y-106161904D01*
X148754819Y-105876190D02*
X147754819Y-105876190D01*
X147754819Y-105876190D02*
X147897676Y-105971428D01*
X147897676Y-105971428D02*
X147992914Y-106066666D01*
X147992914Y-106066666D02*
X148040533Y-106161904D01*
X147754819Y-104733333D02*
X147754819Y-104923809D01*
X147754819Y-104923809D02*
X147802438Y-105019047D01*
X147802438Y-105019047D02*
X147850057Y-105066666D01*
X147850057Y-105066666D02*
X147992914Y-105161904D01*
X147992914Y-105161904D02*
X148183390Y-105209523D01*
X148183390Y-105209523D02*
X148564342Y-105209523D01*
X148564342Y-105209523D02*
X148659580Y-105161904D01*
X148659580Y-105161904D02*
X148707200Y-105114285D01*
X148707200Y-105114285D02*
X148754819Y-105019047D01*
X148754819Y-105019047D02*
X148754819Y-104828571D01*
X148754819Y-104828571D02*
X148707200Y-104733333D01*
X148707200Y-104733333D02*
X148659580Y-104685714D01*
X148659580Y-104685714D02*
X148564342Y-104638095D01*
X148564342Y-104638095D02*
X148326247Y-104638095D01*
X148326247Y-104638095D02*
X148231009Y-104685714D01*
X148231009Y-104685714D02*
X148183390Y-104733333D01*
X148183390Y-104733333D02*
X148135771Y-104828571D01*
X148135771Y-104828571D02*
X148135771Y-105019047D01*
X148135771Y-105019047D02*
X148183390Y-105114285D01*
X148183390Y-105114285D02*
X148231009Y-105161904D01*
X148231009Y-105161904D02*
X148326247Y-105209523D01*
X155254819Y-108242857D02*
X154778628Y-108576190D01*
X155254819Y-108814285D02*
X154254819Y-108814285D01*
X154254819Y-108814285D02*
X154254819Y-108433333D01*
X154254819Y-108433333D02*
X154302438Y-108338095D01*
X154302438Y-108338095D02*
X154350057Y-108290476D01*
X154350057Y-108290476D02*
X154445295Y-108242857D01*
X154445295Y-108242857D02*
X154588152Y-108242857D01*
X154588152Y-108242857D02*
X154683390Y-108290476D01*
X154683390Y-108290476D02*
X154731009Y-108338095D01*
X154731009Y-108338095D02*
X154778628Y-108433333D01*
X154778628Y-108433333D02*
X154778628Y-108814285D01*
X155254819Y-107290476D02*
X155254819Y-107861904D01*
X155254819Y-107576190D02*
X154254819Y-107576190D01*
X154254819Y-107576190D02*
X154397676Y-107671428D01*
X154397676Y-107671428D02*
X154492914Y-107766666D01*
X154492914Y-107766666D02*
X154540533Y-107861904D01*
X154254819Y-106957142D02*
X154254819Y-106290476D01*
X154254819Y-106290476D02*
X155254819Y-106719047D01*
X155557142Y-78124819D02*
X155223809Y-77648628D01*
X154985714Y-78124819D02*
X154985714Y-77124819D01*
X154985714Y-77124819D02*
X155366666Y-77124819D01*
X155366666Y-77124819D02*
X155461904Y-77172438D01*
X155461904Y-77172438D02*
X155509523Y-77220057D01*
X155509523Y-77220057D02*
X155557142Y-77315295D01*
X155557142Y-77315295D02*
X155557142Y-77458152D01*
X155557142Y-77458152D02*
X155509523Y-77553390D01*
X155509523Y-77553390D02*
X155461904Y-77601009D01*
X155461904Y-77601009D02*
X155366666Y-77648628D01*
X155366666Y-77648628D02*
X154985714Y-77648628D01*
X155938095Y-77220057D02*
X155985714Y-77172438D01*
X155985714Y-77172438D02*
X156080952Y-77124819D01*
X156080952Y-77124819D02*
X156319047Y-77124819D01*
X156319047Y-77124819D02*
X156414285Y-77172438D01*
X156414285Y-77172438D02*
X156461904Y-77220057D01*
X156461904Y-77220057D02*
X156509523Y-77315295D01*
X156509523Y-77315295D02*
X156509523Y-77410533D01*
X156509523Y-77410533D02*
X156461904Y-77553390D01*
X156461904Y-77553390D02*
X155890476Y-78124819D01*
X155890476Y-78124819D02*
X156509523Y-78124819D01*
X157461904Y-78124819D02*
X156890476Y-78124819D01*
X157176190Y-78124819D02*
X157176190Y-77124819D01*
X157176190Y-77124819D02*
X157080952Y-77267676D01*
X157080952Y-77267676D02*
X156985714Y-77362914D01*
X156985714Y-77362914D02*
X156890476Y-77410533D01*
X148154819Y-101716666D02*
X147678628Y-102049999D01*
X148154819Y-102288094D02*
X147154819Y-102288094D01*
X147154819Y-102288094D02*
X147154819Y-101907142D01*
X147154819Y-101907142D02*
X147202438Y-101811904D01*
X147202438Y-101811904D02*
X147250057Y-101764285D01*
X147250057Y-101764285D02*
X147345295Y-101716666D01*
X147345295Y-101716666D02*
X147488152Y-101716666D01*
X147488152Y-101716666D02*
X147583390Y-101764285D01*
X147583390Y-101764285D02*
X147631009Y-101811904D01*
X147631009Y-101811904D02*
X147678628Y-101907142D01*
X147678628Y-101907142D02*
X147678628Y-102288094D01*
X147154819Y-100859523D02*
X147154819Y-101049999D01*
X147154819Y-101049999D02*
X147202438Y-101145237D01*
X147202438Y-101145237D02*
X147250057Y-101192856D01*
X147250057Y-101192856D02*
X147392914Y-101288094D01*
X147392914Y-101288094D02*
X147583390Y-101335713D01*
X147583390Y-101335713D02*
X147964342Y-101335713D01*
X147964342Y-101335713D02*
X148059580Y-101288094D01*
X148059580Y-101288094D02*
X148107200Y-101240475D01*
X148107200Y-101240475D02*
X148154819Y-101145237D01*
X148154819Y-101145237D02*
X148154819Y-100954761D01*
X148154819Y-100954761D02*
X148107200Y-100859523D01*
X148107200Y-100859523D02*
X148059580Y-100811904D01*
X148059580Y-100811904D02*
X147964342Y-100764285D01*
X147964342Y-100764285D02*
X147726247Y-100764285D01*
X147726247Y-100764285D02*
X147631009Y-100811904D01*
X147631009Y-100811904D02*
X147583390Y-100859523D01*
X147583390Y-100859523D02*
X147535771Y-100954761D01*
X147535771Y-100954761D02*
X147535771Y-101145237D01*
X147535771Y-101145237D02*
X147583390Y-101240475D01*
X147583390Y-101240475D02*
X147631009Y-101288094D01*
X147631009Y-101288094D02*
X147726247Y-101335713D01*
D12*
%TO.C,U1*%
X146240000Y-85940000D02*
X146240000Y-86390000D01*
X146240000Y-86390000D02*
X144950000Y-86390000D01*
X146240000Y-93160000D02*
X146240000Y-92710000D01*
X146690000Y-85940000D02*
X146240000Y-85940000D01*
X146690000Y-93160000D02*
X146240000Y-93160000D01*
X153010000Y-85940000D02*
X153460000Y-85940000D01*
X153010000Y-93160000D02*
X153460000Y-93160000D01*
X153460000Y-85940000D02*
X153460000Y-86390000D01*
X153460000Y-93160000D02*
X153460000Y-92710000D01*
%TO.C,R1*%
X149577500Y-80537258D02*
X149577500Y-80062742D01*
X150622500Y-80537258D02*
X150622500Y-80062742D01*
%TO.C,C16*%
X153940580Y-102610000D02*
X153659420Y-102610000D01*
X153940580Y-101590000D02*
X153659420Y-101590000D01*
%TO.C,R26*%
X150777500Y-72837258D02*
X150777500Y-72362742D01*
X151822500Y-72837258D02*
X151822500Y-72362742D01*
%TO.C,BOOT0*%
X153750000Y-77900000D02*
G75*
G03*
X151850000Y-77900000I-950000J0D01*
G01*
X151850000Y-77900000D02*
G75*
G03*
X153750000Y-77900000I950000J0D01*
G01*
%TO.C,R11*%
X162577500Y-96637258D02*
X162577500Y-96162742D01*
X163622500Y-96637258D02*
X163622500Y-96162742D01*
%TO.C,R19*%
X174937258Y-82135000D02*
X174462742Y-82135000D01*
X174937258Y-81090000D02*
X174462742Y-81090000D01*
%TO.C,R4*%
X144722500Y-98662742D02*
X144722500Y-99137258D01*
X143677500Y-98662742D02*
X143677500Y-99137258D01*
%TO.C,C4*%
X154559420Y-95490000D02*
X154840580Y-95490000D01*
X154559420Y-96510000D02*
X154840580Y-96510000D01*
D11*
%TO.C,U2*%
X144941421Y-107200000D02*
G75*
G03*
X144658579Y-107200000I-141421J0D01*
G01*
X144658579Y-107200000D02*
G75*
G03*
X144941421Y-107200000I141421J0D01*
G01*
D12*
%TO.C,R9*%
X148222500Y-81362742D02*
X148222500Y-81837258D01*
X147177500Y-81362742D02*
X147177500Y-81837258D01*
D11*
%TO.C,U4*%
X127460000Y-63715000D02*
X127460000Y-65375000D01*
X127460000Y-65375000D02*
X172540000Y-65395000D01*
X128820000Y-51715000D02*
X128830000Y-63715000D01*
X128830000Y-63715000D02*
X127460000Y-63715000D01*
X144870000Y-51705000D02*
X128820000Y-51715000D01*
X144880000Y-63705000D02*
X144870000Y-51705000D01*
X155120000Y-51685000D02*
X155140000Y-63695000D01*
X155140000Y-63695000D02*
X144880000Y-63705000D01*
X171210000Y-51675000D02*
X155120000Y-51685000D01*
X171210000Y-63675000D02*
X171210000Y-51675000D01*
X172530000Y-63675000D02*
X171210000Y-63675000D01*
X172540000Y-65395000D02*
X172530000Y-63675000D01*
D12*
%TO.C,C5*%
X142040580Y-90610000D02*
X141759420Y-90610000D01*
X142040580Y-89590000D02*
X141759420Y-89590000D01*
%TO.C,J2*%
X191180000Y-94370000D02*
X191180000Y-95700000D01*
X189850000Y-94370000D02*
X191180000Y-94370000D01*
X188580000Y-94370000D02*
X175820000Y-94370000D01*
X188580000Y-94370000D02*
X188580000Y-97030000D01*
X175820000Y-94370000D02*
X175820000Y-97030000D01*
X188580000Y-97030000D02*
X175820000Y-97030000D01*
%TO.C,C21*%
X177590000Y-87640580D02*
X177590000Y-87359420D01*
X178610000Y-87640580D02*
X178610000Y-87359420D01*
%TO.C,J5*%
X152600000Y-133445000D02*
X152600000Y-134775000D01*
X151270000Y-133445000D02*
X152600000Y-133445000D01*
X150000000Y-133445000D02*
X147400000Y-133445000D01*
X150000000Y-133445000D02*
X150000000Y-136105000D01*
X147400000Y-133445000D02*
X147400000Y-136105000D01*
X150000000Y-136105000D02*
X147400000Y-136105000D01*
%TO.C,R24*%
X180862742Y-90377500D02*
X181337258Y-90377500D01*
X180862742Y-91422500D02*
X181337258Y-91422500D01*
%TO.C,C3*%
X142140580Y-86510000D02*
X141859420Y-86510000D01*
X142140580Y-85490000D02*
X141859420Y-85490000D01*
%TO.C,R22*%
X179862742Y-92177500D02*
X180337258Y-92177500D01*
X179862742Y-93222500D02*
X180337258Y-93222500D01*
%TO.C,R18*%
X153422500Y-104362742D02*
X153422500Y-104837258D01*
X152377500Y-104362742D02*
X152377500Y-104837258D01*
%TO.C,C7*%
X187790000Y-92140580D02*
X187790000Y-91859420D01*
X188810000Y-92140580D02*
X188810000Y-91859420D01*
%TO.C,R8*%
X156437258Y-81422500D02*
X155962742Y-81422500D01*
X156437258Y-80377500D02*
X155962742Y-80377500D01*
%TO.C,Rsense1*%
X132277064Y-99410000D02*
X127922936Y-99410000D01*
X132277064Y-95990000D02*
X127922936Y-95990000D01*
%TO.C,R2*%
X141422500Y-95162742D02*
X141422500Y-95637258D01*
X140377500Y-95162742D02*
X140377500Y-95637258D01*
%TO.C,R10*%
X160277500Y-98237258D02*
X160277500Y-97762742D01*
X161322500Y-98237258D02*
X161322500Y-97762742D01*
%TO.C,C22*%
X174559420Y-83302500D02*
X174840580Y-83302500D01*
X174559420Y-84322500D02*
X174840580Y-84322500D01*
%TO.C,C15*%
X149490000Y-103040580D02*
X149490000Y-102759420D01*
X150510000Y-103040580D02*
X150510000Y-102759420D01*
%TO.C,R3*%
X142822500Y-98662742D02*
X142822500Y-99137258D01*
X141777500Y-98662742D02*
X141777500Y-99137258D01*
%TO.C,C2*%
X144490000Y-82940580D02*
X144490000Y-82659420D01*
X145510000Y-82940580D02*
X145510000Y-82659420D01*
%TO.C,C20*%
X154459420Y-71290000D02*
X154740580Y-71290000D01*
X154459420Y-72310000D02*
X154740580Y-72310000D01*
%TO.C,C1*%
X142040580Y-88810000D02*
X141759420Y-88810000D01*
X142040580Y-87790000D02*
X141759420Y-87790000D01*
%TO.C,R5*%
X146422500Y-98662742D02*
X146422500Y-99137258D01*
X145377500Y-98662742D02*
X145377500Y-99137258D01*
%TO.C,C9*%
X110190000Y-89840580D02*
X110190000Y-89559420D01*
X111210000Y-89840580D02*
X111210000Y-89559420D01*
%TO.C,C8*%
X164390000Y-94940580D02*
X164390000Y-94659420D01*
X165410000Y-94940580D02*
X165410000Y-94659420D01*
%TO.C,Rsense2*%
X167822936Y-99890000D02*
X172177064Y-99890000D01*
X167822936Y-103310000D02*
X172177064Y-103310000D01*
%TO.C,J1*%
X162130000Y-88140000D02*
X161000000Y-88140000D01*
X162130000Y-87380000D02*
X162130000Y-88140000D01*
X162130000Y-86620000D02*
X162130000Y-81605000D01*
X162130000Y-86620000D02*
X161563471Y-86620000D01*
X162130000Y-81605000D02*
X161307530Y-81605000D01*
X160692470Y-81605000D02*
X160037530Y-81605000D01*
X160436529Y-86620000D02*
X160293471Y-86620000D01*
X160240000Y-88075000D02*
X160037530Y-88075000D01*
X160240000Y-87943471D02*
X160240000Y-88075000D01*
X160240000Y-86673471D02*
X160240000Y-86816529D01*
X159422470Y-88075000D02*
X158600000Y-88075000D01*
X159422470Y-81605000D02*
X158600000Y-81605000D01*
X158600000Y-88075000D02*
X158600000Y-81605000D01*
%TO.C,R25*%
X119457258Y-88622500D02*
X118982742Y-88622500D01*
X119457258Y-87577500D02*
X118982742Y-87577500D01*
%TO.C,J3*%
X109370000Y-94630000D02*
X109370000Y-93300000D01*
X110700000Y-94630000D02*
X109370000Y-94630000D01*
X111970000Y-94630000D02*
X124730000Y-94630000D01*
X111970000Y-94630000D02*
X111970000Y-91970000D01*
X124730000Y-94630000D02*
X124730000Y-91970000D01*
X111970000Y-91970000D02*
X124730000Y-91970000D01*
%TO.C,U3*%
X173340000Y-87112500D02*
X173340000Y-88912500D01*
X173340000Y-87112500D02*
X173340000Y-86312500D01*
X176460000Y-87112500D02*
X176460000Y-87912500D01*
X176460000Y-87112500D02*
X176460000Y-86312500D01*
%TO.C,C6*%
X142390000Y-82940580D02*
X142390000Y-82659420D01*
X143410000Y-82940580D02*
X143410000Y-82659420D01*
%TO.C,D1*%
X178065000Y-83897500D02*
X179535000Y-83897500D01*
X179535000Y-83897500D02*
X179535000Y-81612500D01*
X178065000Y-81612500D02*
X178065000Y-83897500D01*
%TO.C,R23*%
X119357258Y-91122500D02*
X118882742Y-91122500D01*
X119357258Y-90077500D02*
X118882742Y-90077500D01*
%TO.C,J4*%
X170710000Y-72270000D02*
X170710000Y-73600000D01*
X169380000Y-72270000D02*
X170710000Y-72270000D01*
X168110000Y-72270000D02*
X160430000Y-72270000D01*
X168110000Y-72270000D02*
X168110000Y-74930000D01*
X160430000Y-72270000D02*
X160430000Y-74930000D01*
X168110000Y-74930000D02*
X160430000Y-74930000D01*
%TO.C,R16*%
X148822500Y-102662742D02*
X148822500Y-103137258D01*
X147777500Y-102662742D02*
X147777500Y-103137258D01*
%TO.C,R17*%
X155222500Y-104362742D02*
X155222500Y-104837258D01*
X154177500Y-104362742D02*
X154177500Y-104837258D01*
%TO.C,R21*%
X155962742Y-78577500D02*
X156437258Y-78577500D01*
X155962742Y-79622500D02*
X156437258Y-79622500D01*
%TO.C,R6*%
X147177500Y-99137258D02*
X147177500Y-98662742D01*
X148222500Y-99137258D02*
X148222500Y-98662742D01*
%TD*%
M02*
