%TF.GenerationSoftware,KiCad,Pcbnew,7.0.10*%
%TF.CreationDate,2024-01-31T17:42:11+01:00*%
%TF.ProjectId,minimouse,6d696e69-6d6f-4757-9365-2e6b69636164,rev?*%
%TF.SameCoordinates,Original*%
%TF.FileFunction,Copper,L2,Bot*%
%TF.FilePolarity,Positive*%
%FSLAX46Y46*%
G04 Gerber Fmt 4.6, Leading zero omitted, Abs format (unit mm)*
G04 Created by KiCad (PCBNEW 7.0.10) date 2024-01-31 17:42:11*
%MOMM*%
%LPD*%
G01*
G04 APERTURE LIST*
%TA.AperFunction,ComponentPad*%
%ADD10R,1.700000X1.700000*%
%TD*%
%TA.AperFunction,ComponentPad*%
%ADD11O,1.700000X1.700000*%
%TD*%
%TA.AperFunction,ComponentPad*%
%ADD12R,1.000000X1.000000*%
%TD*%
%TA.AperFunction,ComponentPad*%
%ADD13O,1.000000X1.000000*%
%TD*%
%TA.AperFunction,ViaPad*%
%ADD14C,0.500000*%
%TD*%
%TA.AperFunction,Conductor*%
%ADD15C,0.800000*%
%TD*%
%TA.AperFunction,Conductor*%
%ADD16C,0.200000*%
%TD*%
G04 APERTURE END LIST*
D10*
%TO.P,U4,1,GND*%
%TO.N,GND*%
X146190000Y-69125000D03*
D11*
%TO.P,U4,2,TRIG*%
%TO.N,/mcu/OUT_B9*%
X148730000Y-69125000D03*
%TO.P,U4,3,ECHO*%
%TO.N,Net-(U4-ECHO)*%
X151270000Y-69125000D03*
%TO.P,U4,4,VCC*%
%TO.N,+3.3V*%
X153810000Y-69125000D03*
%TD*%
D10*
%TO.P,J2,1,Pin_1*%
%TO.N,/motorA/MB*%
X189850000Y-95700000D03*
D11*
%TO.P,J2,2,Pin_2*%
%TO.N,+BATT*%
X187310000Y-95700000D03*
%TO.P,J2,3,Pin_3*%
%TO.N,Net-(J2-Pin_3)*%
X184770000Y-95700000D03*
%TO.P,J2,4,Pin_4*%
%TO.N,Net-(J2-Pin_4)*%
X182230000Y-95700000D03*
%TO.P,J2,5,Pin_5*%
%TO.N,GND*%
X179690000Y-95700000D03*
%TO.P,J2,6,Pin_6*%
%TO.N,/motorA/MA*%
X177150000Y-95700000D03*
%TD*%
D10*
%TO.P,J5,1,Pin_1*%
%TO.N,GND*%
X151270000Y-134775000D03*
D11*
%TO.P,J5,2,Pin_2*%
%TO.N,+BATT*%
X148730000Y-134775000D03*
%TD*%
D12*
%TO.P,J1,1,VTref*%
%TO.N,+3.3V*%
X161000000Y-87380000D03*
D13*
%TO.P,J1,2,SWDIO/TMS*%
%TO.N,/mcu/SWDIO*%
X159730000Y-87380000D03*
%TO.P,J1,3,GND*%
%TO.N,GND*%
X161000000Y-86110000D03*
%TO.P,J1,4,SWDCLK/TCK*%
%TO.N,/mcu/SWDCLK*%
X159730000Y-86110000D03*
%TO.P,J1,5,GND*%
%TO.N,GND*%
X161000000Y-84840000D03*
%TO.P,J1,6,SWO/TDO*%
%TO.N,/mcu/SWO*%
X159730000Y-84840000D03*
%TO.P,J1,7,KEY*%
%TO.N,unconnected-(J1-KEY-Pad7)*%
X161000000Y-83570000D03*
%TO.P,J1,8,NC/TDI*%
%TO.N,unconnected-(J1-NC{slash}TDI-Pad8)*%
X159730000Y-83570000D03*
%TO.P,J1,9,GNDDetect*%
%TO.N,GND*%
X161000000Y-82300000D03*
%TO.P,J1,10,~{RESET}*%
%TO.N,/mcu/~{RESET}*%
X159730000Y-82300000D03*
%TD*%
D10*
%TO.P,J3,1,Pin_1*%
%TO.N,/motorB/MB*%
X110700000Y-93300000D03*
D11*
%TO.P,J3,2,Pin_2*%
%TO.N,+BATT*%
X113240000Y-93300000D03*
%TO.P,J3,3,Pin_3*%
%TO.N,Net-(J3-Pin_3)*%
X115780000Y-93300000D03*
%TO.P,J3,4,Pin_4*%
%TO.N,Net-(J3-Pin_4)*%
X118320000Y-93300000D03*
%TO.P,J3,5,Pin_5*%
%TO.N,GND*%
X120860000Y-93300000D03*
%TO.P,J3,6,Pin_6*%
%TO.N,/motorB/MA*%
X123400000Y-93300000D03*
%TD*%
D10*
%TO.P,J4,1,Pin_1*%
%TO.N,GND*%
X169380000Y-73600000D03*
D11*
%TO.P,J4,2,Pin_2*%
%TO.N,+BATT*%
X166840000Y-73600000D03*
%TO.P,J4,3,Pin_3*%
%TO.N,Net-(J4-Pin_3)*%
X164300000Y-73600000D03*
%TO.P,J4,4,Pin_4*%
%TO.N,/external_uart/EXT_UART_RX*%
X161760000Y-73600000D03*
%TD*%
D14*
%TO.N,GND*%
X128600000Y-95300000D03*
X124500000Y-96000000D03*
X193400000Y-98500000D03*
X107300000Y-98400000D03*
X123700000Y-73600000D03*
X175500000Y-67700000D03*
X186300000Y-78500000D03*
X146900000Y-110500000D03*
X149600000Y-100700000D03*
X145200000Y-103000000D03*
%TO.N,/mcu/OUT_A4*%
X144200000Y-102200000D03*
X144200000Y-104500000D03*
%TO.N,+3.3V*%
X158600000Y-76600000D03*
%TO.N,GND*%
X152800000Y-82800000D03*
X155200000Y-77300000D03*
X160700000Y-76000000D03*
X144500000Y-75200000D03*
X180300000Y-85100000D03*
X183300000Y-93400000D03*
X171700000Y-95200000D03*
%TO.N,+BATT*%
X167100000Y-96500000D03*
X163450000Y-106100000D03*
%TO.N,/mcu/TIM2_CH1*%
X122000000Y-88800000D03*
X123300000Y-87100000D03*
%TO.N,GND*%
X179500000Y-104700000D03*
X148700000Y-112900000D03*
X159700000Y-101500000D03*
X162600000Y-98800000D03*
X176400000Y-99300000D03*
X150800000Y-87300000D03*
X151600000Y-90900000D03*
%TO.N,+3.3V*%
X161600000Y-79700000D03*
%TO.N,GND*%
X145000000Y-85300000D03*
X156800000Y-90200000D03*
X149500000Y-91300000D03*
X145209751Y-94060344D03*
X154900000Y-85400000D03*
X120700000Y-85300000D03*
X157400000Y-83400000D03*
X174900000Y-87112500D03*
X164400000Y-84200000D03*
X136300000Y-87800000D03*
X177500000Y-84800000D03*
X138600000Y-94800000D03*
X137800000Y-72800000D03*
X120400000Y-102600000D03*
X153600000Y-100100000D03*
X152100000Y-95800000D03*
X149800000Y-73400000D03*
X166900000Y-79500000D03*
X168400000Y-89900000D03*
X186300000Y-85400000D03*
X147400000Y-83600000D03*
X177300000Y-76800000D03*
X148800000Y-88000000D03*
X144000000Y-89100000D03*
%TO.N,/mcu/TIM3_CH1*%
X147850000Y-96700000D03*
X150400000Y-98300000D03*
%TO.N,/mcu/TIM3_CH2*%
X151100000Y-97500000D03*
X148772571Y-96472571D03*
%TO.N,/mcu/~{RESET}*%
X152200000Y-88300000D03*
X154200000Y-82900000D03*
%TD*%
D15*
%TO.N,+BATT*%
X167100000Y-102400000D02*
X167100000Y-96500000D01*
X163450000Y-106100000D02*
X163450000Y-106050000D01*
X163450000Y-106050000D02*
X167100000Y-102400000D01*
D16*
%TO.N,/mcu/TIM3_CH2*%
X149800000Y-97500000D02*
X151100000Y-97500000D01*
X148772571Y-96472571D02*
X149800000Y-97500000D01*
%TO.N,/mcu/TIM2_CH1*%
X122000000Y-87900000D02*
X122000000Y-88800000D01*
X122800000Y-87100000D02*
X122000000Y-87900000D01*
X123300000Y-87100000D02*
X122800000Y-87100000D01*
%TO.N,/mcu/TIM3_CH1*%
X150400000Y-98300000D02*
X149450000Y-98300000D01*
X149450000Y-98300000D02*
X147850000Y-96700000D01*
%TO.N,/mcu/OUT_A4*%
X144200000Y-102200000D02*
X144200000Y-104500000D01*
D15*
%TO.N,+3.3V*%
X161600000Y-79600000D02*
X158600000Y-76600000D01*
X161600000Y-79700000D02*
X161600000Y-79600000D01*
D16*
%TO.N,/mcu/~{RESET}*%
X152200000Y-84900000D02*
X154200000Y-82900000D01*
X152200000Y-88300000D02*
X152200000Y-84900000D01*
%TD*%
%TA.AperFunction,Conductor*%
%TO.N,GND*%
G36*
X150306953Y-55005048D02*
G01*
X151032439Y-55015800D01*
X151034176Y-55015839D01*
X151644166Y-55034096D01*
X151645967Y-55034163D01*
X152370781Y-55066406D01*
X152372579Y-55066500D01*
X152981848Y-55103002D01*
X152983360Y-55103103D01*
X153707123Y-55156828D01*
X153708997Y-55156982D01*
X154316751Y-55211681D01*
X154318355Y-55211837D01*
X155040292Y-55286995D01*
X155041912Y-55287176D01*
X155647927Y-55360052D01*
X155649151Y-55360208D01*
X156368836Y-55456765D01*
X156370725Y-55457034D01*
X156973954Y-55547956D01*
X156975088Y-55548135D01*
X157691876Y-55666022D01*
X157693723Y-55666342D01*
X158293625Y-55775208D01*
X158295027Y-55775472D01*
X159008028Y-55914553D01*
X159009930Y-55914941D01*
X159606013Y-56041642D01*
X159607447Y-56041956D01*
X160316267Y-56202162D01*
X160318181Y-56202611D01*
X160910007Y-56347039D01*
X160911185Y-56347335D01*
X161615427Y-56528598D01*
X161617323Y-56529104D01*
X162204033Y-56691026D01*
X162205485Y-56691436D01*
X162904208Y-56893536D01*
X162906153Y-56894117D01*
X163487528Y-57073447D01*
X163488686Y-57073812D01*
X164181663Y-57296706D01*
X164183503Y-57297316D01*
X164758969Y-57493861D01*
X164759938Y-57494199D01*
X165446438Y-57737682D01*
X165448493Y-57738432D01*
X165752469Y-57852516D01*
X166016952Y-57951779D01*
X166018276Y-57952284D01*
X166181727Y-58015768D01*
X166697696Y-58216173D01*
X166699652Y-58216954D01*
X167261219Y-58447106D01*
X167262195Y-58447513D01*
X167933994Y-58731631D01*
X167936027Y-58732513D01*
X168489899Y-58979113D01*
X168490893Y-58979562D01*
X169154526Y-59283714D01*
X169156530Y-59284656D01*
X169702200Y-59547436D01*
X169703124Y-59547888D01*
X170300390Y-59843345D01*
X170357993Y-59871840D01*
X170360132Y-59872923D01*
X170896969Y-60151532D01*
X170897931Y-60152039D01*
X171543503Y-60495568D01*
X171545612Y-60496716D01*
X172073266Y-60790921D01*
X172073997Y-60791333D01*
X172709941Y-61154320D01*
X172712071Y-61155564D01*
X173229753Y-61464864D01*
X173230718Y-61465447D01*
X173437511Y-61591749D01*
X173856292Y-61847526D01*
X173858415Y-61848852D01*
X174365646Y-62172884D01*
X174366631Y-62173519D01*
X174981462Y-62574524D01*
X174983573Y-62575932D01*
X175480155Y-62914496D01*
X175481091Y-62915141D01*
X176084530Y-63334718D01*
X176086627Y-63336209D01*
X176571850Y-63688744D01*
X176572739Y-63689396D01*
X177164450Y-64127390D01*
X177166516Y-64128953D01*
X177640191Y-64495239D01*
X177640803Y-64495717D01*
X178220362Y-64951908D01*
X178222310Y-64953474D01*
X178658787Y-65312366D01*
X178683695Y-65332846D01*
X178684490Y-65333505D01*
X179251206Y-65807449D01*
X179253241Y-65809189D01*
X179701870Y-66201144D01*
X179702619Y-66201803D01*
X180256146Y-66693312D01*
X180258106Y-66695092D01*
X180628151Y-67038443D01*
X180693751Y-67099311D01*
X180694453Y-67099968D01*
X181234250Y-67608680D01*
X181236229Y-67610586D01*
X181658385Y-68026473D01*
X181659043Y-68027127D01*
X182184707Y-68552791D01*
X182186652Y-68554780D01*
X182594921Y-68981795D01*
X182595396Y-68982296D01*
X182927643Y-69334844D01*
X183106649Y-69524788D01*
X183108558Y-69526860D01*
X183502353Y-69964213D01*
X183502925Y-69964852D01*
X183999300Y-70523859D01*
X184001169Y-70526014D01*
X184380161Y-70973132D01*
X184380688Y-70973758D01*
X184861778Y-71549018D01*
X184863545Y-71551182D01*
X185197611Y-71970088D01*
X185227572Y-72007658D01*
X185228061Y-72008276D01*
X185693317Y-72599352D01*
X185695098Y-72601669D01*
X186043613Y-73066571D01*
X186044062Y-73067175D01*
X186493267Y-73674033D01*
X186494998Y-73676430D01*
X186827641Y-74148980D01*
X186828052Y-74149568D01*
X187051823Y-74471396D01*
X187205276Y-74692093D01*
X187260885Y-74772069D01*
X187262549Y-74774526D01*
X187378379Y-74950000D01*
X187578922Y-75253810D01*
X187579297Y-75254380D01*
X187995477Y-75892478D01*
X187997099Y-75895034D01*
X188297080Y-76380473D01*
X188297419Y-76381025D01*
X188696353Y-77034197D01*
X188697917Y-77036830D01*
X188981163Y-77527427D01*
X188981468Y-77527958D01*
X189149852Y-77822962D01*
X189362977Y-78196353D01*
X189364449Y-78199008D01*
X189630721Y-78693827D01*
X189630993Y-78694335D01*
X189743752Y-78906236D01*
X189976783Y-79344156D01*
X189994677Y-79377782D01*
X189996114Y-79380566D01*
X190244973Y-79878146D01*
X190245214Y-79878632D01*
X190590951Y-80577541D01*
X190592319Y-80580398D01*
X190823467Y-81079340D01*
X190823680Y-81079801D01*
X191151243Y-81794513D01*
X191152539Y-81797441D01*
X191365943Y-82296725D01*
X191366128Y-82297160D01*
X191675069Y-83027655D01*
X191676291Y-83030653D01*
X191871533Y-83528120D01*
X191871692Y-83528527D01*
X192161934Y-84275793D01*
X192163079Y-84278859D01*
X192340090Y-84772843D01*
X192340225Y-84773222D01*
X192611449Y-85537937D01*
X192612513Y-85541069D01*
X192771085Y-86029102D01*
X192771198Y-86029452D01*
X193023174Y-86812848D01*
X193024155Y-86816043D01*
X193164084Y-87295005D01*
X193164176Y-87295324D01*
X193396776Y-88099496D01*
X193397670Y-88102753D01*
X193518746Y-88568522D01*
X193518821Y-88568810D01*
X193731919Y-89396737D01*
X193732724Y-89400053D01*
X193834821Y-89847364D01*
X193834879Y-89847621D01*
X194028285Y-90703339D01*
X194028998Y-90706711D01*
X194112051Y-91128361D01*
X194112095Y-91128585D01*
X194285619Y-92018165D01*
X194286238Y-92021592D01*
X194350109Y-92406214D01*
X194350140Y-92406403D01*
X194503705Y-93340117D01*
X194504227Y-93343596D01*
X194548765Y-93672391D01*
X194548786Y-93672547D01*
X194682342Y-94667999D01*
X194682764Y-94671527D01*
X194707908Y-94910760D01*
X194707902Y-94910790D01*
X194707920Y-94910880D01*
X194821363Y-96000571D01*
X194821683Y-96004144D01*
X194827430Y-96080827D01*
X194827433Y-96080916D01*
X194827437Y-96080916D01*
X194920334Y-97332391D01*
X194920551Y-97336059D01*
X194979656Y-98664676D01*
X194979765Y-98668349D01*
X194997628Y-99873662D01*
X194978939Y-99940986D01*
X194926819Y-99987519D01*
X194873642Y-99999500D01*
X181524760Y-99999500D01*
X181524554Y-99999459D01*
X181499998Y-99999459D01*
X181499807Y-99999538D01*
X181499619Y-99999615D01*
X181499615Y-99999618D01*
X181499459Y-99999999D01*
X181499476Y-100024616D01*
X181499471Y-100024616D01*
X181499500Y-100024759D01*
X181499500Y-139875500D01*
X181479815Y-139942539D01*
X181427011Y-139988294D01*
X181375500Y-139999500D01*
X118624500Y-139999500D01*
X118557461Y-139979815D01*
X118511706Y-139927011D01*
X118500500Y-139875500D01*
X118500500Y-134775000D01*
X147374341Y-134775000D01*
X147394936Y-135010403D01*
X147394938Y-135010413D01*
X147456094Y-135238655D01*
X147456096Y-135238659D01*
X147456097Y-135238663D01*
X147555965Y-135452830D01*
X147555967Y-135452834D01*
X147664281Y-135607521D01*
X147691505Y-135646401D01*
X147858599Y-135813495D01*
X147935135Y-135867086D01*
X148052165Y-135949032D01*
X148052167Y-135949033D01*
X148052170Y-135949035D01*
X148266337Y-136048903D01*
X148494592Y-136110063D01*
X148665319Y-136125000D01*
X148729999Y-136130659D01*
X148730000Y-136130659D01*
X148730001Y-136130659D01*
X148794681Y-136125000D01*
X148965408Y-136110063D01*
X149193663Y-136048903D01*
X149407830Y-135949035D01*
X149601401Y-135813495D01*
X149723717Y-135691178D01*
X149785036Y-135657696D01*
X149854728Y-135662680D01*
X149910662Y-135704551D01*
X149927577Y-135735528D01*
X149976646Y-135867088D01*
X149976649Y-135867093D01*
X150062809Y-135982187D01*
X150062812Y-135982190D01*
X150177906Y-136068350D01*
X150177913Y-136068354D01*
X150312620Y-136118596D01*
X150312627Y-136118598D01*
X150372155Y-136124999D01*
X150372172Y-136125000D01*
X151020000Y-136125000D01*
X151020000Y-135210501D01*
X151127685Y-135259680D01*
X151234237Y-135275000D01*
X151305763Y-135275000D01*
X151412315Y-135259680D01*
X151520000Y-135210501D01*
X151520000Y-136125000D01*
X152167828Y-136125000D01*
X152167844Y-136124999D01*
X152227372Y-136118598D01*
X152227379Y-136118596D01*
X152362086Y-136068354D01*
X152362093Y-136068350D01*
X152477187Y-135982190D01*
X152477190Y-135982187D01*
X152563350Y-135867093D01*
X152563354Y-135867086D01*
X152613596Y-135732379D01*
X152613598Y-135732372D01*
X152619999Y-135672844D01*
X152620000Y-135672827D01*
X152620000Y-135025000D01*
X151703686Y-135025000D01*
X151729493Y-134984844D01*
X151770000Y-134846889D01*
X151770000Y-134703111D01*
X151729493Y-134565156D01*
X151703686Y-134525000D01*
X152620000Y-134525000D01*
X152620000Y-133877172D01*
X152619999Y-133877155D01*
X152613598Y-133817627D01*
X152613596Y-133817620D01*
X152563354Y-133682913D01*
X152563350Y-133682906D01*
X152477190Y-133567812D01*
X152477187Y-133567809D01*
X152362093Y-133481649D01*
X152362086Y-133481645D01*
X152227379Y-133431403D01*
X152227372Y-133431401D01*
X152167844Y-133425000D01*
X151520000Y-133425000D01*
X151520000Y-134339498D01*
X151412315Y-134290320D01*
X151305763Y-134275000D01*
X151234237Y-134275000D01*
X151127685Y-134290320D01*
X151020000Y-134339498D01*
X151020000Y-133425000D01*
X150372155Y-133425000D01*
X150312627Y-133431401D01*
X150312620Y-133431403D01*
X150177913Y-133481645D01*
X150177906Y-133481649D01*
X150062812Y-133567809D01*
X150062809Y-133567812D01*
X149976649Y-133682906D01*
X149976645Y-133682913D01*
X149927578Y-133814470D01*
X149885707Y-133870404D01*
X149820242Y-133894821D01*
X149751969Y-133879969D01*
X149723715Y-133858819D01*
X149679366Y-133814470D01*
X149601401Y-133736505D01*
X149601397Y-133736502D01*
X149601396Y-133736501D01*
X149407834Y-133600967D01*
X149407830Y-133600965D01*
X149336727Y-133567809D01*
X149193663Y-133501097D01*
X149193659Y-133501096D01*
X149193655Y-133501094D01*
X148965413Y-133439938D01*
X148965403Y-133439936D01*
X148730001Y-133419341D01*
X148729999Y-133419341D01*
X148494596Y-133439936D01*
X148494586Y-133439938D01*
X148266344Y-133501094D01*
X148266335Y-133501098D01*
X148052171Y-133600964D01*
X148052169Y-133600965D01*
X147858597Y-133736505D01*
X147691505Y-133903597D01*
X147555965Y-134097169D01*
X147555964Y-134097171D01*
X147456098Y-134311335D01*
X147456094Y-134311344D01*
X147394938Y-134539586D01*
X147394936Y-134539596D01*
X147374341Y-134774999D01*
X147374341Y-134775000D01*
X118500500Y-134775000D01*
X118500500Y-132000001D01*
X129694532Y-132000001D01*
X129714364Y-132226686D01*
X129714366Y-132226697D01*
X129773258Y-132446488D01*
X129773261Y-132446497D01*
X129869431Y-132652732D01*
X129869432Y-132652734D01*
X129999954Y-132839141D01*
X130160858Y-133000045D01*
X130160861Y-133000047D01*
X130347266Y-133130568D01*
X130553504Y-133226739D01*
X130773308Y-133285635D01*
X130943214Y-133300499D01*
X130943215Y-133300500D01*
X130943216Y-133300500D01*
X131056785Y-133300500D01*
X131056785Y-133300499D01*
X131226692Y-133285635D01*
X131446496Y-133226739D01*
X131652734Y-133130568D01*
X131839139Y-133000047D01*
X132000047Y-132839139D01*
X132130568Y-132652734D01*
X132226739Y-132446496D01*
X132285635Y-132226692D01*
X132305468Y-132000001D01*
X167694532Y-132000001D01*
X167714364Y-132226686D01*
X167714366Y-132226697D01*
X167773258Y-132446488D01*
X167773261Y-132446497D01*
X167869431Y-132652732D01*
X167869432Y-132652734D01*
X167999954Y-132839141D01*
X168160858Y-133000045D01*
X168160861Y-133000047D01*
X168347266Y-133130568D01*
X168553504Y-133226739D01*
X168773308Y-133285635D01*
X168943214Y-133300499D01*
X168943215Y-133300500D01*
X168943216Y-133300500D01*
X169056785Y-133300500D01*
X169056785Y-133300499D01*
X169226692Y-133285635D01*
X169446496Y-133226739D01*
X169652734Y-133130568D01*
X169839139Y-133000047D01*
X170000047Y-132839139D01*
X170130568Y-132652734D01*
X170226739Y-132446496D01*
X170285635Y-132226692D01*
X170305468Y-132000000D01*
X170285635Y-131773308D01*
X170226739Y-131553504D01*
X170130568Y-131347266D01*
X170000047Y-131160861D01*
X170000045Y-131160858D01*
X169839141Y-130999954D01*
X169652734Y-130869432D01*
X169652732Y-130869431D01*
X169446497Y-130773261D01*
X169446488Y-130773258D01*
X169226697Y-130714366D01*
X169226687Y-130714364D01*
X169056785Y-130699500D01*
X169056784Y-130699500D01*
X168943216Y-130699500D01*
X168943215Y-130699500D01*
X168773312Y-130714364D01*
X168773302Y-130714366D01*
X168553511Y-130773258D01*
X168553502Y-130773261D01*
X168347267Y-130869431D01*
X168347265Y-130869432D01*
X168160858Y-130999954D01*
X167999954Y-131160858D01*
X167869432Y-131347265D01*
X167869431Y-131347267D01*
X167773261Y-131553502D01*
X167773258Y-131553511D01*
X167714366Y-131773302D01*
X167714364Y-131773313D01*
X167694532Y-131999998D01*
X167694532Y-132000001D01*
X132305468Y-132000001D01*
X132305468Y-132000000D01*
X132285635Y-131773308D01*
X132226739Y-131553504D01*
X132130568Y-131347266D01*
X132000047Y-131160861D01*
X132000045Y-131160858D01*
X131839141Y-130999954D01*
X131652734Y-130869432D01*
X131652732Y-130869431D01*
X131446497Y-130773261D01*
X131446488Y-130773258D01*
X131226697Y-130714366D01*
X131226687Y-130714364D01*
X131056785Y-130699500D01*
X131056784Y-130699500D01*
X130943216Y-130699500D01*
X130943215Y-130699500D01*
X130773312Y-130714364D01*
X130773302Y-130714366D01*
X130553511Y-130773258D01*
X130553502Y-130773261D01*
X130347267Y-130869431D01*
X130347265Y-130869432D01*
X130160858Y-130999954D01*
X129999954Y-131160858D01*
X129869432Y-131347265D01*
X129869431Y-131347267D01*
X129773261Y-131553502D01*
X129773258Y-131553511D01*
X129714366Y-131773302D01*
X129714364Y-131773313D01*
X129694532Y-131999998D01*
X129694532Y-132000001D01*
X118500500Y-132000001D01*
X118500500Y-114000001D01*
X129694532Y-114000001D01*
X129714364Y-114226686D01*
X129714366Y-114226697D01*
X129773258Y-114446488D01*
X129773261Y-114446497D01*
X129869431Y-114652732D01*
X129869432Y-114652734D01*
X129999954Y-114839141D01*
X130160858Y-115000045D01*
X130160861Y-115000047D01*
X130347266Y-115130568D01*
X130553504Y-115226739D01*
X130773308Y-115285635D01*
X130943214Y-115300499D01*
X130943215Y-115300500D01*
X130943216Y-115300500D01*
X131056785Y-115300500D01*
X131056785Y-115300499D01*
X131226692Y-115285635D01*
X131446496Y-115226739D01*
X131652734Y-115130568D01*
X131839139Y-115000047D01*
X132000047Y-114839139D01*
X132130568Y-114652734D01*
X132226739Y-114446496D01*
X132285635Y-114226692D01*
X132305468Y-114000001D01*
X167694532Y-114000001D01*
X167714364Y-114226686D01*
X167714366Y-114226697D01*
X167773258Y-114446488D01*
X167773261Y-114446497D01*
X167869431Y-114652732D01*
X167869432Y-114652734D01*
X167999954Y-114839141D01*
X168160858Y-115000045D01*
X168160861Y-115000047D01*
X168347266Y-115130568D01*
X168553504Y-115226739D01*
X168773308Y-115285635D01*
X168943214Y-115300499D01*
X168943215Y-115300500D01*
X168943216Y-115300500D01*
X169056785Y-115300500D01*
X169056785Y-115300499D01*
X169226692Y-115285635D01*
X169446496Y-115226739D01*
X169652734Y-115130568D01*
X169839139Y-115000047D01*
X170000047Y-114839139D01*
X170130568Y-114652734D01*
X170226739Y-114446496D01*
X170285635Y-114226692D01*
X170305468Y-114000000D01*
X170285635Y-113773308D01*
X170226739Y-113553504D01*
X170130568Y-113347266D01*
X170000047Y-113160861D01*
X170000045Y-113160858D01*
X169839141Y-112999954D01*
X169652734Y-112869432D01*
X169652732Y-112869431D01*
X169446497Y-112773261D01*
X169446488Y-112773258D01*
X169226697Y-112714366D01*
X169226687Y-112714364D01*
X169056785Y-112699500D01*
X169056784Y-112699500D01*
X168943216Y-112699500D01*
X168943215Y-112699500D01*
X168773312Y-112714364D01*
X168773302Y-112714366D01*
X168553511Y-112773258D01*
X168553502Y-112773261D01*
X168347267Y-112869431D01*
X168347265Y-112869432D01*
X168160858Y-112999954D01*
X167999954Y-113160858D01*
X167869432Y-113347265D01*
X167869431Y-113347267D01*
X167773261Y-113553502D01*
X167773258Y-113553511D01*
X167714366Y-113773302D01*
X167714364Y-113773313D01*
X167694532Y-113999998D01*
X167694532Y-114000001D01*
X132305468Y-114000001D01*
X132305468Y-114000000D01*
X132285635Y-113773308D01*
X132226739Y-113553504D01*
X132130568Y-113347266D01*
X132000047Y-113160861D01*
X132000045Y-113160858D01*
X131839141Y-112999954D01*
X131652734Y-112869432D01*
X131652732Y-112869431D01*
X131446497Y-112773261D01*
X131446488Y-112773258D01*
X131226697Y-112714366D01*
X131226687Y-112714364D01*
X131056785Y-112699500D01*
X131056784Y-112699500D01*
X130943216Y-112699500D01*
X130943215Y-112699500D01*
X130773312Y-112714364D01*
X130773302Y-112714366D01*
X130553511Y-112773258D01*
X130553502Y-112773261D01*
X130347267Y-112869431D01*
X130347265Y-112869432D01*
X130160858Y-112999954D01*
X129999954Y-113160858D01*
X129869432Y-113347265D01*
X129869431Y-113347267D01*
X129773261Y-113553502D01*
X129773258Y-113553511D01*
X129714366Y-113773302D01*
X129714364Y-113773313D01*
X129694532Y-113999998D01*
X129694532Y-114000001D01*
X118500500Y-114000001D01*
X118500500Y-106097387D01*
X162545781Y-106097387D01*
X162547973Y-106111225D01*
X162549500Y-106130626D01*
X162549500Y-106147192D01*
X162564326Y-106288256D01*
X162564327Y-106288259D01*
X162622818Y-106468277D01*
X162622821Y-106468284D01*
X162717467Y-106632216D01*
X162844129Y-106772888D01*
X162997265Y-106884148D01*
X162997270Y-106884151D01*
X163170192Y-106961142D01*
X163170197Y-106961144D01*
X163355354Y-107000500D01*
X163355355Y-107000500D01*
X163544644Y-107000500D01*
X163544646Y-107000500D01*
X163729803Y-106961144D01*
X163902730Y-106884151D01*
X164055871Y-106772888D01*
X164182533Y-106632216D01*
X164230721Y-106548749D01*
X164250422Y-106523075D01*
X167679742Y-103093756D01*
X167694525Y-103081130D01*
X167705871Y-103072888D01*
X167751257Y-103022480D01*
X167755711Y-103017788D01*
X167770116Y-103003384D01*
X167770116Y-103003383D01*
X167770120Y-103003380D01*
X167782956Y-102987526D01*
X167787133Y-102982635D01*
X167832533Y-102932216D01*
X167839541Y-102920076D01*
X167850559Y-102904045D01*
X167859384Y-102893149D01*
X167890195Y-102832675D01*
X167893246Y-102827056D01*
X167927179Y-102768284D01*
X167931510Y-102754951D01*
X167938955Y-102736976D01*
X167945320Y-102724487D01*
X167962874Y-102658973D01*
X167964715Y-102652759D01*
X167985674Y-102588255D01*
X167987139Y-102574317D01*
X167990687Y-102555175D01*
X167994313Y-102541645D01*
X167995044Y-102527690D01*
X167997863Y-102473880D01*
X167998366Y-102467484D01*
X168000500Y-102447192D01*
X168000500Y-102426837D01*
X168000670Y-102420347D01*
X168003410Y-102368057D01*
X168004220Y-102352611D01*
X168002027Y-102338765D01*
X168000500Y-102319366D01*
X168000500Y-96452811D01*
X168000500Y-96452808D01*
X167985674Y-96311744D01*
X167927179Y-96131716D01*
X167832533Y-95967784D01*
X167705871Y-95827112D01*
X167657706Y-95792118D01*
X167552734Y-95715851D01*
X167552729Y-95715848D01*
X167517134Y-95700000D01*
X175794341Y-95700000D01*
X175814936Y-95935403D01*
X175814938Y-95935413D01*
X175876094Y-96163655D01*
X175876096Y-96163659D01*
X175876097Y-96163663D01*
X175955801Y-96334588D01*
X175975965Y-96377830D01*
X175975967Y-96377834D01*
X176028465Y-96452808D01*
X176111505Y-96571401D01*
X176278599Y-96738495D01*
X176375384Y-96806265D01*
X176472165Y-96874032D01*
X176472167Y-96874033D01*
X176472170Y-96874035D01*
X176686337Y-96973903D01*
X176914592Y-97035063D01*
X177091034Y-97050500D01*
X177149999Y-97055659D01*
X177150000Y-97055659D01*
X177150001Y-97055659D01*
X177208966Y-97050500D01*
X177385408Y-97035063D01*
X177613663Y-96973903D01*
X177827830Y-96874035D01*
X178021401Y-96738495D01*
X178188495Y-96571401D01*
X178318730Y-96385405D01*
X178373307Y-96341781D01*
X178442805Y-96334587D01*
X178505160Y-96366110D01*
X178521879Y-96385405D01*
X178651890Y-96571078D01*
X178818917Y-96738105D01*
X179012421Y-96873600D01*
X179226507Y-96973429D01*
X179226516Y-96973433D01*
X179440000Y-97030634D01*
X179440000Y-96135501D01*
X179547685Y-96184680D01*
X179654237Y-96200000D01*
X179725763Y-96200000D01*
X179832315Y-96184680D01*
X179940000Y-96135501D01*
X179940000Y-97030633D01*
X180153483Y-96973433D01*
X180153492Y-96973429D01*
X180367578Y-96873600D01*
X180561082Y-96738105D01*
X180728105Y-96571082D01*
X180858119Y-96385405D01*
X180912696Y-96341781D01*
X180982195Y-96334588D01*
X181044549Y-96366110D01*
X181061269Y-96385405D01*
X181191505Y-96571401D01*
X181358599Y-96738495D01*
X181455384Y-96806265D01*
X181552165Y-96874032D01*
X181552167Y-96874033D01*
X181552170Y-96874035D01*
X181766337Y-96973903D01*
X181994592Y-97035063D01*
X182171034Y-97050500D01*
X182229999Y-97055659D01*
X182230000Y-97055659D01*
X182230001Y-97055659D01*
X182288966Y-97050500D01*
X182465408Y-97035063D01*
X182693663Y-96973903D01*
X182907830Y-96874035D01*
X183101401Y-96738495D01*
X183268495Y-96571401D01*
X183398425Y-96385842D01*
X183453002Y-96342217D01*
X183522500Y-96335023D01*
X183584855Y-96366546D01*
X183601575Y-96385842D01*
X183731500Y-96571395D01*
X183731505Y-96571401D01*
X183898599Y-96738495D01*
X183995384Y-96806265D01*
X184092165Y-96874032D01*
X184092167Y-96874033D01*
X184092170Y-96874035D01*
X184306337Y-96973903D01*
X184534592Y-97035063D01*
X184711034Y-97050500D01*
X184769999Y-97055659D01*
X184770000Y-97055659D01*
X184770001Y-97055659D01*
X184828966Y-97050500D01*
X185005408Y-97035063D01*
X185233663Y-96973903D01*
X185447830Y-96874035D01*
X185641401Y-96738495D01*
X185808495Y-96571401D01*
X185938425Y-96385842D01*
X185993002Y-96342217D01*
X186062500Y-96335023D01*
X186124855Y-96366546D01*
X186141575Y-96385842D01*
X186271500Y-96571395D01*
X186271505Y-96571401D01*
X186438599Y-96738495D01*
X186535384Y-96806265D01*
X186632165Y-96874032D01*
X186632167Y-96874033D01*
X186632170Y-96874035D01*
X186846337Y-96973903D01*
X187074592Y-97035063D01*
X187251034Y-97050500D01*
X187309999Y-97055659D01*
X187310000Y-97055659D01*
X187310001Y-97055659D01*
X187368966Y-97050500D01*
X187545408Y-97035063D01*
X187773663Y-96973903D01*
X187987830Y-96874035D01*
X188181401Y-96738495D01*
X188303329Y-96616566D01*
X188364648Y-96583084D01*
X188434340Y-96588068D01*
X188490274Y-96629939D01*
X188507189Y-96660917D01*
X188556202Y-96792328D01*
X188556206Y-96792335D01*
X188642452Y-96907544D01*
X188642455Y-96907547D01*
X188757664Y-96993793D01*
X188757671Y-96993797D01*
X188892517Y-97044091D01*
X188892516Y-97044091D01*
X188899444Y-97044835D01*
X188952127Y-97050500D01*
X190747872Y-97050499D01*
X190807483Y-97044091D01*
X190942331Y-96993796D01*
X191057546Y-96907546D01*
X191143796Y-96792331D01*
X191194091Y-96657483D01*
X191200500Y-96597873D01*
X191200499Y-94802128D01*
X191194091Y-94742517D01*
X191192810Y-94739083D01*
X191143797Y-94607671D01*
X191143793Y-94607664D01*
X191057547Y-94492455D01*
X191057544Y-94492452D01*
X190942335Y-94406206D01*
X190942328Y-94406202D01*
X190807482Y-94355908D01*
X190807483Y-94355908D01*
X190747883Y-94349501D01*
X190747881Y-94349500D01*
X190747873Y-94349500D01*
X190747864Y-94349500D01*
X188952129Y-94349500D01*
X188952123Y-94349501D01*
X188892516Y-94355908D01*
X188757671Y-94406202D01*
X188757664Y-94406206D01*
X188642455Y-94492452D01*
X188642452Y-94492455D01*
X188556206Y-94607664D01*
X188556203Y-94607669D01*
X188507189Y-94739083D01*
X188465317Y-94795016D01*
X188399853Y-94819433D01*
X188331580Y-94804581D01*
X188303326Y-94783430D01*
X188181402Y-94661506D01*
X188181395Y-94661501D01*
X187987834Y-94525967D01*
X187987830Y-94525965D01*
X187987828Y-94525964D01*
X187773663Y-94426097D01*
X187773659Y-94426096D01*
X187773655Y-94426094D01*
X187545413Y-94364938D01*
X187545403Y-94364936D01*
X187310001Y-94344341D01*
X187309999Y-94344341D01*
X187074596Y-94364936D01*
X187074586Y-94364938D01*
X186846344Y-94426094D01*
X186846335Y-94426098D01*
X186632171Y-94525964D01*
X186632169Y-94525965D01*
X186438597Y-94661505D01*
X186271505Y-94828597D01*
X186141575Y-95014158D01*
X186086998Y-95057783D01*
X186017500Y-95064977D01*
X185955145Y-95033454D01*
X185938425Y-95014158D01*
X185808494Y-94828597D01*
X185641402Y-94661506D01*
X185641395Y-94661501D01*
X185447834Y-94525967D01*
X185447830Y-94525965D01*
X185447828Y-94525964D01*
X185233663Y-94426097D01*
X185233659Y-94426096D01*
X185233655Y-94426094D01*
X185005413Y-94364938D01*
X185005403Y-94364936D01*
X184770001Y-94344341D01*
X184769999Y-94344341D01*
X184534596Y-94364936D01*
X184534586Y-94364938D01*
X184306344Y-94426094D01*
X184306335Y-94426098D01*
X184092171Y-94525964D01*
X184092169Y-94525965D01*
X183898597Y-94661505D01*
X183731505Y-94828597D01*
X183601575Y-95014158D01*
X183546998Y-95057783D01*
X183477500Y-95064977D01*
X183415145Y-95033454D01*
X183398425Y-95014158D01*
X183268494Y-94828597D01*
X183101402Y-94661506D01*
X183101395Y-94661501D01*
X182907834Y-94525967D01*
X182907830Y-94525965D01*
X182907828Y-94525964D01*
X182693663Y-94426097D01*
X182693659Y-94426096D01*
X182693655Y-94426094D01*
X182465413Y-94364938D01*
X182465403Y-94364936D01*
X182230001Y-94344341D01*
X182229999Y-94344341D01*
X181994596Y-94364936D01*
X181994586Y-94364938D01*
X181766344Y-94426094D01*
X181766335Y-94426098D01*
X181552171Y-94525964D01*
X181552169Y-94525965D01*
X181358597Y-94661505D01*
X181191508Y-94828594D01*
X181061269Y-95014595D01*
X181006692Y-95058219D01*
X180937193Y-95065412D01*
X180874839Y-95033890D01*
X180858119Y-95014594D01*
X180728113Y-94828926D01*
X180728108Y-94828920D01*
X180561082Y-94661894D01*
X180367578Y-94526399D01*
X180153492Y-94426570D01*
X180153486Y-94426567D01*
X179940000Y-94369364D01*
X179940000Y-95264498D01*
X179832315Y-95215320D01*
X179725763Y-95200000D01*
X179654237Y-95200000D01*
X179547685Y-95215320D01*
X179440000Y-95264498D01*
X179440000Y-94369364D01*
X179439999Y-94369364D01*
X179226513Y-94426567D01*
X179226507Y-94426570D01*
X179012422Y-94526399D01*
X179012420Y-94526400D01*
X178818926Y-94661886D01*
X178818920Y-94661891D01*
X178651891Y-94828920D01*
X178651890Y-94828922D01*
X178521880Y-95014595D01*
X178467303Y-95058219D01*
X178397804Y-95065412D01*
X178335450Y-95033890D01*
X178318730Y-95014594D01*
X178188494Y-94828597D01*
X178021402Y-94661506D01*
X178021395Y-94661501D01*
X177827834Y-94525967D01*
X177827830Y-94525965D01*
X177827828Y-94525964D01*
X177613663Y-94426097D01*
X177613659Y-94426096D01*
X177613655Y-94426094D01*
X177385413Y-94364938D01*
X177385403Y-94364936D01*
X177150001Y-94344341D01*
X177149999Y-94344341D01*
X176914596Y-94364936D01*
X176914586Y-94364938D01*
X176686344Y-94426094D01*
X176686335Y-94426098D01*
X176472171Y-94525964D01*
X176472169Y-94525965D01*
X176278597Y-94661505D01*
X176111505Y-94828597D01*
X175975965Y-95022169D01*
X175975964Y-95022171D01*
X175876098Y-95236335D01*
X175876094Y-95236344D01*
X175814938Y-95464586D01*
X175814936Y-95464596D01*
X175794341Y-95699999D01*
X175794341Y-95700000D01*
X167517134Y-95700000D01*
X167379807Y-95638857D01*
X167379802Y-95638855D01*
X167234001Y-95607865D01*
X167194646Y-95599500D01*
X167005354Y-95599500D01*
X166972897Y-95606398D01*
X166820197Y-95638855D01*
X166820192Y-95638857D01*
X166647270Y-95715848D01*
X166647265Y-95715851D01*
X166494129Y-95827111D01*
X166367466Y-95967785D01*
X166272821Y-96131715D01*
X166272818Y-96131722D01*
X166216676Y-96304511D01*
X166214326Y-96311744D01*
X166205331Y-96397331D01*
X166199500Y-96452811D01*
X166199500Y-101975638D01*
X166179815Y-102042677D01*
X166163181Y-102063319D01*
X162870263Y-105356236D01*
X162855474Y-105368869D01*
X162844126Y-105377114D01*
X162798751Y-105427508D01*
X162794288Y-105432211D01*
X162779891Y-105446609D01*
X162779875Y-105446627D01*
X162767058Y-105462452D01*
X162762852Y-105467376D01*
X162717469Y-105517781D01*
X162717466Y-105517785D01*
X162710458Y-105529923D01*
X162699444Y-105545948D01*
X162690626Y-105556837D01*
X162690616Y-105556853D01*
X162659819Y-105617294D01*
X162656722Y-105622997D01*
X162622821Y-105681713D01*
X162618487Y-105695053D01*
X162611045Y-105713020D01*
X162604680Y-105725512D01*
X162587126Y-105791018D01*
X162585284Y-105797234D01*
X162564326Y-105861742D01*
X162564325Y-105861745D01*
X162562860Y-105875686D01*
X162559315Y-105894812D01*
X162555686Y-105908352D01*
X162552136Y-105976091D01*
X162551628Y-105982552D01*
X162549743Y-106000500D01*
X162549500Y-106002811D01*
X162549500Y-106023174D01*
X162549330Y-106029663D01*
X162545781Y-106097387D01*
X118500500Y-106097387D01*
X118500500Y-104500002D01*
X143444751Y-104500002D01*
X143463685Y-104668056D01*
X143519545Y-104827694D01*
X143519547Y-104827697D01*
X143609518Y-104970884D01*
X143609523Y-104970890D01*
X143729109Y-105090476D01*
X143729115Y-105090481D01*
X143872302Y-105180452D01*
X143872305Y-105180454D01*
X143872309Y-105180455D01*
X143872310Y-105180456D01*
X143944913Y-105205860D01*
X144031943Y-105236314D01*
X144199997Y-105255249D01*
X144200000Y-105255249D01*
X144200003Y-105255249D01*
X144368056Y-105236314D01*
X144368059Y-105236313D01*
X144527690Y-105180456D01*
X144527692Y-105180454D01*
X144527694Y-105180454D01*
X144527697Y-105180452D01*
X144670884Y-105090481D01*
X144670885Y-105090480D01*
X144670890Y-105090477D01*
X144790477Y-104970890D01*
X144880452Y-104827697D01*
X144880454Y-104827694D01*
X144880454Y-104827692D01*
X144880456Y-104827690D01*
X144936313Y-104668059D01*
X144936313Y-104668058D01*
X144936314Y-104668056D01*
X144955249Y-104500002D01*
X144955249Y-104499997D01*
X144936314Y-104331943D01*
X144922904Y-104293621D01*
X144880456Y-104172310D01*
X144869307Y-104154566D01*
X144819506Y-104075308D01*
X144800500Y-104009336D01*
X144800500Y-102690662D01*
X144819507Y-102624689D01*
X144851158Y-102574317D01*
X144880456Y-102527690D01*
X144936313Y-102368059D01*
X144955249Y-102200000D01*
X144937523Y-102042677D01*
X144936314Y-102031943D01*
X144880454Y-101872305D01*
X144880452Y-101872302D01*
X144790481Y-101729115D01*
X144790476Y-101729109D01*
X144670890Y-101609523D01*
X144670884Y-101609518D01*
X144527697Y-101519547D01*
X144527694Y-101519545D01*
X144368056Y-101463685D01*
X144200003Y-101444751D01*
X144199997Y-101444751D01*
X144031943Y-101463685D01*
X143872305Y-101519545D01*
X143872302Y-101519547D01*
X143729115Y-101609518D01*
X143729109Y-101609523D01*
X143609523Y-101729109D01*
X143609518Y-101729115D01*
X143519547Y-101872302D01*
X143519545Y-101872305D01*
X143463685Y-102031943D01*
X143444751Y-102199997D01*
X143444751Y-102200002D01*
X143463686Y-102368057D01*
X143519544Y-102527690D01*
X143580493Y-102624689D01*
X143599500Y-102690662D01*
X143599500Y-104009336D01*
X143580494Y-104075308D01*
X143519545Y-104172307D01*
X143463685Y-104331943D01*
X143444751Y-104499997D01*
X143444751Y-104500002D01*
X118500500Y-104500002D01*
X118500500Y-100024759D01*
X118500528Y-100024616D01*
X118500524Y-100024616D01*
X118500539Y-100000002D01*
X118500541Y-100000000D01*
X118500462Y-99999808D01*
X118500384Y-99999618D01*
X118500380Y-99999614D01*
X118500194Y-99999538D01*
X118500002Y-99999459D01*
X118475446Y-99999459D01*
X118475240Y-99999500D01*
X105126358Y-99999500D01*
X105059319Y-99979815D01*
X105013564Y-99927011D01*
X105002372Y-99873663D01*
X105010383Y-99333096D01*
X105020235Y-98668295D01*
X105020341Y-98664730D01*
X105079449Y-97336035D01*
X105079665Y-97332391D01*
X105126608Y-96700002D01*
X147094751Y-96700002D01*
X147113685Y-96868056D01*
X147169545Y-97027694D01*
X147169547Y-97027697D01*
X147259518Y-97170884D01*
X147259523Y-97170890D01*
X147379109Y-97290476D01*
X147379115Y-97290481D01*
X147522302Y-97380452D01*
X147522308Y-97380455D01*
X147522310Y-97380456D01*
X147681941Y-97436313D01*
X147700961Y-97438455D01*
X147765373Y-97465520D01*
X147774760Y-97473995D01*
X148991799Y-98691034D01*
X149002493Y-98703228D01*
X149021715Y-98728279D01*
X149021716Y-98728280D01*
X149021718Y-98728282D01*
X149077246Y-98770890D01*
X149147159Y-98824536D01*
X149293238Y-98885044D01*
X149371619Y-98895363D01*
X149449999Y-98905682D01*
X149450000Y-98905682D01*
X149481302Y-98901560D01*
X149497487Y-98900500D01*
X149909337Y-98900500D01*
X149975308Y-98919505D01*
X150072310Y-98980456D01*
X150193621Y-99022904D01*
X150231943Y-99036314D01*
X150399997Y-99055249D01*
X150400000Y-99055249D01*
X150400003Y-99055249D01*
X150568056Y-99036314D01*
X150568059Y-99036313D01*
X150727690Y-98980456D01*
X150727692Y-98980454D01*
X150727694Y-98980454D01*
X150727697Y-98980452D01*
X150870884Y-98890481D01*
X150870885Y-98890480D01*
X150870890Y-98890477D01*
X150990477Y-98770890D01*
X151017250Y-98728282D01*
X151080452Y-98627697D01*
X151080454Y-98627694D01*
X151080454Y-98627692D01*
X151080456Y-98627690D01*
X151136313Y-98468059D01*
X151136313Y-98468057D01*
X151136314Y-98468055D01*
X151149995Y-98346633D01*
X151177061Y-98282219D01*
X151234656Y-98242663D01*
X151259334Y-98237295D01*
X151268059Y-98236313D01*
X151427690Y-98180456D01*
X151427693Y-98180453D01*
X151427697Y-98180452D01*
X151570884Y-98090481D01*
X151570885Y-98090480D01*
X151570890Y-98090477D01*
X151690477Y-97970890D01*
X151780452Y-97827697D01*
X151780454Y-97827694D01*
X151780454Y-97827692D01*
X151780456Y-97827690D01*
X151836313Y-97668059D01*
X151836313Y-97668058D01*
X151836314Y-97668056D01*
X151855249Y-97500002D01*
X151855249Y-97499997D01*
X151836314Y-97331943D01*
X151780454Y-97172305D01*
X151780452Y-97172302D01*
X151690481Y-97029115D01*
X151690476Y-97029109D01*
X151570890Y-96909523D01*
X151570884Y-96909518D01*
X151427697Y-96819547D01*
X151427694Y-96819545D01*
X151268056Y-96763685D01*
X151100003Y-96744751D01*
X151099997Y-96744751D01*
X150931943Y-96763685D01*
X150772307Y-96819545D01*
X150702862Y-96863181D01*
X150676390Y-96879815D01*
X150675309Y-96880494D01*
X150609337Y-96899500D01*
X150100097Y-96899500D01*
X150033058Y-96879815D01*
X150012416Y-96863181D01*
X149546566Y-96397331D01*
X149513081Y-96336008D01*
X149511028Y-96323544D01*
X149508884Y-96304512D01*
X149453027Y-96144881D01*
X149453026Y-96144879D01*
X149453023Y-96144873D01*
X149363052Y-96001686D01*
X149363047Y-96001680D01*
X149243461Y-95882094D01*
X149243455Y-95882089D01*
X149100268Y-95792118D01*
X149100265Y-95792116D01*
X148940627Y-95736256D01*
X148772574Y-95717322D01*
X148772568Y-95717322D01*
X148604514Y-95736256D01*
X148444876Y-95792116D01*
X148444873Y-95792118D01*
X148301686Y-95882089D01*
X148301679Y-95882095D01*
X148222812Y-95960961D01*
X148161489Y-95994446D01*
X148094179Y-95990321D01*
X148018058Y-95963686D01*
X147850003Y-95944751D01*
X147849997Y-95944751D01*
X147681943Y-95963685D01*
X147522305Y-96019545D01*
X147522302Y-96019547D01*
X147379115Y-96109518D01*
X147379109Y-96109523D01*
X147259523Y-96229109D01*
X147259518Y-96229115D01*
X147169547Y-96372302D01*
X147169545Y-96372305D01*
X147113685Y-96531943D01*
X147094751Y-96699997D01*
X147094751Y-96700002D01*
X105126608Y-96700002D01*
X105172563Y-96080916D01*
X105172574Y-96080916D01*
X105172568Y-96080838D01*
X105172623Y-96080088D01*
X105178319Y-96004089D01*
X105178629Y-96000628D01*
X105292078Y-94910878D01*
X105292125Y-94910763D01*
X105292091Y-94910760D01*
X105300692Y-94828926D01*
X105317245Y-94671432D01*
X105317644Y-94668095D01*
X105380732Y-94197870D01*
X109349500Y-94197870D01*
X109349501Y-94197876D01*
X109355908Y-94257483D01*
X109406202Y-94392328D01*
X109406206Y-94392335D01*
X109492452Y-94507544D01*
X109492455Y-94507547D01*
X109607664Y-94593793D01*
X109607671Y-94593797D01*
X109742517Y-94644091D01*
X109742516Y-94644091D01*
X109749444Y-94644835D01*
X109802127Y-94650500D01*
X111597872Y-94650499D01*
X111657483Y-94644091D01*
X111792331Y-94593796D01*
X111907546Y-94507546D01*
X111993796Y-94392331D01*
X112042810Y-94260916D01*
X112084681Y-94204984D01*
X112150145Y-94180566D01*
X112218418Y-94195417D01*
X112246673Y-94216569D01*
X112368599Y-94338495D01*
X112465295Y-94406202D01*
X112562165Y-94474032D01*
X112562167Y-94474033D01*
X112562170Y-94474035D01*
X112776337Y-94573903D01*
X113004592Y-94635063D01*
X113181034Y-94650500D01*
X113239999Y-94655659D01*
X113240000Y-94655659D01*
X113240001Y-94655659D01*
X113298966Y-94650500D01*
X113475408Y-94635063D01*
X113703663Y-94573903D01*
X113917830Y-94474035D01*
X114111401Y-94338495D01*
X114278495Y-94171401D01*
X114408425Y-93985842D01*
X114463002Y-93942217D01*
X114532500Y-93935023D01*
X114594855Y-93966546D01*
X114611575Y-93985842D01*
X114741500Y-94171395D01*
X114741505Y-94171401D01*
X114908599Y-94338495D01*
X115005295Y-94406202D01*
X115102165Y-94474032D01*
X115102167Y-94474033D01*
X115102170Y-94474035D01*
X115316337Y-94573903D01*
X115544592Y-94635063D01*
X115721034Y-94650500D01*
X115779999Y-94655659D01*
X115780000Y-94655659D01*
X115780001Y-94655659D01*
X115838966Y-94650500D01*
X116015408Y-94635063D01*
X116243663Y-94573903D01*
X116457830Y-94474035D01*
X116651401Y-94338495D01*
X116818495Y-94171401D01*
X116948425Y-93985842D01*
X117003002Y-93942217D01*
X117072500Y-93935023D01*
X117134855Y-93966546D01*
X117151575Y-93985842D01*
X117281500Y-94171395D01*
X117281505Y-94171401D01*
X117448599Y-94338495D01*
X117545295Y-94406202D01*
X117642165Y-94474032D01*
X117642167Y-94474033D01*
X117642170Y-94474035D01*
X117856337Y-94573903D01*
X118084592Y-94635063D01*
X118261034Y-94650500D01*
X118319999Y-94655659D01*
X118320000Y-94655659D01*
X118320001Y-94655659D01*
X118378966Y-94650500D01*
X118555408Y-94635063D01*
X118783663Y-94573903D01*
X118997830Y-94474035D01*
X119191401Y-94338495D01*
X119358495Y-94171401D01*
X119488730Y-93985405D01*
X119543307Y-93941781D01*
X119612805Y-93934587D01*
X119675160Y-93966110D01*
X119691879Y-93985405D01*
X119821890Y-94171078D01*
X119988917Y-94338105D01*
X120182421Y-94473600D01*
X120396507Y-94573429D01*
X120396516Y-94573433D01*
X120610000Y-94630634D01*
X120610000Y-93735501D01*
X120717685Y-93784680D01*
X120824237Y-93800000D01*
X120895763Y-93800000D01*
X121002315Y-93784680D01*
X121110000Y-93735501D01*
X121110000Y-94630633D01*
X121323483Y-94573433D01*
X121323492Y-94573429D01*
X121537578Y-94473600D01*
X121731082Y-94338105D01*
X121898105Y-94171082D01*
X122028119Y-93985405D01*
X122082696Y-93941781D01*
X122152195Y-93934588D01*
X122214549Y-93966110D01*
X122231269Y-93985405D01*
X122361505Y-94171401D01*
X122528599Y-94338495D01*
X122625295Y-94406202D01*
X122722165Y-94474032D01*
X122722167Y-94474033D01*
X122722170Y-94474035D01*
X122936337Y-94573903D01*
X123164592Y-94635063D01*
X123341034Y-94650500D01*
X123399999Y-94655659D01*
X123400000Y-94655659D01*
X123400001Y-94655659D01*
X123458966Y-94650500D01*
X123635408Y-94635063D01*
X123863663Y-94573903D01*
X124077830Y-94474035D01*
X124271401Y-94338495D01*
X124438495Y-94171401D01*
X124574035Y-93977830D01*
X124673903Y-93763663D01*
X124735063Y-93535408D01*
X124755659Y-93300000D01*
X124735063Y-93064592D01*
X124673903Y-92836337D01*
X124574035Y-92622171D01*
X124568731Y-92614595D01*
X124438494Y-92428597D01*
X124271402Y-92261506D01*
X124271395Y-92261501D01*
X124077834Y-92125967D01*
X124077830Y-92125965D01*
X124077828Y-92125964D01*
X123863663Y-92026097D01*
X123863659Y-92026096D01*
X123863655Y-92026094D01*
X123635413Y-91964938D01*
X123635403Y-91964936D01*
X123400001Y-91944341D01*
X123399999Y-91944341D01*
X123164596Y-91964936D01*
X123164586Y-91964938D01*
X122936344Y-92026094D01*
X122936335Y-92026098D01*
X122722171Y-92125964D01*
X122722169Y-92125965D01*
X122528597Y-92261505D01*
X122361508Y-92428594D01*
X122231269Y-92614595D01*
X122176692Y-92658219D01*
X122107193Y-92665412D01*
X122044839Y-92633890D01*
X122028119Y-92614594D01*
X121898113Y-92428926D01*
X121898108Y-92428920D01*
X121731082Y-92261894D01*
X121537578Y-92126399D01*
X121323492Y-92026570D01*
X121323486Y-92026567D01*
X121110000Y-91969364D01*
X121110000Y-92864498D01*
X121002315Y-92815320D01*
X120895763Y-92800000D01*
X120824237Y-92800000D01*
X120717685Y-92815320D01*
X120610000Y-92864498D01*
X120610000Y-91969364D01*
X120609999Y-91969364D01*
X120396513Y-92026567D01*
X120396507Y-92026570D01*
X120182422Y-92126399D01*
X120182420Y-92126400D01*
X119988926Y-92261886D01*
X119988920Y-92261891D01*
X119821891Y-92428920D01*
X119821890Y-92428922D01*
X119691880Y-92614595D01*
X119637303Y-92658219D01*
X119567804Y-92665412D01*
X119505450Y-92633890D01*
X119488730Y-92614594D01*
X119358494Y-92428597D01*
X119191402Y-92261506D01*
X119191395Y-92261501D01*
X118997834Y-92125967D01*
X118997830Y-92125965D01*
X118997828Y-92125964D01*
X118783663Y-92026097D01*
X118783659Y-92026096D01*
X118783655Y-92026094D01*
X118555413Y-91964938D01*
X118555403Y-91964936D01*
X118320001Y-91944341D01*
X118319999Y-91944341D01*
X118084596Y-91964936D01*
X118084586Y-91964938D01*
X117856344Y-92026094D01*
X117856335Y-92026098D01*
X117642171Y-92125964D01*
X117642169Y-92125965D01*
X117448597Y-92261505D01*
X117281505Y-92428597D01*
X117151575Y-92614158D01*
X117096998Y-92657783D01*
X117027500Y-92664977D01*
X116965145Y-92633454D01*
X116948425Y-92614158D01*
X116818494Y-92428597D01*
X116651402Y-92261506D01*
X116651395Y-92261501D01*
X116457834Y-92125967D01*
X116457830Y-92125965D01*
X116457828Y-92125964D01*
X116243663Y-92026097D01*
X116243659Y-92026096D01*
X116243655Y-92026094D01*
X116015413Y-91964938D01*
X116015403Y-91964936D01*
X115780001Y-91944341D01*
X115779999Y-91944341D01*
X115544596Y-91964936D01*
X115544586Y-91964938D01*
X115316344Y-92026094D01*
X115316335Y-92026098D01*
X115102171Y-92125964D01*
X115102169Y-92125965D01*
X114908597Y-92261505D01*
X114741505Y-92428597D01*
X114611575Y-92614158D01*
X114556998Y-92657783D01*
X114487500Y-92664977D01*
X114425145Y-92633454D01*
X114408425Y-92614158D01*
X114278494Y-92428597D01*
X114111402Y-92261506D01*
X114111395Y-92261501D01*
X113917834Y-92125967D01*
X113917830Y-92125965D01*
X113917828Y-92125964D01*
X113703663Y-92026097D01*
X113703659Y-92026096D01*
X113703655Y-92026094D01*
X113475413Y-91964938D01*
X113475403Y-91964936D01*
X113240001Y-91944341D01*
X113239999Y-91944341D01*
X113004596Y-91964936D01*
X113004586Y-91964938D01*
X112776344Y-92026094D01*
X112776335Y-92026098D01*
X112562171Y-92125964D01*
X112562169Y-92125965D01*
X112368600Y-92261503D01*
X112246673Y-92383430D01*
X112185350Y-92416914D01*
X112115658Y-92411930D01*
X112059725Y-92370058D01*
X112042810Y-92339081D01*
X111993797Y-92207671D01*
X111993793Y-92207664D01*
X111907547Y-92092455D01*
X111907544Y-92092452D01*
X111792335Y-92006206D01*
X111792328Y-92006202D01*
X111657482Y-91955908D01*
X111657483Y-91955908D01*
X111597883Y-91949501D01*
X111597881Y-91949500D01*
X111597873Y-91949500D01*
X111597864Y-91949500D01*
X109802129Y-91949500D01*
X109802123Y-91949501D01*
X109742516Y-91955908D01*
X109607671Y-92006202D01*
X109607664Y-92006206D01*
X109492455Y-92092452D01*
X109492452Y-92092455D01*
X109406206Y-92207664D01*
X109406202Y-92207671D01*
X109355908Y-92342517D01*
X109349501Y-92402116D01*
X109349500Y-92402135D01*
X109349500Y-94197870D01*
X105380732Y-94197870D01*
X105451234Y-93672390D01*
X105469790Y-93535403D01*
X105495785Y-93343498D01*
X105496276Y-93340229D01*
X105649926Y-92405996D01*
X105713775Y-92021504D01*
X105714362Y-92018256D01*
X105888013Y-91128029D01*
X105971011Y-90706657D01*
X105971701Y-90703392D01*
X106165219Y-89847182D01*
X106267282Y-89400015D01*
X106268069Y-89396776D01*
X106421672Y-88800002D01*
X121244751Y-88800002D01*
X121263685Y-88968056D01*
X121319545Y-89127694D01*
X121319547Y-89127697D01*
X121409518Y-89270884D01*
X121409523Y-89270890D01*
X121529109Y-89390476D01*
X121529115Y-89390481D01*
X121672302Y-89480452D01*
X121672305Y-89480454D01*
X121672309Y-89480455D01*
X121672310Y-89480456D01*
X121744913Y-89505860D01*
X121831943Y-89536314D01*
X121999997Y-89555249D01*
X122000000Y-89555249D01*
X122000003Y-89555249D01*
X122168056Y-89536314D01*
X122168059Y-89536313D01*
X122327690Y-89480456D01*
X122327692Y-89480454D01*
X122327694Y-89480454D01*
X122327697Y-89480452D01*
X122470884Y-89390481D01*
X122470885Y-89390480D01*
X122470890Y-89390477D01*
X122590477Y-89270890D01*
X122680452Y-89127697D01*
X122680454Y-89127694D01*
X122680454Y-89127692D01*
X122680456Y-89127690D01*
X122736313Y-88968059D01*
X122736313Y-88968058D01*
X122736314Y-88968056D01*
X122755249Y-88800002D01*
X122755249Y-88799997D01*
X122736314Y-88631943D01*
X122722904Y-88593621D01*
X122680456Y-88472310D01*
X122622768Y-88380500D01*
X122619506Y-88375308D01*
X122600500Y-88309336D01*
X122600500Y-88300002D01*
X151444751Y-88300002D01*
X151463685Y-88468056D01*
X151519545Y-88627694D01*
X151519547Y-88627697D01*
X151609518Y-88770884D01*
X151609523Y-88770890D01*
X151729109Y-88890476D01*
X151729115Y-88890481D01*
X151872302Y-88980452D01*
X151872305Y-88980454D01*
X151872309Y-88980455D01*
X151872310Y-88980456D01*
X151944913Y-89005860D01*
X152031943Y-89036314D01*
X152199997Y-89055249D01*
X152200000Y-89055249D01*
X152200003Y-89055249D01*
X152368056Y-89036314D01*
X152368059Y-89036313D01*
X152527690Y-88980456D01*
X152527692Y-88980454D01*
X152527694Y-88980454D01*
X152527697Y-88980452D01*
X152670884Y-88890481D01*
X152670885Y-88890480D01*
X152670890Y-88890477D01*
X152790477Y-88770890D01*
X152880452Y-88627697D01*
X152880454Y-88627694D01*
X152880454Y-88627692D01*
X152880456Y-88627690D01*
X152936313Y-88468059D01*
X152936313Y-88468058D01*
X152936314Y-88468056D01*
X152955249Y-88300002D01*
X152955249Y-88299997D01*
X152936314Y-88131943D01*
X152921946Y-88090883D01*
X152880456Y-87972310D01*
X152852541Y-87927883D01*
X152819506Y-87875308D01*
X152800500Y-87809336D01*
X152800500Y-87380000D01*
X158724659Y-87380000D01*
X158743975Y-87576129D01*
X158801188Y-87764733D01*
X158894086Y-87938532D01*
X158894090Y-87938539D01*
X159019116Y-88090883D01*
X159171460Y-88215909D01*
X159171467Y-88215913D01*
X159345266Y-88308811D01*
X159345269Y-88308811D01*
X159345273Y-88308814D01*
X159533868Y-88366024D01*
X159730000Y-88385341D01*
X159926132Y-88366024D01*
X160114727Y-88308814D01*
X160116853Y-88307677D01*
X160118095Y-88307418D01*
X160120355Y-88306483D01*
X160120532Y-88306911D01*
X160185254Y-88293435D01*
X160249615Y-88317767D01*
X160257669Y-88323796D01*
X160370888Y-88366024D01*
X160392517Y-88374091D01*
X160392516Y-88374091D01*
X160399444Y-88374835D01*
X160452127Y-88380500D01*
X161547872Y-88380499D01*
X161607483Y-88374091D01*
X161742331Y-88323796D01*
X161857546Y-88237546D01*
X161943796Y-88122331D01*
X161994091Y-87987483D01*
X162000500Y-87927873D01*
X162000499Y-86832128D01*
X161994091Y-86772517D01*
X161978480Y-86730663D01*
X161943797Y-86637671D01*
X161943793Y-86637664D01*
X161937439Y-86629176D01*
X161913021Y-86563712D01*
X161926505Y-86500369D01*
X161926018Y-86500167D01*
X161927110Y-86497530D01*
X161927349Y-86496408D01*
X161928347Y-86494539D01*
X161969160Y-86360000D01*
X161214483Y-86360000D01*
X161285801Y-86275007D01*
X161325000Y-86167306D01*
X161325000Y-86052694D01*
X161285801Y-85944993D01*
X161212129Y-85857195D01*
X161112871Y-85799888D01*
X161028436Y-85785000D01*
X160971564Y-85785000D01*
X160887129Y-85799888D01*
X160787871Y-85857195D01*
X160750000Y-85902327D01*
X160750000Y-85047672D01*
X160787871Y-85092805D01*
X160887129Y-85150112D01*
X160971564Y-85165000D01*
X161028436Y-85165000D01*
X161112871Y-85150112D01*
X161212129Y-85092805D01*
X161214483Y-85090000D01*
X161250000Y-85090000D01*
X161250000Y-85860000D01*
X161969160Y-85860000D01*
X161969160Y-85859999D01*
X161928347Y-85725458D01*
X161835497Y-85551747D01*
X161832111Y-85546680D01*
X161833665Y-85545641D01*
X161809759Y-85489361D01*
X161821547Y-85420493D01*
X161832441Y-85403540D01*
X161832111Y-85403320D01*
X161835497Y-85398252D01*
X161928347Y-85224541D01*
X161969160Y-85090000D01*
X161250000Y-85090000D01*
X161214483Y-85090000D01*
X161285801Y-85005007D01*
X161325000Y-84897306D01*
X161325000Y-84782694D01*
X161285801Y-84674993D01*
X161214483Y-84590000D01*
X161969160Y-84590000D01*
X161969160Y-84589999D01*
X161928347Y-84455458D01*
X161835496Y-84281746D01*
X161832110Y-84276678D01*
X161833784Y-84275559D01*
X161810081Y-84219746D01*
X161821874Y-84150879D01*
X161832839Y-84133818D01*
X161832523Y-84133607D01*
X161835904Y-84128544D01*
X161835910Y-84128538D01*
X161928814Y-83954727D01*
X161986024Y-83766132D01*
X162005341Y-83570000D01*
X161986024Y-83373868D01*
X161928814Y-83185273D01*
X161835910Y-83011462D01*
X161835906Y-83011457D01*
X161832526Y-83006399D01*
X161834044Y-83005384D01*
X161810081Y-82948962D01*
X161821872Y-82880094D01*
X161832492Y-82863574D01*
X161832111Y-82863320D01*
X161835497Y-82858252D01*
X161928347Y-82684541D01*
X161969160Y-82550000D01*
X161214483Y-82550000D01*
X161285801Y-82465007D01*
X161325000Y-82357306D01*
X161325000Y-82242694D01*
X161285801Y-82134993D01*
X161212129Y-82047195D01*
X161112871Y-81989888D01*
X161028436Y-81975000D01*
X160971564Y-81975000D01*
X160887129Y-81989888D01*
X160787871Y-82047195D01*
X160750000Y-82092327D01*
X160750000Y-81330839D01*
X161250000Y-81330839D01*
X161250000Y-82050000D01*
X161969160Y-82050000D01*
X161969160Y-82049999D01*
X161928347Y-81915458D01*
X161835496Y-81741746D01*
X161835492Y-81741739D01*
X161710528Y-81589471D01*
X161558260Y-81464507D01*
X161558253Y-81464503D01*
X161384541Y-81371652D01*
X161250000Y-81330839D01*
X160750000Y-81330839D01*
X160749999Y-81330839D01*
X160615458Y-81371652D01*
X160441742Y-81464505D01*
X160436673Y-81467893D01*
X160435556Y-81466221D01*
X160379715Y-81489921D01*
X160310851Y-81478111D01*
X160293811Y-81467158D01*
X160293601Y-81467473D01*
X160288532Y-81464086D01*
X160114733Y-81371188D01*
X160114727Y-81371186D01*
X159926132Y-81313976D01*
X159926129Y-81313975D01*
X159730000Y-81294659D01*
X159533870Y-81313975D01*
X159345266Y-81371188D01*
X159171467Y-81464086D01*
X159171460Y-81464090D01*
X159019116Y-81589116D01*
X158894090Y-81741460D01*
X158894086Y-81741467D01*
X158801188Y-81915266D01*
X158743975Y-82103870D01*
X158724659Y-82300000D01*
X158743975Y-82496129D01*
X158743976Y-82496132D01*
X158782226Y-82622226D01*
X158801188Y-82684733D01*
X158894086Y-82858532D01*
X158897473Y-82863601D01*
X158895836Y-82864694D01*
X158919596Y-82920663D01*
X158907795Y-82989529D01*
X158897109Y-83006156D01*
X158897473Y-83006399D01*
X158894086Y-83011467D01*
X158801188Y-83185266D01*
X158743975Y-83373870D01*
X158724659Y-83570000D01*
X158743975Y-83766129D01*
X158801188Y-83954733D01*
X158894086Y-84128532D01*
X158897473Y-84133601D01*
X158895836Y-84134694D01*
X158919596Y-84190663D01*
X158907795Y-84259529D01*
X158897109Y-84276156D01*
X158897473Y-84276399D01*
X158894086Y-84281467D01*
X158801188Y-84455266D01*
X158743975Y-84643870D01*
X158724659Y-84840000D01*
X158743975Y-85036129D01*
X158801188Y-85224733D01*
X158894086Y-85398532D01*
X158897473Y-85403601D01*
X158895836Y-85404694D01*
X158919596Y-85460663D01*
X158907795Y-85529529D01*
X158897109Y-85546156D01*
X158897473Y-85546399D01*
X158894086Y-85551467D01*
X158801188Y-85725266D01*
X158743975Y-85913870D01*
X158724659Y-86110000D01*
X158743975Y-86306129D01*
X158801188Y-86494733D01*
X158894086Y-86668532D01*
X158897473Y-86673601D01*
X158895836Y-86674694D01*
X158919596Y-86730663D01*
X158907795Y-86799529D01*
X158897109Y-86816156D01*
X158897473Y-86816399D01*
X158894086Y-86821467D01*
X158801188Y-86995266D01*
X158743975Y-87183870D01*
X158724659Y-87380000D01*
X152800500Y-87380000D01*
X152800500Y-85200096D01*
X152820185Y-85133057D01*
X152836814Y-85112420D01*
X154275240Y-83673993D01*
X154336561Y-83640510D01*
X154349024Y-83638457D01*
X154368059Y-83636313D01*
X154527690Y-83580456D01*
X154527693Y-83580453D01*
X154527697Y-83580452D01*
X154670884Y-83490481D01*
X154670885Y-83490480D01*
X154670890Y-83490477D01*
X154790477Y-83370890D01*
X154880452Y-83227697D01*
X154880454Y-83227694D01*
X154880454Y-83227692D01*
X154880456Y-83227690D01*
X154936313Y-83068059D01*
X154936313Y-83068058D01*
X154936314Y-83068056D01*
X154955249Y-82900002D01*
X154955249Y-82899997D01*
X154936314Y-82731943D01*
X154880454Y-82572305D01*
X154880452Y-82572302D01*
X154790481Y-82429115D01*
X154790476Y-82429109D01*
X154670890Y-82309523D01*
X154670884Y-82309518D01*
X154527697Y-82219547D01*
X154527694Y-82219545D01*
X154368056Y-82163685D01*
X154200003Y-82144751D01*
X154199997Y-82144751D01*
X154031943Y-82163685D01*
X153872305Y-82219545D01*
X153872302Y-82219547D01*
X153729115Y-82309518D01*
X153729109Y-82309523D01*
X153609523Y-82429109D01*
X153609518Y-82429115D01*
X153519547Y-82572302D01*
X153519544Y-82572307D01*
X153463687Y-82731940D01*
X153463687Y-82731943D01*
X153461543Y-82750966D01*
X153434473Y-82815379D01*
X153426004Y-82824759D01*
X151808965Y-84441798D01*
X151796775Y-84452489D01*
X151771716Y-84471718D01*
X151675464Y-84597157D01*
X151614956Y-84743237D01*
X151614955Y-84743239D01*
X151594318Y-84899998D01*
X151594318Y-84899999D01*
X151598439Y-84931301D01*
X151599500Y-84947487D01*
X151599500Y-87809336D01*
X151580494Y-87875308D01*
X151519545Y-87972307D01*
X151463685Y-88131943D01*
X151444751Y-88299997D01*
X151444751Y-88300002D01*
X122600500Y-88300002D01*
X122600500Y-88200096D01*
X122620185Y-88133057D01*
X122636815Y-88112419D01*
X122914601Y-87834632D01*
X122975922Y-87801149D01*
X123043235Y-87805274D01*
X123131939Y-87836313D01*
X123299997Y-87855249D01*
X123300000Y-87855249D01*
X123300003Y-87855249D01*
X123468056Y-87836314D01*
X123472857Y-87834634D01*
X123627690Y-87780456D01*
X123627692Y-87780454D01*
X123627694Y-87780454D01*
X123627697Y-87780452D01*
X123770884Y-87690481D01*
X123770885Y-87690480D01*
X123770890Y-87690477D01*
X123890477Y-87570890D01*
X123890481Y-87570884D01*
X123980452Y-87427697D01*
X123980454Y-87427694D01*
X123980454Y-87427692D01*
X123980456Y-87427690D01*
X124036313Y-87268059D01*
X124036313Y-87268058D01*
X124036314Y-87268056D01*
X124055249Y-87100002D01*
X124055249Y-87099997D01*
X124036314Y-86931943D01*
X123980454Y-86772305D01*
X123980452Y-86772302D01*
X123890481Y-86629115D01*
X123890476Y-86629109D01*
X123770890Y-86509523D01*
X123770884Y-86509518D01*
X123627697Y-86419547D01*
X123627694Y-86419545D01*
X123468056Y-86363685D01*
X123300003Y-86344751D01*
X123299997Y-86344751D01*
X123131943Y-86363685D01*
X122972307Y-86419545D01*
X122881917Y-86476341D01*
X122814680Y-86495341D01*
X122800203Y-86494318D01*
X122800000Y-86494318D01*
X122760639Y-86499500D01*
X122643239Y-86514955D01*
X122643237Y-86514956D01*
X122497157Y-86575464D01*
X122371718Y-86671716D01*
X122352489Y-86696775D01*
X122341798Y-86708965D01*
X121608965Y-87441798D01*
X121596774Y-87452490D01*
X121571718Y-87471717D01*
X121547549Y-87503213D01*
X121547550Y-87503214D01*
X121475464Y-87597158D01*
X121475461Y-87597163D01*
X121414957Y-87743234D01*
X121414955Y-87743239D01*
X121394318Y-87899998D01*
X121394318Y-87900000D01*
X121398439Y-87931301D01*
X121399500Y-87947487D01*
X121399500Y-88309336D01*
X121380494Y-88375308D01*
X121319545Y-88472307D01*
X121263685Y-88631943D01*
X121244751Y-88799997D01*
X121244751Y-88800002D01*
X106421672Y-88800002D01*
X106481277Y-88568425D01*
X106530128Y-88380499D01*
X106602345Y-88102685D01*
X106603201Y-88099569D01*
X106836033Y-87294598D01*
X106975871Y-86815949D01*
X106976786Y-86812968D01*
X107228931Y-86029050D01*
X107387509Y-85540996D01*
X107388523Y-85538011D01*
X107659936Y-84772766D01*
X107836964Y-84278735D01*
X107838015Y-84275923D01*
X108128466Y-83528120D01*
X108323726Y-83030605D01*
X108324908Y-83027705D01*
X108634101Y-82296616D01*
X108847508Y-81797327D01*
X108848702Y-81794632D01*
X109176491Y-81079425D01*
X109407712Y-80580327D01*
X109409012Y-80577613D01*
X109754995Y-79878208D01*
X110003942Y-79380452D01*
X110005241Y-79377935D01*
X110369277Y-78693827D01*
X110635628Y-78198864D01*
X110636951Y-78196477D01*
X111018692Y-77527675D01*
X111302136Y-77036736D01*
X111303587Y-77034293D01*
X111597782Y-76552610D01*
X157695780Y-76552610D01*
X157705686Y-76741644D01*
X157705687Y-76741646D01*
X157754679Y-76924487D01*
X157754680Y-76924488D01*
X157810579Y-77034197D01*
X157840620Y-77093154D01*
X157896734Y-77162448D01*
X157929881Y-77203380D01*
X157929889Y-77203388D01*
X160741199Y-80014699D01*
X160771447Y-80064056D01*
X160772821Y-80068284D01*
X160772821Y-80068285D01*
X160867465Y-80232214D01*
X160994129Y-80372888D01*
X161147265Y-80484148D01*
X161147270Y-80484151D01*
X161320192Y-80561142D01*
X161320197Y-80561144D01*
X161505354Y-80600500D01*
X161505355Y-80600500D01*
X161694644Y-80600500D01*
X161694646Y-80600500D01*
X161879803Y-80561144D01*
X162052730Y-80484151D01*
X162205871Y-80372888D01*
X162332533Y-80232216D01*
X162427179Y-80068284D01*
X162485674Y-79888256D01*
X162500500Y-79747192D01*
X162500500Y-79680626D01*
X162502027Y-79661225D01*
X162504219Y-79647388D01*
X162500670Y-79579663D01*
X162500500Y-79573174D01*
X162500500Y-79552809D01*
X162500499Y-79552800D01*
X162498371Y-79532552D01*
X162497862Y-79526098D01*
X162494313Y-79458355D01*
X162490685Y-79444814D01*
X162487139Y-79425688D01*
X162485674Y-79411744D01*
X162464710Y-79347227D01*
X162462871Y-79341015D01*
X162445321Y-79275515D01*
X162445320Y-79275514D01*
X162445320Y-79275512D01*
X162438956Y-79263022D01*
X162431511Y-79245050D01*
X162427179Y-79231716D01*
X162427174Y-79231707D01*
X162393265Y-79172975D01*
X162390178Y-79167292D01*
X162359383Y-79106851D01*
X162350557Y-79095952D01*
X162339540Y-79079920D01*
X162332533Y-79067784D01*
X162287145Y-79017375D01*
X162282943Y-79012456D01*
X162270120Y-78996620D01*
X162255697Y-78982197D01*
X162251244Y-78977504D01*
X162205875Y-78927115D01*
X162205869Y-78927110D01*
X162194529Y-78918871D01*
X162179736Y-78906236D01*
X159203388Y-75929889D01*
X159203380Y-75929881D01*
X159157192Y-75892478D01*
X159093154Y-75840620D01*
X159093150Y-75840618D01*
X159093149Y-75840617D01*
X159000145Y-75793229D01*
X158924487Y-75754679D01*
X158741646Y-75705687D01*
X158741644Y-75705686D01*
X158552610Y-75695780D01*
X158552608Y-75695781D01*
X158365653Y-75725391D01*
X158365650Y-75725392D01*
X158188927Y-75793230D01*
X158030173Y-75896327D01*
X157896327Y-76030173D01*
X157793230Y-76188927D01*
X157725392Y-76365650D01*
X157725391Y-76365653D01*
X157695781Y-76552608D01*
X157695780Y-76552610D01*
X111597782Y-76552610D01*
X111702819Y-76380633D01*
X112002951Y-75894951D01*
X112004469Y-75892558D01*
X112420831Y-75254183D01*
X112737525Y-74774411D01*
X112739018Y-74772208D01*
X113172300Y-74149059D01*
X113505023Y-73676398D01*
X113506706Y-73674066D01*
X113561531Y-73600000D01*
X160404341Y-73600000D01*
X160424936Y-73835403D01*
X160424938Y-73835413D01*
X160486094Y-74063655D01*
X160486096Y-74063659D01*
X160486097Y-74063663D01*
X160566004Y-74235023D01*
X160585965Y-74277830D01*
X160585967Y-74277834D01*
X160606728Y-74307483D01*
X160721505Y-74471401D01*
X160888599Y-74638495D01*
X160965135Y-74692086D01*
X161082165Y-74774032D01*
X161082167Y-74774033D01*
X161082170Y-74774035D01*
X161296337Y-74873903D01*
X161524592Y-74935063D01*
X161695319Y-74950000D01*
X161759999Y-74955659D01*
X161760000Y-74955659D01*
X161760001Y-74955659D01*
X161824681Y-74950000D01*
X161995408Y-74935063D01*
X162223663Y-74873903D01*
X162437830Y-74774035D01*
X162631401Y-74638495D01*
X162798495Y-74471401D01*
X162928425Y-74285842D01*
X162983002Y-74242217D01*
X163052500Y-74235023D01*
X163114855Y-74266546D01*
X163131575Y-74285842D01*
X163261500Y-74471395D01*
X163261505Y-74471401D01*
X163428599Y-74638495D01*
X163505135Y-74692086D01*
X163622165Y-74774032D01*
X163622167Y-74774033D01*
X163622170Y-74774035D01*
X163836337Y-74873903D01*
X164064592Y-74935063D01*
X164235319Y-74950000D01*
X164299999Y-74955659D01*
X164300000Y-74955659D01*
X164300001Y-74955659D01*
X164364681Y-74950000D01*
X164535408Y-74935063D01*
X164763663Y-74873903D01*
X164977830Y-74774035D01*
X165171401Y-74638495D01*
X165338495Y-74471401D01*
X165468425Y-74285842D01*
X165523002Y-74242217D01*
X165592500Y-74235023D01*
X165654855Y-74266546D01*
X165671575Y-74285842D01*
X165801500Y-74471395D01*
X165801505Y-74471401D01*
X165968599Y-74638495D01*
X166045135Y-74692086D01*
X166162165Y-74774032D01*
X166162167Y-74774033D01*
X166162170Y-74774035D01*
X166376337Y-74873903D01*
X166604592Y-74935063D01*
X166775319Y-74950000D01*
X166839999Y-74955659D01*
X166840000Y-74955659D01*
X166840001Y-74955659D01*
X166904681Y-74950000D01*
X167075408Y-74935063D01*
X167303663Y-74873903D01*
X167517830Y-74774035D01*
X167711401Y-74638495D01*
X167833717Y-74516178D01*
X167895036Y-74482696D01*
X167964728Y-74487680D01*
X168020662Y-74529551D01*
X168037577Y-74560528D01*
X168086646Y-74692088D01*
X168086649Y-74692093D01*
X168172809Y-74807187D01*
X168172812Y-74807190D01*
X168287906Y-74893350D01*
X168287913Y-74893354D01*
X168422620Y-74943596D01*
X168422627Y-74943598D01*
X168482155Y-74949999D01*
X168482172Y-74950000D01*
X169130000Y-74950000D01*
X169130000Y-74035501D01*
X169237685Y-74084680D01*
X169344237Y-74100000D01*
X169415763Y-74100000D01*
X169522315Y-74084680D01*
X169630000Y-74035501D01*
X169630000Y-74950000D01*
X170277828Y-74950000D01*
X170277844Y-74949999D01*
X170337372Y-74943598D01*
X170337379Y-74943596D01*
X170472086Y-74893354D01*
X170472093Y-74893350D01*
X170587187Y-74807190D01*
X170587190Y-74807187D01*
X170673350Y-74692093D01*
X170673354Y-74692086D01*
X170723596Y-74557379D01*
X170723598Y-74557372D01*
X170729999Y-74497844D01*
X170730000Y-74497827D01*
X170730000Y-73850000D01*
X169813686Y-73850000D01*
X169839493Y-73809844D01*
X169880000Y-73671889D01*
X169880000Y-73528111D01*
X169839493Y-73390156D01*
X169813686Y-73350000D01*
X170730000Y-73350000D01*
X170730000Y-72702172D01*
X170729999Y-72702155D01*
X170723598Y-72642627D01*
X170723596Y-72642620D01*
X170673354Y-72507913D01*
X170673350Y-72507906D01*
X170587190Y-72392812D01*
X170587187Y-72392809D01*
X170472093Y-72306649D01*
X170472086Y-72306645D01*
X170337379Y-72256403D01*
X170337372Y-72256401D01*
X170277844Y-72250000D01*
X169630000Y-72250000D01*
X169630000Y-73164498D01*
X169522315Y-73115320D01*
X169415763Y-73100000D01*
X169344237Y-73100000D01*
X169237685Y-73115320D01*
X169130000Y-73164498D01*
X169130000Y-72250000D01*
X168482155Y-72250000D01*
X168422627Y-72256401D01*
X168422620Y-72256403D01*
X168287913Y-72306645D01*
X168287906Y-72306649D01*
X168172812Y-72392809D01*
X168172809Y-72392812D01*
X168086649Y-72507906D01*
X168086645Y-72507913D01*
X168037578Y-72639470D01*
X167995707Y-72695404D01*
X167930242Y-72719821D01*
X167861969Y-72704969D01*
X167833715Y-72683819D01*
X167789366Y-72639470D01*
X167711401Y-72561505D01*
X167711397Y-72561502D01*
X167711396Y-72561501D01*
X167517834Y-72425967D01*
X167517830Y-72425965D01*
X167446727Y-72392809D01*
X167303663Y-72326097D01*
X167303659Y-72326096D01*
X167303655Y-72326094D01*
X167075413Y-72264938D01*
X167075403Y-72264936D01*
X166840001Y-72244341D01*
X166839999Y-72244341D01*
X166604596Y-72264936D01*
X166604586Y-72264938D01*
X166376344Y-72326094D01*
X166376335Y-72326098D01*
X166162171Y-72425964D01*
X166162169Y-72425965D01*
X165968597Y-72561505D01*
X165801505Y-72728597D01*
X165671575Y-72914158D01*
X165616998Y-72957783D01*
X165547500Y-72964977D01*
X165485145Y-72933454D01*
X165468425Y-72914158D01*
X165338494Y-72728597D01*
X165171402Y-72561506D01*
X165171395Y-72561501D01*
X164977834Y-72425967D01*
X164977830Y-72425965D01*
X164906727Y-72392809D01*
X164763663Y-72326097D01*
X164763659Y-72326096D01*
X164763655Y-72326094D01*
X164535413Y-72264938D01*
X164535403Y-72264936D01*
X164300001Y-72244341D01*
X164299999Y-72244341D01*
X164064596Y-72264936D01*
X164064586Y-72264938D01*
X163836344Y-72326094D01*
X163836335Y-72326098D01*
X163622171Y-72425964D01*
X163622169Y-72425965D01*
X163428597Y-72561505D01*
X163261505Y-72728597D01*
X163131575Y-72914158D01*
X163076998Y-72957783D01*
X163007500Y-72964977D01*
X162945145Y-72933454D01*
X162928425Y-72914158D01*
X162798494Y-72728597D01*
X162631402Y-72561506D01*
X162631395Y-72561501D01*
X162437834Y-72425967D01*
X162437830Y-72425965D01*
X162366727Y-72392809D01*
X162223663Y-72326097D01*
X162223659Y-72326096D01*
X162223655Y-72326094D01*
X161995413Y-72264938D01*
X161995403Y-72264936D01*
X161760001Y-72244341D01*
X161759999Y-72244341D01*
X161524596Y-72264936D01*
X161524586Y-72264938D01*
X161296344Y-72326094D01*
X161296335Y-72326098D01*
X161082171Y-72425964D01*
X161082169Y-72425965D01*
X160888597Y-72561505D01*
X160721505Y-72728597D01*
X160585965Y-72922169D01*
X160585964Y-72922171D01*
X160486098Y-73136335D01*
X160486094Y-73136344D01*
X160424938Y-73364586D01*
X160424936Y-73364596D01*
X160404341Y-73599999D01*
X160404341Y-73600000D01*
X113561531Y-73600000D01*
X113956257Y-73066743D01*
X114304959Y-72601591D01*
X114306616Y-72599435D01*
X114772316Y-72007796D01*
X115136537Y-71551078D01*
X115138133Y-71549124D01*
X115619584Y-70973431D01*
X115998916Y-70525913D01*
X116000612Y-70523957D01*
X116445580Y-70022844D01*
X144840000Y-70022844D01*
X144846401Y-70082372D01*
X144846403Y-70082379D01*
X144896645Y-70217086D01*
X144896649Y-70217093D01*
X144982809Y-70332187D01*
X144982812Y-70332190D01*
X145097906Y-70418350D01*
X145097913Y-70418354D01*
X145232620Y-70468596D01*
X145232627Y-70468598D01*
X145292155Y-70474999D01*
X145292172Y-70475000D01*
X145940000Y-70475000D01*
X145940000Y-69560501D01*
X146047685Y-69609680D01*
X146154237Y-69625000D01*
X146225763Y-69625000D01*
X146332315Y-69609680D01*
X146440000Y-69560501D01*
X146440000Y-70475000D01*
X147087828Y-70475000D01*
X147087844Y-70474999D01*
X147147372Y-70468598D01*
X147147379Y-70468596D01*
X147282086Y-70418354D01*
X147282093Y-70418350D01*
X147397187Y-70332190D01*
X147397190Y-70332187D01*
X147483350Y-70217093D01*
X147483354Y-70217086D01*
X147532422Y-70085529D01*
X147574293Y-70029595D01*
X147639757Y-70005178D01*
X147708030Y-70020030D01*
X147736285Y-70041181D01*
X147858599Y-70163495D01*
X147935135Y-70217086D01*
X148052165Y-70299032D01*
X148052167Y-70299033D01*
X148052170Y-70299035D01*
X148266337Y-70398903D01*
X148494592Y-70460063D01*
X148665319Y-70475000D01*
X148729999Y-70480659D01*
X148730000Y-70480659D01*
X148730001Y-70480659D01*
X148794681Y-70475000D01*
X148965408Y-70460063D01*
X149193663Y-70398903D01*
X149407830Y-70299035D01*
X149601401Y-70163495D01*
X149768495Y-69996401D01*
X149898425Y-69810842D01*
X149953002Y-69767217D01*
X150022500Y-69760023D01*
X150084855Y-69791546D01*
X150101575Y-69810842D01*
X150231500Y-69996395D01*
X150231505Y-69996401D01*
X150398599Y-70163495D01*
X150475135Y-70217086D01*
X150592165Y-70299032D01*
X150592167Y-70299033D01*
X150592170Y-70299035D01*
X150806337Y-70398903D01*
X151034592Y-70460063D01*
X151205319Y-70475000D01*
X151269999Y-70480659D01*
X151270000Y-70480659D01*
X151270001Y-70480659D01*
X151334681Y-70475000D01*
X151505408Y-70460063D01*
X151733663Y-70398903D01*
X151947830Y-70299035D01*
X152141401Y-70163495D01*
X152308495Y-69996401D01*
X152438425Y-69810842D01*
X152493002Y-69767217D01*
X152562500Y-69760023D01*
X152624855Y-69791546D01*
X152641575Y-69810842D01*
X152771500Y-69996395D01*
X152771505Y-69996401D01*
X152938599Y-70163495D01*
X153015135Y-70217086D01*
X153132165Y-70299032D01*
X153132167Y-70299033D01*
X153132170Y-70299035D01*
X153346337Y-70398903D01*
X153574592Y-70460063D01*
X153745319Y-70475000D01*
X153809999Y-70480659D01*
X153810000Y-70480659D01*
X153810001Y-70480659D01*
X153874681Y-70475000D01*
X154045408Y-70460063D01*
X154273663Y-70398903D01*
X154487830Y-70299035D01*
X154681401Y-70163495D01*
X154848495Y-69996401D01*
X154984035Y-69802830D01*
X155083903Y-69588663D01*
X155145063Y-69360408D01*
X155165659Y-69125000D01*
X155145063Y-68889592D01*
X155083903Y-68661337D01*
X154984035Y-68447171D01*
X154978425Y-68439158D01*
X154848494Y-68253597D01*
X154681402Y-68086506D01*
X154681395Y-68086501D01*
X154487834Y-67950967D01*
X154487830Y-67950965D01*
X154416727Y-67917809D01*
X154273663Y-67851097D01*
X154273659Y-67851096D01*
X154273655Y-67851094D01*
X154045413Y-67789938D01*
X154045403Y-67789936D01*
X153810001Y-67769341D01*
X153809999Y-67769341D01*
X153574596Y-67789936D01*
X153574586Y-67789938D01*
X153346344Y-67851094D01*
X153346335Y-67851098D01*
X153132171Y-67950964D01*
X153132169Y-67950965D01*
X152938597Y-68086505D01*
X152771505Y-68253597D01*
X152641575Y-68439158D01*
X152586998Y-68482783D01*
X152517500Y-68489977D01*
X152455145Y-68458454D01*
X152438425Y-68439158D01*
X152308494Y-68253597D01*
X152141402Y-68086506D01*
X152141395Y-68086501D01*
X151947834Y-67950967D01*
X151947830Y-67950965D01*
X151876727Y-67917809D01*
X151733663Y-67851097D01*
X151733659Y-67851096D01*
X151733655Y-67851094D01*
X151505413Y-67789938D01*
X151505403Y-67789936D01*
X151270001Y-67769341D01*
X151269999Y-67769341D01*
X151034596Y-67789936D01*
X151034586Y-67789938D01*
X150806344Y-67851094D01*
X150806335Y-67851098D01*
X150592171Y-67950964D01*
X150592169Y-67950965D01*
X150398597Y-68086505D01*
X150231505Y-68253597D01*
X150101575Y-68439158D01*
X150046998Y-68482783D01*
X149977500Y-68489977D01*
X149915145Y-68458454D01*
X149898425Y-68439158D01*
X149768494Y-68253597D01*
X149601402Y-68086506D01*
X149601395Y-68086501D01*
X149407834Y-67950967D01*
X149407830Y-67950965D01*
X149336727Y-67917809D01*
X149193663Y-67851097D01*
X149193659Y-67851096D01*
X149193655Y-67851094D01*
X148965413Y-67789938D01*
X148965403Y-67789936D01*
X148730001Y-67769341D01*
X148729999Y-67769341D01*
X148494596Y-67789936D01*
X148494586Y-67789938D01*
X148266344Y-67851094D01*
X148266335Y-67851098D01*
X148052171Y-67950964D01*
X148052169Y-67950965D01*
X147858600Y-68086503D01*
X147736284Y-68208819D01*
X147674961Y-68242303D01*
X147605269Y-68237319D01*
X147549336Y-68195447D01*
X147532421Y-68164470D01*
X147483354Y-68032913D01*
X147483350Y-68032906D01*
X147397190Y-67917812D01*
X147397187Y-67917809D01*
X147282093Y-67831649D01*
X147282086Y-67831645D01*
X147147379Y-67781403D01*
X147147372Y-67781401D01*
X147087844Y-67775000D01*
X146440000Y-67775000D01*
X146440000Y-68689498D01*
X146332315Y-68640320D01*
X146225763Y-68625000D01*
X146154237Y-68625000D01*
X146047685Y-68640320D01*
X145940000Y-68689498D01*
X145940000Y-67775000D01*
X145292155Y-67775000D01*
X145232627Y-67781401D01*
X145232620Y-67781403D01*
X145097913Y-67831645D01*
X145097906Y-67831649D01*
X144982812Y-67917809D01*
X144982809Y-67917812D01*
X144896649Y-68032906D01*
X144896645Y-68032913D01*
X144846403Y-68167620D01*
X144846401Y-68167627D01*
X144840000Y-68227155D01*
X144840000Y-68875000D01*
X145756314Y-68875000D01*
X145730507Y-68915156D01*
X145690000Y-69053111D01*
X145690000Y-69196889D01*
X145730507Y-69334844D01*
X145756314Y-69375000D01*
X144840000Y-69375000D01*
X144840000Y-70022844D01*
X116445580Y-70022844D01*
X116497399Y-69964486D01*
X116891519Y-69526773D01*
X116893265Y-69524878D01*
X117404878Y-68982004D01*
X117813389Y-68554735D01*
X117815200Y-68552883D01*
X118341387Y-68026697D01*
X118763845Y-67610512D01*
X118765667Y-67608757D01*
X119305686Y-67099835D01*
X119306037Y-67099507D01*
X119741984Y-66695007D01*
X119743755Y-66693399D01*
X120297689Y-66201529D01*
X120297828Y-66201407D01*
X120746822Y-65809133D01*
X120748727Y-65807503D01*
X121315742Y-65333310D01*
X121316065Y-65333043D01*
X121777779Y-64953401D01*
X121779542Y-64951982D01*
X122359611Y-64495391D01*
X122833571Y-64128884D01*
X122835436Y-64127474D01*
X123427598Y-63689146D01*
X123427901Y-63688924D01*
X123913484Y-63336128D01*
X123915356Y-63334797D01*
X124519055Y-62915038D01*
X124519736Y-62914569D01*
X125016492Y-62575887D01*
X125018468Y-62574568D01*
X125633494Y-62173436D01*
X125634214Y-62172972D01*
X126141650Y-61848809D01*
X126143633Y-61847571D01*
X126769508Y-61465309D01*
X126770095Y-61464954D01*
X127287974Y-61155536D01*
X127289963Y-61154374D01*
X127926299Y-60791164D01*
X127926562Y-60791016D01*
X128454451Y-60496680D01*
X128456405Y-60495616D01*
X129102319Y-60151905D01*
X129102891Y-60151604D01*
X129639940Y-59872885D01*
X129641924Y-59871880D01*
X130297054Y-59547799D01*
X130297659Y-59547504D01*
X130843549Y-59284617D01*
X130845385Y-59283754D01*
X131509254Y-58979494D01*
X131509966Y-58979173D01*
X132064048Y-58732479D01*
X132065920Y-58731667D01*
X132737983Y-58447437D01*
X132738663Y-58447154D01*
X133300423Y-58216923D01*
X133302225Y-58216204D01*
X133981798Y-57952254D01*
X133982968Y-57951808D01*
X134551577Y-57738406D01*
X134553489Y-57737708D01*
X135240185Y-57494154D01*
X135240928Y-57493896D01*
X135816561Y-57297293D01*
X135818254Y-57296732D01*
X136511425Y-57073777D01*
X136512378Y-57073476D01*
X137093907Y-56894098D01*
X137095723Y-56893556D01*
X137794608Y-56691409D01*
X137795867Y-56691053D01*
X138382734Y-56529088D01*
X138384512Y-56528614D01*
X139088908Y-56347310D01*
X139089918Y-56347057D01*
X139681870Y-56202599D01*
X139683679Y-56202174D01*
X140392625Y-56041940D01*
X140393919Y-56041656D01*
X140990116Y-55914931D01*
X140991923Y-55914563D01*
X141705022Y-55775463D01*
X141706318Y-55775219D01*
X142306317Y-55666335D01*
X142308083Y-55666029D01*
X143024959Y-55548127D01*
X143026000Y-55547963D01*
X143629309Y-55457029D01*
X143631128Y-55456770D01*
X144350875Y-55360204D01*
X144352035Y-55360057D01*
X144958114Y-55287173D01*
X144959679Y-55286998D01*
X145681671Y-55211834D01*
X145683221Y-55211684D01*
X146291023Y-55156980D01*
X146292854Y-55156830D01*
X147016661Y-55103102D01*
X147018132Y-55103003D01*
X147627433Y-55066499D01*
X147629203Y-55066407D01*
X148354043Y-55034162D01*
X148355821Y-55034096D01*
X148965829Y-55015839D01*
X148967555Y-55015800D01*
X149693046Y-55005048D01*
X149694883Y-55005035D01*
X150305117Y-55005035D01*
X150306953Y-55005048D01*
G37*
%TD.AperFunction*%
%TD*%
M02*
