M48
; DRILL file {KiCad 7.0.10} date Wed Jan 31 17:42:02 2024
; FORMAT={-:-/ absolute / inch / decimal}
; #@! TF.CreationDate,2024-01-31T17:42:02+01:00
; #@! TF.GenerationSoftware,Kicad,Pcbnew,7.0.10
; #@! TF.FileFunction,Plated,1,2,PTH
FMAT,2
INCH
; #@! TA.AperFunction,Plated,PTH,ViaDrill
T1C0.0118
; #@! TA.AperFunction,Plated,PTH,ComponentDrill
T2C0.0256
; #@! TA.AperFunction,Plated,PTH,ComponentDrill
T3C0.0394
%
G90
G05
T1
X4.2244Y-3.874
X4.7402Y-4.0394
X4.752Y-3.3583
X4.8031Y-3.4961
X4.8543Y-3.4291
X4.8701Y-2.8976
X4.9016Y-3.7795
X5.063Y-3.752
X5.3661Y-3.4567
X5.4252Y-2.8661
X5.4567Y-3.7323
X5.6693Y-3.5079
X5.6772Y-4.0236
X5.6772Y-4.1142
X5.689Y-2.9606
X5.7087Y-3.3583
X5.7165Y-4.0551
X5.7169Y-3.7032
X5.7835Y-4.3504
X5.8031Y-3.2913
X5.8209Y-3.8071
X5.8543Y-4.4449
X5.8572Y-3.7981
X5.8583Y-3.4646
X5.8858Y-3.5945
X5.8898Y-3.9646
X5.8976Y-2.8898
X5.9213Y-3.8701
X5.937Y-3.437
X5.9488Y-3.8386
X5.9685Y-3.5787
X5.9882Y-3.7717
X5.9921Y-3.4764
X6.0157Y-3.2598
X6.0472Y-3.9409
X6.0709Y-3.2638
X6.0984Y-3.3622
X6.1102Y-3.0433
X6.1732Y-3.5512
X6.1969Y-3.2835
X6.2441Y-3.0157
X6.2874Y-3.9961
X6.3268Y-2.9921
X6.3622Y-3.1378
X6.4016Y-3.8898
X6.435Y-4.1772
X6.4724Y-3.315
X6.5709Y-3.1299
X6.5787Y-3.7992
X6.6299Y-3.5394
X6.7598Y-3.748
X6.8858Y-3.4296
X6.9094Y-2.6654
X6.9449Y-3.9094
X6.9803Y-3.0236
X6.9882Y-3.3386
X7.0669Y-4.122
X7.0984Y-3.3504
X7.2165Y-3.6772
X7.3346Y-3.0906
X7.3346Y-3.3622
X7.6142Y-3.878
T2
X6.2886Y-3.2402
X6.2886Y-3.2902
X6.2886Y-3.3402
X6.2886Y-3.3902
X6.2886Y-3.4402
X6.3386Y-3.2402
X6.3386Y-3.2902
X6.3386Y-3.3402
X6.3386Y-3.3902
X6.3386Y-3.4402
T3
X4.3583Y-3.6732
X4.4583Y-3.6732
X4.5583Y-3.6732
X4.6583Y-3.6732
X4.7583Y-3.6732
X4.8583Y-3.6732
X5.7555Y-2.7215
X5.8555Y-2.7215
X5.8555Y-5.3061
X5.9555Y-2.7215
X5.9555Y-5.3061
X6.0555Y-2.7215
X6.3685Y-2.8976
X6.4685Y-2.8976
X6.5685Y-2.8976
X6.6685Y-2.8976
X6.9744Y-3.7677
X7.0744Y-3.7677
X7.1744Y-3.7677
X7.2744Y-3.7677
X7.3744Y-3.7677
X7.4744Y-3.7677
M30
